%
M48
M72
T01C0.0200
T02C0.0276
T03C0.0320
T04C0.0354
T05C0.0400
%
T01
X17752Y4160
T02
X22469Y5373
X22469Y6160
X22469Y6947
X24469Y6947
X24469Y6160
X24469Y5373
X26469Y5373
X26469Y6160
X26469Y6947
X28469Y6947
X28469Y6160
X28469Y5373
X9752Y14766
X9752Y15554
T03
X8252Y5660
X9252Y5660
X9252Y9660
X8252Y9660
X21752Y12160
X22502Y12660
X21752Y13160
X23752Y13160
X24502Y12660
X23752Y12160
X25752Y12160
X26502Y12660
X25752Y13160
X27752Y13160
X28502Y12660
X27752Y12160
T04
X28252Y11160
X26252Y11160
X24252Y11160
X22252Y11160
X22252Y8160
X24252Y8160
X26252Y8160
X28252Y8160
X28252Y14160
X26252Y14160
X24252Y14160
X22252Y14160
X22252Y17160
X24252Y17160
X26252Y17160
X28252Y17160
X10752Y11160
X10752Y8160
X10752Y7160
X10752Y4160
T05
X15752Y1160
X16752Y1160
X17752Y1160
X18752Y1160
X19752Y1160
X20752Y1160
X22752Y1160
X23752Y1160
X24752Y1160
X25752Y1160
X26752Y1160
X27752Y1160
X19252Y9660
X19252Y10660
X19252Y11660
X19252Y14660
X19252Y15660
X19252Y20160
X18252Y20160
X17252Y20160
X16252Y20160
X15252Y20160
X14252Y20160
X13252Y20160
X12252Y20160
X12252Y15660
X12252Y14660
X12252Y11660
X12252Y10660
X12252Y9660
X20752Y20160
X21752Y20160
X22752Y20160
X23752Y20160
X24752Y20160
X25752Y20160
X26752Y20160
X27752Y20160
M30
