G75*
G70*
%OFA0B0*%
%FSLAX24Y24*%
%IPPOS*%
%LPD*%
%AMOC8*
5,1,8,0,0,1.08239X$1,22.5*
%
%ADD10C,0.0740*%
%ADD11C,0.0640*%
%ADD12C,0.0570*%
%ADD13C,0.0120*%
%ADD14C,0.0250*%
%ADD15C,0.0400*%
%ADD16C,0.0200*%
D10*
X008252Y005660D03*
X009252Y005660D03*
X010752Y004160D03*
X010752Y007160D03*
X010752Y008160D03*
X009252Y009660D03*
X008252Y009660D03*
X010752Y011160D03*
X012252Y010660D03*
X012252Y011660D03*
X012252Y009660D03*
X012252Y014660D03*
X012252Y015660D03*
X012252Y020160D03*
X013252Y020160D03*
X014252Y020160D03*
X015252Y020160D03*
X016252Y020160D03*
X017252Y020160D03*
X018252Y020160D03*
X019252Y020160D03*
X020752Y020160D03*
X021752Y020160D03*
X022752Y020160D03*
X023752Y020160D03*
X024752Y020160D03*
X025752Y020160D03*
X026752Y020160D03*
X027752Y020160D03*
X028252Y017160D03*
X026252Y017160D03*
X024252Y017160D03*
X022252Y017160D03*
X019252Y015660D03*
X019252Y014660D03*
X021752Y013160D03*
X022502Y012660D03*
X021752Y012160D03*
X022252Y011160D03*
X023752Y012160D03*
X024502Y012660D03*
X023752Y013160D03*
X024252Y014160D03*
X025752Y013160D03*
X026502Y012660D03*
X025752Y012160D03*
X026252Y011160D03*
X027752Y012160D03*
X028502Y012660D03*
X027752Y013160D03*
X028252Y014160D03*
X026252Y014160D03*
X022252Y014160D03*
X019252Y011660D03*
X019252Y010660D03*
X019252Y009660D03*
X022252Y008160D03*
X024252Y008160D03*
X026252Y008160D03*
X028252Y008160D03*
X028252Y011160D03*
X024252Y011160D03*
X023752Y001160D03*
X022752Y001160D03*
X024752Y001160D03*
X025752Y001160D03*
X026752Y001160D03*
X027752Y001160D03*
X020752Y001160D03*
X019752Y001160D03*
X018752Y001160D03*
X017752Y001160D03*
X016752Y001160D03*
X015752Y001160D03*
D11*
X022469Y005373D03*
X022469Y006160D03*
X022469Y006947D03*
X024469Y006947D03*
X024469Y006160D03*
X024469Y005373D03*
X026469Y005373D03*
X026469Y006160D03*
X026469Y006947D03*
X028469Y006947D03*
X028469Y006160D03*
X028469Y005373D03*
D12*
X009752Y014766D03*
X009752Y015554D03*
D13*
X006472Y020069D02*
X006472Y001251D01*
X007343Y000380D01*
X028661Y000380D01*
X029532Y001251D01*
X029532Y020069D01*
X028661Y020940D01*
X007343Y020940D01*
X006472Y020069D01*
X006472Y020068D02*
X011702Y020068D01*
X011702Y020051D02*
X011786Y019848D01*
X011941Y019694D01*
X012143Y019610D01*
X012362Y019610D01*
X012564Y019694D01*
X012719Y019848D01*
X012762Y019954D01*
X012799Y019882D01*
X012848Y019815D01*
X012907Y019756D01*
X012975Y019707D01*
X013049Y019669D01*
X013128Y019643D01*
X013211Y019630D01*
X013212Y019630D01*
X013212Y020120D01*
X013292Y020120D01*
X013292Y019630D01*
X013294Y019630D01*
X013376Y019643D01*
X013456Y019669D01*
X013530Y019707D01*
X013598Y019756D01*
X013657Y019815D01*
X013706Y019882D01*
X013742Y019954D01*
X013786Y019848D01*
X013941Y019694D01*
X014143Y019610D01*
X014362Y019610D01*
X014564Y019694D01*
X014719Y019848D01*
X014752Y019930D01*
X014786Y019848D01*
X014941Y019694D01*
X015143Y019610D01*
X015362Y019610D01*
X015564Y019694D01*
X015719Y019848D01*
X015752Y019930D01*
X015786Y019848D01*
X015941Y019694D01*
X016143Y019610D01*
X016362Y019610D01*
X016564Y019694D01*
X016719Y019848D01*
X016752Y019930D01*
X016786Y019848D01*
X016941Y019694D01*
X017012Y019664D01*
X017012Y017612D01*
X017049Y017524D01*
X018732Y015841D01*
X018702Y015769D01*
X018702Y015551D01*
X018786Y015348D01*
X018941Y015194D01*
X019047Y015150D01*
X018975Y015113D01*
X018907Y015064D01*
X018848Y015005D01*
X018799Y014938D01*
X018761Y014863D01*
X018735Y014784D01*
X018722Y014702D01*
X018722Y014700D01*
X019212Y014700D01*
X019212Y014620D01*
X018722Y014620D01*
X018722Y014618D01*
X018735Y014536D01*
X018761Y014457D01*
X018799Y014382D01*
X018848Y014315D01*
X018907Y014256D01*
X018975Y014207D01*
X019049Y014169D01*
X019128Y014143D01*
X019211Y014130D01*
X019212Y014130D01*
X019212Y014620D01*
X019292Y014620D01*
X019292Y014130D01*
X019294Y014130D01*
X019376Y014143D01*
X021702Y014143D01*
X021702Y014051D02*
X021702Y014269D01*
X021786Y014472D01*
X021941Y014626D01*
X022143Y014710D01*
X022362Y014710D01*
X022564Y014626D01*
X022719Y014472D01*
X022802Y014269D01*
X022802Y014051D01*
X022742Y013906D01*
X022742Y013156D01*
X022814Y013126D01*
X022969Y012972D01*
X023052Y012769D01*
X023052Y012551D01*
X022969Y012348D01*
X022814Y012194D01*
X022612Y012110D01*
X022393Y012110D01*
X022302Y012148D01*
X022302Y012051D01*
X022219Y011848D01*
X022064Y011694D01*
X021862Y011610D01*
X021643Y011610D01*
X021571Y011640D01*
X021492Y011561D01*
X021492Y008259D01*
X021703Y008049D01*
X021702Y008051D01*
X021702Y008269D01*
X021786Y008472D01*
X021941Y008626D01*
X022143Y008710D01*
X022362Y008710D01*
X022564Y008626D01*
X022719Y008472D01*
X022748Y008400D01*
X022800Y008400D01*
X022888Y008363D01*
X023012Y008239D01*
X023012Y011708D01*
X023049Y011796D01*
X023116Y011863D01*
X023232Y011979D01*
X023202Y012051D01*
X023202Y012269D01*
X023286Y012472D01*
X023441Y012626D01*
X023547Y012670D01*
X023475Y012707D01*
X023407Y012756D01*
X023348Y012815D01*
X023299Y012882D01*
X023261Y012957D01*
X023235Y013036D01*
X023222Y013118D01*
X023222Y013140D01*
X023732Y013140D01*
X023732Y013180D01*
X023222Y013180D01*
X023222Y013202D01*
X023235Y013284D01*
X023261Y013363D01*
X023299Y013438D01*
X023348Y013505D01*
X023407Y013564D01*
X023475Y013613D01*
X023549Y013651D01*
X023628Y013677D01*
X023711Y013690D01*
X023732Y013690D01*
X023732Y013180D01*
X023772Y013180D01*
X023772Y013690D01*
X023794Y013690D01*
X023876Y013677D01*
X023956Y013651D01*
X024030Y013613D01*
X024098Y013564D01*
X024157Y013505D01*
X024206Y013438D01*
X024244Y013363D01*
X024262Y013305D01*
X024262Y013610D01*
X024143Y013610D01*
X023941Y013694D01*
X023786Y013848D01*
X023702Y014051D01*
X023702Y014269D01*
X023786Y014472D01*
X023941Y014626D01*
X024143Y014710D01*
X024362Y014710D01*
X024564Y014626D01*
X024719Y014472D01*
X024802Y014269D01*
X024802Y014051D01*
X024742Y013906D01*
X024742Y013156D01*
X024814Y013126D01*
X024969Y012972D01*
X025052Y012769D01*
X025052Y012551D01*
X024969Y012348D01*
X024814Y012194D01*
X024612Y012110D01*
X024393Y012110D01*
X024302Y012148D01*
X024302Y012051D01*
X024219Y011848D01*
X024064Y011694D01*
X023862Y011610D01*
X023643Y011610D01*
X023571Y011640D01*
X023492Y011561D01*
X023492Y008259D01*
X023703Y008049D01*
X023702Y008051D01*
X023702Y008269D01*
X023786Y008472D01*
X023941Y008626D01*
X024143Y008710D01*
X024362Y008710D01*
X024564Y008626D01*
X024719Y008472D01*
X024748Y008400D01*
X024800Y008400D01*
X024888Y008363D01*
X025012Y008239D01*
X025012Y011708D01*
X025049Y011796D01*
X025116Y011863D01*
X025232Y011979D01*
X025202Y012051D01*
X025202Y012269D01*
X025286Y012472D01*
X025441Y012626D01*
X025547Y012670D01*
X025475Y012707D01*
X025407Y012756D01*
X025348Y012815D01*
X025299Y012882D01*
X025261Y012957D01*
X025235Y013036D01*
X025222Y013118D01*
X025222Y013140D01*
X025732Y013140D01*
X025732Y013180D01*
X025222Y013180D01*
X025222Y013202D01*
X025235Y013284D01*
X025261Y013363D01*
X025299Y013438D01*
X025348Y013505D01*
X025407Y013564D01*
X025475Y013613D01*
X025549Y013651D01*
X025628Y013677D01*
X025711Y013690D01*
X025732Y013690D01*
X025732Y013180D01*
X025772Y013180D01*
X025772Y013690D01*
X025794Y013690D01*
X025876Y013677D01*
X025956Y013651D01*
X026030Y013613D01*
X026098Y013564D01*
X026157Y013505D01*
X026206Y013438D01*
X026244Y013363D01*
X026262Y013305D01*
X026262Y013610D01*
X026143Y013610D01*
X025941Y013694D01*
X025786Y013848D01*
X025702Y014051D01*
X025702Y014269D01*
X025786Y014472D01*
X025941Y014626D01*
X026143Y014710D01*
X026362Y014710D01*
X026564Y014626D01*
X026719Y014472D01*
X026802Y014269D01*
X026802Y014051D01*
X026742Y013906D01*
X026742Y013156D01*
X026814Y013126D01*
X026969Y012972D01*
X027052Y012769D01*
X027052Y012551D01*
X026969Y012348D01*
X026814Y012194D01*
X026612Y012110D01*
X026393Y012110D01*
X026302Y012148D01*
X026302Y012051D01*
X026219Y011848D01*
X026064Y011694D01*
X025862Y011610D01*
X025643Y011610D01*
X025571Y011640D01*
X025492Y011561D01*
X025492Y008259D01*
X025703Y008049D01*
X025702Y008051D01*
X025702Y008269D01*
X025786Y008472D01*
X025941Y008626D01*
X026143Y008710D01*
X026362Y008710D01*
X026564Y008626D01*
X026719Y008472D01*
X026748Y008400D01*
X026800Y008400D01*
X026888Y008363D01*
X027012Y008239D01*
X027012Y011708D01*
X027049Y011796D01*
X027116Y011863D01*
X027116Y011863D01*
X027232Y011979D01*
X027202Y012051D01*
X027202Y012269D01*
X027286Y012472D01*
X027441Y012626D01*
X027547Y012670D01*
X027475Y012707D01*
X027407Y012756D01*
X027348Y012815D01*
X027299Y012882D01*
X027261Y012957D01*
X027235Y013036D01*
X027222Y013118D01*
X027222Y013140D01*
X027732Y013140D01*
X027732Y013180D01*
X027222Y013180D01*
X027222Y013202D01*
X027235Y013284D01*
X027261Y013363D01*
X027299Y013438D01*
X027348Y013505D01*
X027407Y013564D01*
X027475Y013613D01*
X027549Y013651D01*
X027628Y013677D01*
X027711Y013690D01*
X027732Y013690D01*
X027732Y013180D01*
X027772Y013180D01*
X027772Y013690D01*
X027794Y013690D01*
X027876Y013677D01*
X027956Y013651D01*
X028030Y013613D01*
X028098Y013564D01*
X028157Y013505D01*
X028206Y013438D01*
X028244Y013363D01*
X028262Y013305D01*
X028262Y013610D01*
X028143Y013610D01*
X027941Y013694D01*
X027786Y013848D01*
X027702Y014051D01*
X027702Y014269D01*
X027786Y014472D01*
X027941Y014626D01*
X028143Y014710D01*
X028362Y014710D01*
X028564Y014626D01*
X028719Y014472D01*
X028802Y014269D01*
X028802Y014051D01*
X028742Y013906D01*
X028742Y013156D01*
X028814Y013126D01*
X028969Y012972D01*
X029052Y012769D01*
X029052Y012551D01*
X028969Y012348D01*
X028814Y012194D01*
X028612Y012110D01*
X028393Y012110D01*
X028302Y012148D01*
X028302Y012051D01*
X028219Y011848D01*
X028064Y011694D01*
X027862Y011610D01*
X027643Y011610D01*
X027571Y011640D01*
X027492Y011561D01*
X027492Y008259D01*
X027703Y008049D01*
X027702Y008051D01*
X027702Y008269D01*
X027786Y008472D01*
X027941Y008626D01*
X028143Y008710D01*
X028362Y008710D01*
X028564Y008626D01*
X028719Y008472D01*
X028748Y008400D01*
X028800Y008400D01*
X028888Y008363D01*
X029388Y007863D01*
X029456Y007796D01*
X029492Y007708D01*
X029492Y005612D01*
X029456Y005524D01*
X029388Y005457D01*
X029101Y005169D01*
X029013Y005133D01*
X028911Y005133D01*
X028893Y005089D01*
X028752Y004949D01*
X028568Y004873D01*
X028369Y004873D01*
X028186Y004949D01*
X028045Y005089D01*
X027969Y005273D01*
X027969Y005472D01*
X028045Y005656D01*
X028155Y005766D01*
X028045Y005877D01*
X027969Y006061D01*
X027969Y006259D01*
X027987Y006303D01*
X027549Y006741D01*
X027512Y006829D01*
X027512Y007561D01*
X027492Y007581D01*
X027492Y005612D01*
X027456Y005524D01*
X027388Y005457D01*
X027101Y005169D01*
X027013Y005133D01*
X026911Y005133D01*
X026893Y005089D01*
X026752Y004949D01*
X026568Y004873D01*
X026369Y004873D01*
X026186Y004949D01*
X026045Y005089D01*
X025969Y005273D01*
X025969Y005472D01*
X026045Y005656D01*
X026155Y005766D01*
X026045Y005877D01*
X025969Y006061D01*
X025969Y006259D01*
X025987Y006303D01*
X025549Y006741D01*
X025512Y006829D01*
X025512Y007561D01*
X025492Y007581D01*
X025492Y005612D01*
X025456Y005524D01*
X025388Y005457D01*
X025101Y005169D01*
X025013Y005133D01*
X024911Y005133D01*
X024893Y005089D01*
X024752Y004949D01*
X024568Y004873D01*
X024369Y004873D01*
X024186Y004949D01*
X024045Y005089D01*
X023969Y005273D01*
X023969Y005472D01*
X024045Y005656D01*
X024155Y005766D01*
X024045Y005877D01*
X023969Y006061D01*
X023969Y006259D01*
X023987Y006303D01*
X023549Y006741D01*
X023512Y006829D01*
X023512Y007561D01*
X023492Y007581D01*
X023492Y005612D01*
X023456Y005524D01*
X023388Y005457D01*
X023101Y005169D01*
X023013Y005133D01*
X022911Y005133D01*
X022893Y005089D01*
X022752Y004949D01*
X022568Y004873D01*
X022369Y004873D01*
X022186Y004949D01*
X022045Y005089D01*
X021969Y005273D01*
X021969Y005472D01*
X022045Y005656D01*
X022155Y005766D01*
X022045Y005877D01*
X021969Y006061D01*
X021969Y006259D01*
X021987Y006303D01*
X021549Y006741D01*
X021512Y006829D01*
X021512Y007561D01*
X021049Y008024D01*
X021012Y008112D01*
X021012Y011708D01*
X021049Y011796D01*
X021116Y011863D01*
X021232Y011979D01*
X021202Y012051D01*
X021202Y012269D01*
X021286Y012472D01*
X021441Y012626D01*
X021547Y012670D01*
X021475Y012707D01*
X021407Y012756D01*
X021348Y012815D01*
X021299Y012882D01*
X021261Y012957D01*
X021235Y013036D01*
X021222Y013118D01*
X021222Y013140D01*
X021732Y013140D01*
X021732Y013180D01*
X021222Y013180D01*
X021222Y013202D01*
X021235Y013284D01*
X021261Y013363D01*
X021299Y013438D01*
X021348Y013505D01*
X021407Y013564D01*
X021475Y013613D01*
X021549Y013651D01*
X021628Y013677D01*
X021711Y013690D01*
X021732Y013690D01*
X021732Y013180D01*
X021772Y013180D01*
X021772Y013690D01*
X021794Y013690D01*
X021876Y013677D01*
X021956Y013651D01*
X022030Y013613D01*
X022098Y013564D01*
X022157Y013505D01*
X022206Y013438D01*
X022244Y013363D01*
X022262Y013305D01*
X022262Y013610D01*
X022143Y013610D01*
X021941Y013694D01*
X021786Y013848D01*
X021702Y014051D01*
X021713Y014025D02*
X006472Y014025D01*
X006472Y014143D02*
X012063Y014143D01*
X012143Y014110D02*
X012362Y014110D01*
X012564Y014194D01*
X012719Y014348D01*
X012802Y014551D01*
X012802Y014769D01*
X012719Y014972D01*
X012564Y015126D01*
X012482Y015160D01*
X012564Y015194D01*
X012719Y015348D01*
X012802Y015551D01*
X012802Y015769D01*
X012719Y015972D01*
X012564Y016126D01*
X012362Y016210D01*
X012143Y016210D01*
X011941Y016126D01*
X011786Y015972D01*
X011702Y015769D01*
X011702Y015551D01*
X011786Y015348D01*
X011941Y015194D01*
X012022Y015160D01*
X011941Y015126D01*
X011786Y014972D01*
X011702Y014769D01*
X011702Y014551D01*
X011786Y014348D01*
X011941Y014194D01*
X012143Y014110D01*
X012442Y014143D02*
X019128Y014143D01*
X019212Y014143D02*
X019292Y014143D01*
X019376Y014143D02*
X019456Y014169D01*
X019530Y014207D01*
X019598Y014256D01*
X019657Y014315D01*
X019706Y014382D01*
X019744Y014457D01*
X019769Y014536D01*
X019782Y014618D01*
X019782Y014620D01*
X019292Y014620D01*
X019292Y014700D01*
X019782Y014700D01*
X019782Y014702D01*
X019769Y014784D01*
X019744Y014863D01*
X019706Y014938D01*
X019657Y015005D01*
X019598Y015064D01*
X019530Y015113D01*
X019458Y015150D01*
X019564Y015194D01*
X019719Y015348D01*
X019802Y015551D01*
X019802Y015769D01*
X019719Y015972D01*
X019564Y016126D01*
X019362Y016210D01*
X019143Y016210D01*
X019071Y016180D01*
X017492Y017759D01*
X017492Y019664D01*
X017564Y019694D01*
X017719Y019848D01*
X017752Y019930D01*
X017786Y019848D01*
X017941Y019694D01*
X018143Y019610D01*
X018362Y019610D01*
X018433Y019640D01*
X021049Y017024D01*
X021116Y016957D01*
X021205Y016920D01*
X021756Y016920D01*
X021786Y016848D01*
X021941Y016694D01*
X022143Y016610D01*
X022362Y016610D01*
X022564Y016694D01*
X022719Y016848D01*
X022802Y017051D01*
X022802Y017269D01*
X022719Y017472D01*
X022564Y017626D01*
X022362Y017710D01*
X022143Y017710D01*
X021941Y017626D01*
X021786Y017472D01*
X021756Y017400D01*
X021352Y017400D01*
X019141Y019611D01*
X019143Y019610D01*
X019362Y019610D01*
X019564Y019694D01*
X019719Y019848D01*
X019802Y020051D01*
X019802Y020269D01*
X019719Y020472D01*
X019564Y020626D01*
X019362Y020710D01*
X019143Y020710D01*
X018941Y020626D01*
X018786Y020472D01*
X018752Y020390D01*
X018719Y020472D01*
X018564Y020626D01*
X018362Y020710D01*
X018143Y020710D01*
X017941Y020626D01*
X017786Y020472D01*
X017752Y020390D01*
X017719Y020472D01*
X017564Y020626D01*
X017362Y020710D01*
X017143Y020710D01*
X016941Y020626D01*
X016786Y020472D01*
X016752Y020390D01*
X016719Y020472D01*
X016564Y020626D01*
X016362Y020710D01*
X016143Y020710D01*
X015941Y020626D01*
X015786Y020472D01*
X015752Y020390D01*
X015719Y020472D01*
X015564Y020626D01*
X015362Y020710D01*
X015143Y020710D01*
X014941Y020626D01*
X014786Y020472D01*
X014752Y020390D01*
X014719Y020472D01*
X014564Y020626D01*
X014362Y020710D01*
X014143Y020710D01*
X013941Y020626D01*
X013786Y020472D01*
X013742Y020366D01*
X013706Y020438D01*
X013657Y020505D01*
X013598Y020564D01*
X013530Y020613D01*
X013456Y020651D01*
X013376Y020677D01*
X013294Y020690D01*
X013292Y020690D01*
X013292Y020200D01*
X013212Y020200D01*
X013212Y020690D01*
X013211Y020690D01*
X013128Y020677D01*
X013049Y020651D01*
X012975Y020613D01*
X012907Y020564D01*
X012848Y020505D01*
X012799Y020438D01*
X012762Y020366D01*
X012719Y020472D01*
X012564Y020626D01*
X012362Y020710D01*
X012143Y020710D01*
X011941Y020626D01*
X011786Y020472D01*
X011702Y020269D01*
X011702Y020051D01*
X011744Y019950D02*
X006472Y019950D01*
X006472Y019831D02*
X011804Y019831D01*
X011922Y019713D02*
X006472Y019713D01*
X006472Y019594D02*
X017012Y019594D01*
X017012Y019476D02*
X006472Y019476D01*
X006472Y019357D02*
X017012Y019357D01*
X017012Y019239D02*
X006472Y019239D01*
X006472Y019120D02*
X017012Y019120D01*
X017012Y019002D02*
X006472Y019002D01*
X006472Y018883D02*
X017012Y018883D01*
X017012Y018765D02*
X006472Y018765D01*
X006472Y018646D02*
X017012Y018646D01*
X017012Y018528D02*
X006472Y018528D01*
X006472Y018409D02*
X017012Y018409D01*
X017012Y018291D02*
X006472Y018291D01*
X006472Y018172D02*
X017012Y018172D01*
X017012Y018054D02*
X006472Y018054D01*
X006472Y017935D02*
X017012Y017935D01*
X017012Y017817D02*
X006472Y017817D01*
X006472Y017698D02*
X017012Y017698D01*
X017026Y017580D02*
X006472Y017580D01*
X006472Y017461D02*
X017112Y017461D01*
X017230Y017343D02*
X006472Y017343D01*
X006472Y017224D02*
X017349Y017224D01*
X017467Y017106D02*
X006472Y017106D01*
X006472Y016987D02*
X017586Y016987D01*
X017704Y016869D02*
X006472Y016869D01*
X006472Y016750D02*
X017823Y016750D01*
X017941Y016632D02*
X006472Y016632D01*
X006472Y016513D02*
X018060Y016513D01*
X018178Y016395D02*
X006472Y016395D01*
X006472Y016276D02*
X018297Y016276D01*
X018415Y016158D02*
X012488Y016158D01*
X012651Y016039D02*
X018534Y016039D01*
X018652Y015921D02*
X012740Y015921D01*
X012789Y015802D02*
X018716Y015802D01*
X018702Y015684D02*
X012802Y015684D01*
X012802Y015565D02*
X018702Y015565D01*
X018745Y015447D02*
X012759Y015447D01*
X012698Y015328D02*
X018807Y015328D01*
X018925Y015210D02*
X012580Y015210D01*
X012599Y015091D02*
X018944Y015091D01*
X018824Y014973D02*
X012718Y014973D01*
X012767Y014854D02*
X018758Y014854D01*
X018728Y014736D02*
X012802Y014736D01*
X012802Y014617D02*
X018723Y014617D01*
X018748Y014499D02*
X012781Y014499D01*
X012732Y014380D02*
X018801Y014380D01*
X018901Y014262D02*
X012632Y014262D01*
X011873Y014262D02*
X006472Y014262D01*
X006472Y014380D02*
X009481Y014380D01*
X009489Y014372D02*
X009660Y014301D01*
X009845Y014301D01*
X010016Y014372D01*
X010147Y014503D01*
X010217Y014674D01*
X010217Y014859D01*
X010147Y015030D01*
X010016Y015160D01*
X010147Y015290D01*
X010217Y015461D01*
X010217Y015646D01*
X010147Y015817D01*
X010016Y015948D01*
X009845Y016019D01*
X009660Y016019D01*
X009489Y015948D01*
X009358Y015817D01*
X009287Y015646D01*
X009287Y015461D01*
X009358Y015290D01*
X009488Y015160D01*
X009358Y015030D01*
X009287Y014859D01*
X009287Y014674D01*
X009358Y014503D01*
X009489Y014372D01*
X009363Y014499D02*
X006472Y014499D01*
X006472Y014617D02*
X009311Y014617D01*
X009287Y014736D02*
X006472Y014736D01*
X006472Y014854D02*
X009287Y014854D01*
X009334Y014973D02*
X006472Y014973D01*
X006472Y015091D02*
X009419Y015091D01*
X009439Y015210D02*
X006472Y015210D01*
X006472Y015328D02*
X009343Y015328D01*
X009293Y015447D02*
X006472Y015447D01*
X006472Y015565D02*
X009287Y015565D01*
X009303Y015684D02*
X006472Y015684D01*
X006472Y015802D02*
X009352Y015802D01*
X009462Y015921D02*
X006472Y015921D01*
X006472Y016039D02*
X011854Y016039D01*
X011765Y015921D02*
X010043Y015921D01*
X010153Y015802D02*
X011716Y015802D01*
X011702Y015684D02*
X010202Y015684D01*
X010217Y015565D02*
X011702Y015565D01*
X011745Y015447D02*
X010211Y015447D01*
X010162Y015328D02*
X011807Y015328D01*
X011925Y015210D02*
X010066Y015210D01*
X010085Y015091D02*
X011906Y015091D01*
X011787Y014973D02*
X010170Y014973D01*
X010217Y014854D02*
X011737Y014854D01*
X011702Y014736D02*
X010217Y014736D01*
X010194Y014617D02*
X011702Y014617D01*
X011724Y014499D02*
X010142Y014499D01*
X010024Y014380D02*
X011773Y014380D01*
X012016Y016158D02*
X006472Y016158D01*
X006472Y013906D02*
X021762Y013906D01*
X021847Y013788D02*
X006472Y013788D01*
X006472Y013669D02*
X021604Y013669D01*
X021732Y013669D02*
X021772Y013669D01*
X021772Y013551D02*
X021732Y013551D01*
X021732Y013432D02*
X021772Y013432D01*
X021772Y013314D02*
X021732Y013314D01*
X021732Y013195D02*
X021772Y013195D01*
X021245Y013314D02*
X006472Y013314D01*
X006472Y013432D02*
X021296Y013432D01*
X021393Y013551D02*
X006472Y013551D01*
X006472Y013195D02*
X021222Y013195D01*
X021229Y013077D02*
X006472Y013077D01*
X006472Y012958D02*
X021261Y012958D01*
X021330Y012840D02*
X006472Y012840D01*
X006472Y012721D02*
X021455Y012721D01*
X021417Y012603D02*
X006472Y012603D01*
X006472Y012484D02*
X021299Y012484D01*
X021242Y012366D02*
X006472Y012366D01*
X006472Y012247D02*
X021202Y012247D01*
X021202Y012129D02*
X019500Y012129D01*
X019530Y012113D02*
X019456Y012151D01*
X019376Y012177D01*
X019294Y012190D01*
X019292Y012190D01*
X019292Y011700D01*
X019212Y011700D01*
X019212Y011620D01*
X018722Y011620D01*
X018722Y011618D01*
X018735Y011536D01*
X012769Y011536D01*
X012782Y011618D01*
X012782Y011620D01*
X012292Y011620D01*
X012292Y011700D01*
X012212Y011700D01*
X012212Y011620D01*
X011722Y011620D01*
X011722Y011618D01*
X011735Y011536D01*
X011154Y011536D01*
X011219Y011472D02*
X011232Y011440D01*
X011770Y011440D01*
X011761Y011457D01*
X011735Y011536D01*
X011722Y011700D02*
X012212Y011700D01*
X012212Y012190D01*
X012211Y012190D01*
X012128Y012177D01*
X012049Y012151D01*
X011975Y012113D01*
X011907Y012064D01*
X011848Y012005D01*
X011799Y011938D01*
X011761Y011863D01*
X011735Y011784D01*
X011722Y011702D01*
X011722Y011700D01*
X011734Y011773D02*
X006472Y011773D01*
X006472Y011655D02*
X010509Y011655D01*
X010441Y011626D02*
X010286Y011472D01*
X010202Y011269D01*
X010202Y011051D01*
X010286Y010848D01*
X010441Y010694D01*
X010643Y010610D01*
X010862Y010610D01*
X011064Y010694D01*
X011219Y010848D01*
X011232Y010880D01*
X011636Y010880D01*
X011715Y010801D01*
X011702Y010769D01*
X011702Y010551D01*
X011786Y010348D01*
X011941Y010194D01*
X012022Y010160D01*
X011941Y010126D01*
X011786Y009972D01*
X011702Y009769D01*
X011702Y009551D01*
X011786Y009348D01*
X011941Y009194D01*
X012143Y009110D01*
X012362Y009110D01*
X012564Y009194D01*
X012719Y009348D01*
X012802Y009551D01*
X012802Y009769D01*
X012719Y009972D01*
X012564Y010126D01*
X012482Y010160D01*
X012564Y010194D01*
X012719Y010348D01*
X012721Y010355D01*
X016626Y010355D01*
X017447Y009534D01*
X017447Y004392D01*
X017430Y004375D01*
X017372Y004236D01*
X017372Y004084D01*
X017430Y003945D01*
X017447Y003928D01*
X017447Y001629D01*
X017441Y001626D01*
X017286Y001472D01*
X017252Y001390D01*
X017219Y001472D01*
X017064Y001626D01*
X016862Y001710D01*
X016643Y001710D01*
X016441Y001626D01*
X016286Y001472D01*
X016252Y001390D01*
X016219Y001472D01*
X016064Y001626D01*
X015862Y001710D01*
X015643Y001710D01*
X015441Y001626D01*
X015286Y001472D01*
X015202Y001269D01*
X015202Y001051D01*
X015286Y000848D01*
X015441Y000694D01*
X015643Y000610D01*
X015862Y000610D01*
X016064Y000694D01*
X016219Y000848D01*
X016252Y000930D01*
X016286Y000848D01*
X016441Y000694D01*
X016643Y000610D01*
X016862Y000610D01*
X017064Y000694D01*
X017219Y000848D01*
X017252Y000930D01*
X017286Y000848D01*
X017441Y000694D01*
X017643Y000610D01*
X017862Y000610D01*
X018064Y000694D01*
X018219Y000848D01*
X018262Y000954D01*
X018299Y000882D01*
X018348Y000815D01*
X018407Y000756D01*
X018475Y000707D01*
X018549Y000669D01*
X018628Y000643D01*
X018711Y000630D01*
X018712Y000630D01*
X018712Y001120D01*
X018792Y001120D01*
X018792Y000630D01*
X018794Y000630D01*
X018876Y000643D01*
X018956Y000669D01*
X019030Y000707D01*
X019098Y000756D01*
X019157Y000815D01*
X019206Y000882D01*
X019244Y000957D01*
X019252Y000984D01*
X019261Y000957D01*
X019299Y000882D01*
X019348Y000815D01*
X019407Y000756D01*
X019475Y000707D01*
X019549Y000669D01*
X019628Y000643D01*
X019711Y000630D01*
X019712Y000630D01*
X019712Y001120D01*
X019222Y001120D01*
X018792Y001120D01*
X018792Y001200D01*
X018712Y001200D01*
X018712Y001690D01*
X018711Y001690D01*
X018628Y001677D01*
X018549Y001651D01*
X018475Y001613D01*
X018407Y001564D01*
X018348Y001505D01*
X018299Y001438D01*
X018262Y001366D01*
X018219Y001472D01*
X018064Y001626D01*
X018057Y001629D01*
X018057Y003928D01*
X018075Y003945D01*
X018132Y004084D01*
X018132Y004236D01*
X018075Y004375D01*
X018057Y004392D01*
X018057Y009721D01*
X018011Y009833D01*
X017011Y010833D01*
X016925Y010919D01*
X016813Y010965D01*
X012721Y010965D01*
X012719Y010972D01*
X012564Y011126D01*
X012458Y011170D01*
X012530Y011207D01*
X012598Y011256D01*
X012657Y011315D01*
X012706Y011382D01*
X012744Y011457D01*
X012769Y011536D01*
X012724Y011418D02*
X018781Y011418D01*
X018799Y011382D02*
X018848Y011315D01*
X018907Y011256D01*
X018975Y011207D01*
X019047Y011170D01*
X018941Y011126D01*
X018786Y010972D01*
X018702Y010769D01*
X018702Y010551D01*
X018786Y010348D01*
X018941Y010194D01*
X019022Y010160D01*
X018941Y010126D01*
X018786Y009972D01*
X018702Y009769D01*
X018702Y009551D01*
X018786Y009348D01*
X018941Y009194D01*
X019143Y009110D01*
X019362Y009110D01*
X019564Y009194D01*
X019719Y009348D01*
X019802Y009551D01*
X019802Y009769D01*
X019719Y009972D01*
X019564Y010126D01*
X019482Y010160D01*
X019564Y010194D01*
X019719Y010348D01*
X019802Y010551D01*
X019802Y010769D01*
X019719Y010972D01*
X019564Y011126D01*
X019458Y011170D01*
X019530Y011207D01*
X019598Y011256D01*
X019657Y011315D01*
X019706Y011382D01*
X019744Y011457D01*
X019769Y011536D01*
X019782Y011618D01*
X019782Y011620D01*
X019292Y011620D01*
X019292Y011700D01*
X019782Y011700D01*
X019782Y011702D01*
X019769Y011784D01*
X019744Y011863D01*
X019706Y011938D01*
X019657Y012005D01*
X019598Y012064D01*
X019530Y012113D01*
X019652Y012010D02*
X021219Y012010D01*
X021144Y011892D02*
X019729Y011892D01*
X019771Y011773D02*
X021039Y011773D01*
X021012Y011655D02*
X019292Y011655D01*
X019212Y011655D02*
X012292Y011655D01*
X012292Y011700D02*
X012782Y011700D01*
X012782Y011702D01*
X012769Y011784D01*
X012744Y011863D01*
X012706Y011938D01*
X012657Y012005D01*
X012598Y012064D01*
X012530Y012113D01*
X012456Y012151D01*
X012376Y012177D01*
X012294Y012190D01*
X012292Y012190D01*
X012292Y011700D01*
X012292Y011773D02*
X012212Y011773D01*
X012212Y011655D02*
X010996Y011655D01*
X011064Y011626D02*
X010862Y011710D01*
X010643Y011710D01*
X010441Y011626D01*
X010351Y011536D02*
X006472Y011536D01*
X006472Y011418D02*
X010264Y011418D01*
X010215Y011299D02*
X006472Y011299D01*
X006472Y011181D02*
X010202Y011181D01*
X010202Y011062D02*
X006472Y011062D01*
X006472Y010944D02*
X010247Y010944D01*
X010310Y010825D02*
X006472Y010825D01*
X006472Y010707D02*
X010428Y010707D01*
X011077Y010707D02*
X011702Y010707D01*
X011691Y010825D02*
X011195Y010825D01*
X011702Y010588D02*
X006472Y010588D01*
X006472Y010470D02*
X011736Y010470D01*
X011785Y010351D02*
X006472Y010351D01*
X006472Y010233D02*
X011902Y010233D01*
X011929Y010114D02*
X009529Y010114D01*
X009530Y010113D02*
X009456Y010151D01*
X009376Y010177D01*
X009294Y010190D01*
X009272Y010190D01*
X009272Y009680D01*
X009232Y009680D01*
X009232Y010190D01*
X009211Y010190D01*
X009128Y010177D01*
X009049Y010151D01*
X008975Y010113D01*
X008907Y010064D01*
X008848Y010005D01*
X008799Y009938D01*
X008762Y009866D01*
X008719Y009972D01*
X008564Y010126D01*
X008362Y010210D01*
X008143Y010210D01*
X007941Y010126D01*
X007786Y009972D01*
X007702Y009769D01*
X007702Y009551D01*
X007786Y009348D01*
X007941Y009194D01*
X008143Y009110D01*
X008362Y009110D01*
X008564Y009194D01*
X008719Y009348D01*
X008762Y009454D01*
X008799Y009382D01*
X008848Y009315D01*
X008907Y009256D01*
X008975Y009207D01*
X009049Y009169D01*
X009128Y009143D01*
X009211Y009130D01*
X009232Y009130D01*
X009232Y009640D01*
X009272Y009640D01*
X009272Y009130D01*
X009294Y009130D01*
X009376Y009143D01*
X009456Y009169D01*
X009530Y009207D01*
X009598Y009256D01*
X009657Y009315D01*
X009706Y009382D01*
X009744Y009457D01*
X009769Y009536D01*
X009782Y009618D01*
X009782Y009640D01*
X009272Y009640D01*
X011702Y009640D01*
X011702Y009759D02*
X009773Y009759D01*
X009769Y009784D02*
X009744Y009863D01*
X009706Y009938D01*
X009657Y010005D01*
X009598Y010064D01*
X009530Y010113D01*
X009664Y009996D02*
X011810Y009996D01*
X011747Y009877D02*
X009737Y009877D01*
X009769Y009784D02*
X009782Y009702D01*
X009782Y009680D01*
X009272Y009680D01*
X009272Y009640D01*
X009272Y009522D02*
X009232Y009522D01*
X009232Y009403D02*
X009272Y009403D01*
X009272Y009285D02*
X009232Y009285D01*
X009232Y009166D02*
X009272Y009166D01*
X009447Y009166D02*
X012008Y009166D01*
X011850Y009285D02*
X009626Y009285D01*
X009716Y009403D02*
X011763Y009403D01*
X011714Y009522D02*
X009765Y009522D01*
X009272Y009759D02*
X009232Y009759D01*
X009232Y009877D02*
X009272Y009877D01*
X009272Y009996D02*
X009232Y009996D01*
X009232Y010114D02*
X009272Y010114D01*
X008976Y010114D02*
X008576Y010114D01*
X008695Y009996D02*
X008841Y009996D01*
X008768Y009877D02*
X008758Y009877D01*
X008741Y009403D02*
X008788Y009403D01*
X008878Y009285D02*
X008655Y009285D01*
X008497Y009166D02*
X009058Y009166D01*
X008008Y009166D02*
X006472Y009166D01*
X006472Y009048D02*
X017447Y009048D01*
X017447Y009166D02*
X012497Y009166D01*
X012655Y009285D02*
X017447Y009285D01*
X017447Y009403D02*
X012741Y009403D01*
X012790Y009522D02*
X017447Y009522D01*
X017341Y009640D02*
X012802Y009640D01*
X012802Y009759D02*
X017223Y009759D01*
X017104Y009877D02*
X012758Y009877D01*
X012695Y009996D02*
X016986Y009996D01*
X016867Y010114D02*
X012576Y010114D01*
X012603Y010233D02*
X016749Y010233D01*
X016630Y010351D02*
X012720Y010351D01*
X012628Y011062D02*
X018877Y011062D01*
X018774Y010944D02*
X016865Y010944D01*
X017011Y010833D02*
X017011Y010833D01*
X017019Y010825D02*
X018725Y010825D01*
X018702Y010707D02*
X017137Y010707D01*
X017256Y010588D02*
X018702Y010588D01*
X018736Y010470D02*
X017374Y010470D01*
X017493Y010351D02*
X018785Y010351D01*
X018902Y010233D02*
X017611Y010233D01*
X017730Y010114D02*
X018929Y010114D01*
X018810Y009996D02*
X017848Y009996D01*
X017967Y009877D02*
X018747Y009877D01*
X018702Y009759D02*
X018042Y009759D01*
X018057Y009640D02*
X018702Y009640D01*
X018714Y009522D02*
X018057Y009522D01*
X018057Y009403D02*
X018763Y009403D01*
X018850Y009285D02*
X018057Y009285D01*
X018057Y009166D02*
X019008Y009166D01*
X019497Y009166D02*
X021012Y009166D01*
X021012Y009048D02*
X018057Y009048D01*
X018057Y008929D02*
X021012Y008929D01*
X021012Y008811D02*
X018057Y008811D01*
X018057Y008692D02*
X021012Y008692D01*
X021012Y008574D02*
X018057Y008574D01*
X018057Y008455D02*
X021012Y008455D01*
X021012Y008337D02*
X018057Y008337D01*
X018057Y008218D02*
X021012Y008218D01*
X021018Y008100D02*
X018057Y008100D01*
X018057Y007981D02*
X021092Y007981D01*
X021210Y007863D02*
X018057Y007863D01*
X018057Y007744D02*
X021329Y007744D01*
X021447Y007626D02*
X018057Y007626D01*
X018057Y007507D02*
X021512Y007507D01*
X021512Y007389D02*
X018057Y007389D01*
X018057Y007270D02*
X021512Y007270D01*
X021512Y007152D02*
X018057Y007152D01*
X018057Y007033D02*
X021512Y007033D01*
X021512Y006915D02*
X018057Y006915D01*
X018057Y006796D02*
X021526Y006796D01*
X021612Y006678D02*
X018057Y006678D01*
X018057Y006559D02*
X021730Y006559D01*
X021849Y006441D02*
X018057Y006441D01*
X018057Y006322D02*
X021967Y006322D01*
X021969Y006204D02*
X018057Y006204D01*
X018057Y006085D02*
X021969Y006085D01*
X022008Y005967D02*
X018057Y005967D01*
X018057Y005848D02*
X022074Y005848D01*
X022119Y005730D02*
X018057Y005730D01*
X018057Y005611D02*
X022026Y005611D01*
X021977Y005493D02*
X018057Y005493D01*
X018057Y005374D02*
X021969Y005374D01*
X021976Y005256D02*
X018057Y005256D01*
X018057Y005137D02*
X022025Y005137D01*
X022116Y005019D02*
X018057Y005019D01*
X018057Y004900D02*
X022303Y004900D01*
X022635Y004900D02*
X024303Y004900D01*
X024116Y005019D02*
X022822Y005019D01*
X023023Y005137D02*
X024025Y005137D01*
X023976Y005256D02*
X023187Y005256D01*
X023306Y005374D02*
X023969Y005374D01*
X023977Y005493D02*
X023424Y005493D01*
X023492Y005611D02*
X024026Y005611D01*
X024119Y005730D02*
X023492Y005730D01*
X023492Y005848D02*
X024074Y005848D01*
X024008Y005967D02*
X023492Y005967D01*
X023492Y006085D02*
X023969Y006085D01*
X023969Y006204D02*
X023492Y006204D01*
X023492Y006322D02*
X023967Y006322D01*
X023849Y006441D02*
X023492Y006441D01*
X023492Y006559D02*
X023730Y006559D01*
X023612Y006678D02*
X023492Y006678D01*
X023492Y006796D02*
X023526Y006796D01*
X023512Y006915D02*
X023492Y006915D01*
X023492Y007033D02*
X023512Y007033D01*
X023512Y007152D02*
X023492Y007152D01*
X023492Y007270D02*
X023512Y007270D01*
X023512Y007389D02*
X023492Y007389D01*
X023492Y007507D02*
X023512Y007507D01*
X023752Y007660D02*
X023752Y006877D01*
X024469Y006160D01*
X025252Y005660D02*
X025252Y007660D01*
X024752Y008160D01*
X024252Y008160D01*
X023888Y008574D02*
X023492Y008574D01*
X023492Y008692D02*
X024100Y008692D01*
X024405Y008692D02*
X025012Y008692D01*
X025012Y008574D02*
X024617Y008574D01*
X024725Y008455D02*
X025012Y008455D01*
X025012Y008337D02*
X024915Y008337D01*
X025252Y008160D02*
X025752Y007660D01*
X025752Y006877D01*
X026469Y006160D01*
X026008Y005967D02*
X025492Y005967D01*
X025492Y006085D02*
X025969Y006085D01*
X025969Y006204D02*
X025492Y006204D01*
X025492Y006322D02*
X025967Y006322D01*
X025849Y006441D02*
X025492Y006441D01*
X025492Y006559D02*
X025730Y006559D01*
X025612Y006678D02*
X025492Y006678D01*
X025492Y006796D02*
X025526Y006796D01*
X025512Y006915D02*
X025492Y006915D01*
X025492Y007033D02*
X025512Y007033D01*
X025512Y007152D02*
X025492Y007152D01*
X025492Y007270D02*
X025512Y007270D01*
X025512Y007389D02*
X025492Y007389D01*
X025492Y007507D02*
X025512Y007507D01*
X025652Y008100D02*
X025702Y008100D01*
X025702Y008218D02*
X025534Y008218D01*
X025492Y008337D02*
X025730Y008337D01*
X025779Y008455D02*
X025492Y008455D01*
X025492Y008574D02*
X025888Y008574D01*
X026100Y008692D02*
X025492Y008692D01*
X025492Y008811D02*
X027012Y008811D01*
X027012Y008929D02*
X025492Y008929D01*
X025492Y009048D02*
X027012Y009048D01*
X027012Y009166D02*
X025492Y009166D01*
X025492Y009285D02*
X027012Y009285D01*
X027012Y009403D02*
X025492Y009403D01*
X025492Y009522D02*
X027012Y009522D01*
X027012Y009640D02*
X025492Y009640D01*
X025492Y009759D02*
X027012Y009759D01*
X027012Y009877D02*
X025492Y009877D01*
X025492Y009996D02*
X027012Y009996D01*
X027012Y010114D02*
X025492Y010114D01*
X025492Y010233D02*
X027012Y010233D01*
X027012Y010351D02*
X025492Y010351D01*
X025492Y010470D02*
X027012Y010470D01*
X027012Y010588D02*
X025492Y010588D01*
X025492Y010707D02*
X025928Y010707D01*
X025941Y010694D02*
X026143Y010610D01*
X026362Y010610D01*
X026564Y010694D01*
X026719Y010848D01*
X026802Y011051D01*
X026802Y011269D01*
X026719Y011472D01*
X026564Y011626D01*
X026362Y011710D01*
X026143Y011710D01*
X025941Y011626D01*
X025786Y011472D01*
X025702Y011269D01*
X025702Y011051D01*
X025786Y010848D01*
X025941Y010694D01*
X025810Y010825D02*
X025492Y010825D01*
X025492Y010944D02*
X025747Y010944D01*
X025702Y011062D02*
X025492Y011062D01*
X025492Y011181D02*
X025702Y011181D01*
X025715Y011299D02*
X025492Y011299D01*
X025492Y011418D02*
X025764Y011418D01*
X025851Y011536D02*
X025492Y011536D01*
X025252Y011660D02*
X025252Y008160D01*
X025012Y008811D02*
X023492Y008811D01*
X023492Y008929D02*
X025012Y008929D01*
X025012Y009048D02*
X023492Y009048D01*
X023492Y009166D02*
X025012Y009166D01*
X025012Y009285D02*
X023492Y009285D01*
X023492Y009403D02*
X025012Y009403D01*
X025012Y009522D02*
X023492Y009522D01*
X023492Y009640D02*
X025012Y009640D01*
X025012Y009759D02*
X023492Y009759D01*
X023492Y009877D02*
X025012Y009877D01*
X025012Y009996D02*
X023492Y009996D01*
X023492Y010114D02*
X025012Y010114D01*
X025012Y010233D02*
X023492Y010233D01*
X023492Y010351D02*
X025012Y010351D01*
X025012Y010470D02*
X023492Y010470D01*
X023492Y010588D02*
X025012Y010588D01*
X025012Y010707D02*
X024577Y010707D01*
X024564Y010694D02*
X024719Y010848D01*
X024802Y011051D01*
X024802Y011269D01*
X024719Y011472D01*
X024564Y011626D01*
X024362Y011710D01*
X024143Y011710D01*
X023941Y011626D01*
X023786Y011472D01*
X023702Y011269D01*
X023702Y011051D01*
X023786Y010848D01*
X023941Y010694D01*
X024143Y010610D01*
X024362Y010610D01*
X024564Y010694D01*
X024695Y010825D02*
X025012Y010825D01*
X025012Y010944D02*
X024758Y010944D01*
X024802Y011062D02*
X025012Y011062D01*
X025012Y011181D02*
X024802Y011181D01*
X024790Y011299D02*
X025012Y011299D01*
X025012Y011418D02*
X024741Y011418D01*
X024654Y011536D02*
X025012Y011536D01*
X025012Y011655D02*
X024496Y011655D01*
X024236Y011892D02*
X025144Y011892D01*
X025219Y012010D02*
X024286Y012010D01*
X024302Y012129D02*
X024348Y012129D01*
X024656Y012129D02*
X025202Y012129D01*
X025202Y012247D02*
X024867Y012247D01*
X024976Y012366D02*
X025242Y012366D01*
X025299Y012484D02*
X025025Y012484D01*
X025052Y012603D02*
X025417Y012603D01*
X025455Y012721D02*
X025052Y012721D01*
X025023Y012840D02*
X025330Y012840D01*
X025261Y012958D02*
X024974Y012958D01*
X024864Y013077D02*
X025229Y013077D01*
X025222Y013195D02*
X024742Y013195D01*
X024742Y013314D02*
X025245Y013314D01*
X025296Y013432D02*
X024742Y013432D01*
X024742Y013551D02*
X025393Y013551D01*
X025604Y013669D02*
X024742Y013669D01*
X024742Y013788D02*
X025847Y013788D01*
X025901Y013669D02*
X026000Y013669D01*
X026111Y013551D02*
X026262Y013551D01*
X026262Y013432D02*
X026209Y013432D01*
X026260Y013314D02*
X026262Y013314D01*
X025772Y013314D02*
X025732Y013314D01*
X025732Y013432D02*
X025772Y013432D01*
X025772Y013551D02*
X025732Y013551D01*
X025732Y013669D02*
X025772Y013669D01*
X025762Y013906D02*
X024742Y013906D01*
X024792Y014025D02*
X025713Y014025D01*
X025702Y014143D02*
X024802Y014143D01*
X024802Y014262D02*
X025702Y014262D01*
X025748Y014380D02*
X024757Y014380D01*
X024692Y014499D02*
X025813Y014499D01*
X025932Y014617D02*
X024573Y014617D01*
X024252Y014160D02*
X024502Y013910D01*
X024502Y012660D01*
X023752Y012160D02*
X023252Y011660D01*
X023252Y008160D01*
X023752Y007660D01*
X023702Y008100D02*
X023652Y008100D01*
X023702Y008218D02*
X023534Y008218D01*
X023492Y008337D02*
X023730Y008337D01*
X023779Y008455D02*
X023492Y008455D01*
X023012Y008455D02*
X022725Y008455D01*
X022617Y008574D02*
X023012Y008574D01*
X023012Y008692D02*
X022405Y008692D01*
X022100Y008692D02*
X021492Y008692D01*
X021492Y008574D02*
X021888Y008574D01*
X021779Y008455D02*
X021492Y008455D01*
X021492Y008337D02*
X021730Y008337D01*
X021702Y008218D02*
X021534Y008218D01*
X021652Y008100D02*
X021702Y008100D01*
X021752Y007660D02*
X021252Y008160D01*
X021252Y011660D01*
X021752Y012160D01*
X022143Y011773D02*
X023039Y011773D01*
X023012Y011655D02*
X022496Y011655D01*
X022564Y011626D02*
X022362Y011710D01*
X022143Y011710D01*
X021941Y011626D01*
X021786Y011472D01*
X021702Y011269D01*
X021702Y011051D01*
X021786Y010848D01*
X021941Y010694D01*
X022143Y010610D01*
X022362Y010610D01*
X022564Y010694D01*
X022719Y010848D01*
X022802Y011051D01*
X022802Y011269D01*
X022719Y011472D01*
X022564Y011626D01*
X022654Y011536D02*
X023012Y011536D01*
X023012Y011418D02*
X022741Y011418D01*
X022790Y011299D02*
X023012Y011299D01*
X023012Y011181D02*
X022802Y011181D01*
X022802Y011062D02*
X023012Y011062D01*
X023012Y010944D02*
X022758Y010944D01*
X022695Y010825D02*
X023012Y010825D01*
X023012Y010707D02*
X022577Y010707D01*
X023012Y010588D02*
X021492Y010588D01*
X021492Y010470D02*
X023012Y010470D01*
X023012Y010351D02*
X021492Y010351D01*
X021492Y010233D02*
X023012Y010233D01*
X023012Y010114D02*
X021492Y010114D01*
X021492Y009996D02*
X023012Y009996D01*
X023012Y009877D02*
X021492Y009877D01*
X021492Y009759D02*
X023012Y009759D01*
X023012Y009640D02*
X021492Y009640D01*
X021492Y009522D02*
X023012Y009522D01*
X023012Y009403D02*
X021492Y009403D01*
X021492Y009285D02*
X023012Y009285D01*
X023012Y009166D02*
X021492Y009166D01*
X021492Y009048D02*
X023012Y009048D01*
X023012Y008929D02*
X021492Y008929D01*
X021492Y008811D02*
X023012Y008811D01*
X023012Y008337D02*
X022915Y008337D01*
X022752Y008160D02*
X023252Y007660D01*
X023252Y005660D01*
X022965Y005373D01*
X022469Y005373D01*
X022469Y006160D02*
X021752Y006877D01*
X021752Y007660D01*
X022252Y008160D02*
X022752Y008160D01*
X021012Y009285D02*
X019655Y009285D01*
X019741Y009403D02*
X021012Y009403D01*
X021012Y009522D02*
X019790Y009522D01*
X019802Y009640D02*
X021012Y009640D01*
X021012Y009759D02*
X019802Y009759D01*
X019758Y009877D02*
X021012Y009877D01*
X021012Y009996D02*
X019695Y009996D01*
X019576Y010114D02*
X021012Y010114D01*
X021012Y010233D02*
X019603Y010233D01*
X019720Y010351D02*
X021012Y010351D01*
X021012Y010470D02*
X019769Y010470D01*
X019802Y010588D02*
X021012Y010588D01*
X021012Y010707D02*
X019802Y010707D01*
X019779Y010825D02*
X021012Y010825D01*
X021012Y010944D02*
X019730Y010944D01*
X019628Y011062D02*
X021012Y011062D01*
X021012Y011181D02*
X019479Y011181D01*
X019641Y011299D02*
X021012Y011299D01*
X021012Y011418D02*
X019724Y011418D01*
X019769Y011536D02*
X021012Y011536D01*
X021492Y011536D02*
X021851Y011536D01*
X021764Y011418D02*
X021492Y011418D01*
X021492Y011299D02*
X021715Y011299D01*
X021702Y011181D02*
X021492Y011181D01*
X021492Y011062D02*
X021702Y011062D01*
X021747Y010944D02*
X021492Y010944D01*
X021492Y010825D02*
X021810Y010825D01*
X021928Y010707D02*
X021492Y010707D01*
X021969Y011655D02*
X022009Y011655D01*
X022236Y011892D02*
X023144Y011892D01*
X023219Y012010D02*
X022286Y012010D01*
X022302Y012129D02*
X022348Y012129D01*
X022656Y012129D02*
X023202Y012129D01*
X023202Y012247D02*
X022867Y012247D01*
X022976Y012366D02*
X023242Y012366D01*
X023299Y012484D02*
X023025Y012484D01*
X023052Y012603D02*
X023417Y012603D01*
X023455Y012721D02*
X023052Y012721D01*
X023023Y012840D02*
X023330Y012840D01*
X023261Y012958D02*
X022974Y012958D01*
X022864Y013077D02*
X023229Y013077D01*
X023222Y013195D02*
X022742Y013195D01*
X022742Y013314D02*
X023245Y013314D01*
X023296Y013432D02*
X022742Y013432D01*
X022742Y013551D02*
X023393Y013551D01*
X023604Y013669D02*
X022742Y013669D01*
X022742Y013788D02*
X023847Y013788D01*
X023901Y013669D02*
X024000Y013669D01*
X024111Y013551D02*
X024262Y013551D01*
X024262Y013432D02*
X024209Y013432D01*
X024260Y013314D02*
X024262Y013314D01*
X023772Y013314D02*
X023732Y013314D01*
X023732Y013432D02*
X023772Y013432D01*
X023772Y013551D02*
X023732Y013551D01*
X023732Y013669D02*
X023772Y013669D01*
X023762Y013906D02*
X022742Y013906D01*
X022792Y014025D02*
X023713Y014025D01*
X023702Y014143D02*
X022802Y014143D01*
X022802Y014262D02*
X023702Y014262D01*
X023748Y014380D02*
X022757Y014380D01*
X022692Y014499D02*
X023813Y014499D01*
X023932Y014617D02*
X022573Y014617D01*
X022252Y014160D02*
X022502Y013910D01*
X022502Y012660D01*
X022262Y013314D02*
X022260Y013314D01*
X022262Y013432D02*
X022209Y013432D01*
X022262Y013551D02*
X022111Y013551D01*
X022000Y013669D02*
X021901Y013669D01*
X021702Y014262D02*
X019603Y014262D01*
X019704Y014380D02*
X021748Y014380D01*
X021813Y014499D02*
X019757Y014499D01*
X019782Y014617D02*
X021932Y014617D01*
X019777Y014736D02*
X029532Y014736D01*
X029532Y014854D02*
X019747Y014854D01*
X019680Y014973D02*
X029532Y014973D01*
X029532Y015091D02*
X019561Y015091D01*
X019580Y015210D02*
X029532Y015210D01*
X029532Y015328D02*
X019698Y015328D01*
X019759Y015447D02*
X029532Y015447D01*
X029532Y015565D02*
X019802Y015565D01*
X019802Y015684D02*
X029532Y015684D01*
X029532Y015802D02*
X019789Y015802D01*
X019740Y015921D02*
X029532Y015921D01*
X029532Y016039D02*
X019651Y016039D01*
X019488Y016158D02*
X029532Y016158D01*
X029532Y016276D02*
X018976Y016276D01*
X018857Y016395D02*
X029532Y016395D01*
X029532Y016513D02*
X018739Y016513D01*
X018620Y016632D02*
X022091Y016632D01*
X021885Y016750D02*
X018502Y016750D01*
X018383Y016869D02*
X021778Y016869D01*
X022252Y017160D02*
X021252Y017160D01*
X018252Y020160D01*
X018648Y020542D02*
X018857Y020542D01*
X018766Y020424D02*
X018739Y020424D01*
X018481Y020661D02*
X019024Y020661D01*
X019481Y020661D02*
X020524Y020661D01*
X020441Y020626D02*
X020286Y020472D01*
X020202Y020269D01*
X020202Y020051D01*
X020286Y019848D01*
X020441Y019694D01*
X020643Y019610D01*
X020862Y019610D01*
X021064Y019694D01*
X021219Y019848D01*
X021252Y019930D01*
X021286Y019848D01*
X021441Y019694D01*
X021512Y019664D01*
X021512Y019612D01*
X021549Y019524D01*
X023732Y017341D01*
X023702Y017269D01*
X023702Y017051D01*
X023786Y016848D01*
X023941Y016694D01*
X024143Y016610D01*
X024362Y016610D01*
X024564Y016694D01*
X024719Y016848D01*
X024802Y017051D01*
X024802Y017269D01*
X024719Y017472D01*
X024564Y017626D01*
X024362Y017710D01*
X024143Y017710D01*
X024071Y017680D01*
X022060Y019692D01*
X022064Y019694D01*
X022219Y019848D01*
X022252Y019930D01*
X022286Y019848D01*
X022441Y019694D01*
X022643Y019610D01*
X022862Y019610D01*
X022933Y019640D01*
X025549Y017024D01*
X025616Y016957D01*
X025705Y016920D01*
X025756Y016920D01*
X025786Y016848D01*
X025941Y016694D01*
X026143Y016610D01*
X026362Y016610D01*
X026564Y016694D01*
X026719Y016848D01*
X026802Y017051D01*
X026802Y017269D01*
X026719Y017472D01*
X026564Y017626D01*
X026362Y017710D01*
X026143Y017710D01*
X025941Y017626D01*
X025786Y017472D01*
X025784Y017467D01*
X023641Y019611D01*
X023643Y019610D01*
X023862Y019610D01*
X024064Y019694D01*
X024219Y019848D01*
X024252Y019930D01*
X024286Y019848D01*
X024441Y019694D01*
X024643Y019610D01*
X024862Y019610D01*
X024933Y019640D01*
X027549Y017024D01*
X027616Y016957D01*
X027705Y016920D01*
X027756Y016920D01*
X027786Y016848D01*
X027941Y016694D01*
X028143Y016610D01*
X028362Y016610D01*
X028564Y016694D01*
X028719Y016848D01*
X028802Y017051D01*
X028802Y017269D01*
X028719Y017472D01*
X028564Y017626D01*
X028362Y017710D01*
X028143Y017710D01*
X027941Y017626D01*
X027786Y017472D01*
X027784Y017467D01*
X025641Y019611D01*
X025643Y019610D01*
X025862Y019610D01*
X026064Y019694D01*
X026219Y019848D01*
X026252Y019930D01*
X026286Y019848D01*
X026441Y019694D01*
X026643Y019610D01*
X026862Y019610D01*
X027064Y019694D01*
X027219Y019848D01*
X027252Y019930D01*
X027286Y019848D01*
X027441Y019694D01*
X027643Y019610D01*
X027862Y019610D01*
X028064Y019694D01*
X028219Y019848D01*
X028302Y020051D01*
X028302Y020269D01*
X028219Y020472D01*
X028064Y020626D01*
X027862Y020710D01*
X027643Y020710D01*
X027441Y020626D01*
X027286Y020472D01*
X027252Y020390D01*
X027219Y020472D01*
X027064Y020626D01*
X026862Y020710D01*
X026643Y020710D01*
X026441Y020626D01*
X026286Y020472D01*
X026252Y020390D01*
X026219Y020472D01*
X026064Y020626D01*
X025862Y020710D01*
X025643Y020710D01*
X025441Y020626D01*
X025286Y020472D01*
X025252Y020390D01*
X025219Y020472D01*
X025064Y020626D01*
X024862Y020710D01*
X024643Y020710D01*
X024441Y020626D01*
X024286Y020472D01*
X024252Y020390D01*
X024219Y020472D01*
X024064Y020626D01*
X023862Y020710D01*
X023643Y020710D01*
X023441Y020626D01*
X023286Y020472D01*
X023252Y020390D01*
X023219Y020472D01*
X023064Y020626D01*
X022862Y020710D01*
X022643Y020710D01*
X022441Y020626D01*
X022286Y020472D01*
X022252Y020390D01*
X022219Y020472D01*
X022064Y020626D01*
X021862Y020710D01*
X021643Y020710D01*
X021441Y020626D01*
X021286Y020472D01*
X021252Y020390D01*
X021219Y020472D01*
X021064Y020626D01*
X020862Y020710D01*
X020643Y020710D01*
X020441Y020626D01*
X020357Y020542D02*
X019648Y020542D01*
X019739Y020424D02*
X020266Y020424D01*
X020217Y020305D02*
X019788Y020305D01*
X019802Y020187D02*
X020202Y020187D01*
X020202Y020068D02*
X019802Y020068D01*
X019761Y019950D02*
X020244Y019950D01*
X020304Y019831D02*
X019701Y019831D01*
X019583Y019713D02*
X020422Y019713D01*
X021083Y019713D02*
X021422Y019713D01*
X021520Y019594D02*
X019158Y019594D01*
X019276Y019476D02*
X021597Y019476D01*
X021716Y019357D02*
X019395Y019357D01*
X019513Y019239D02*
X021834Y019239D01*
X021953Y019120D02*
X019632Y019120D01*
X019750Y019002D02*
X022071Y019002D01*
X022190Y018883D02*
X019869Y018883D01*
X019987Y018765D02*
X022308Y018765D01*
X022427Y018646D02*
X020106Y018646D01*
X020224Y018528D02*
X022545Y018528D01*
X022664Y018409D02*
X020343Y018409D01*
X020461Y018291D02*
X022782Y018291D01*
X022901Y018172D02*
X020580Y018172D01*
X020698Y018054D02*
X023019Y018054D01*
X023138Y017935D02*
X020817Y017935D01*
X020935Y017817D02*
X023256Y017817D01*
X023375Y017698D02*
X022391Y017698D01*
X022611Y017580D02*
X023493Y017580D01*
X023612Y017461D02*
X022723Y017461D01*
X022772Y017343D02*
X023730Y017343D01*
X023702Y017224D02*
X022802Y017224D01*
X022802Y017106D02*
X023702Y017106D01*
X023729Y016987D02*
X022776Y016987D01*
X022727Y016869D02*
X023778Y016869D01*
X023885Y016750D02*
X022620Y016750D01*
X022414Y016632D02*
X024091Y016632D01*
X024414Y016632D02*
X026091Y016632D01*
X025885Y016750D02*
X024620Y016750D01*
X024727Y016869D02*
X025778Y016869D01*
X025586Y016987D02*
X024776Y016987D01*
X024802Y017106D02*
X025467Y017106D01*
X025349Y017224D02*
X024802Y017224D01*
X024772Y017343D02*
X025230Y017343D01*
X025112Y017461D02*
X024723Y017461D01*
X024611Y017580D02*
X024993Y017580D01*
X024875Y017698D02*
X024391Y017698D01*
X024114Y017698D02*
X024054Y017698D01*
X023935Y017817D02*
X024756Y017817D01*
X024638Y017935D02*
X023817Y017935D01*
X023698Y018054D02*
X024519Y018054D01*
X024401Y018172D02*
X023580Y018172D01*
X023461Y018291D02*
X024282Y018291D01*
X024164Y018409D02*
X023343Y018409D01*
X023224Y018528D02*
X024045Y018528D01*
X023927Y018646D02*
X023106Y018646D01*
X022987Y018765D02*
X023808Y018765D01*
X023690Y018883D02*
X022869Y018883D01*
X022750Y019002D02*
X023571Y019002D01*
X023453Y019120D02*
X022632Y019120D01*
X022513Y019239D02*
X023334Y019239D01*
X023216Y019357D02*
X022395Y019357D01*
X022276Y019476D02*
X023097Y019476D01*
X022979Y019594D02*
X022158Y019594D01*
X022083Y019713D02*
X022422Y019713D01*
X022304Y019831D02*
X022201Y019831D01*
X021752Y019660D02*
X021752Y020160D01*
X021357Y020542D02*
X021148Y020542D01*
X021239Y020424D02*
X021266Y020424D01*
X021524Y020661D02*
X020981Y020661D01*
X021981Y020661D02*
X022524Y020661D01*
X022357Y020542D02*
X022148Y020542D01*
X022239Y020424D02*
X022266Y020424D01*
X022752Y020160D02*
X025752Y017160D01*
X026252Y017160D01*
X026620Y016750D02*
X027885Y016750D01*
X027778Y016869D02*
X026727Y016869D01*
X026776Y016987D02*
X027586Y016987D01*
X027467Y017106D02*
X026802Y017106D01*
X026802Y017224D02*
X027349Y017224D01*
X027230Y017343D02*
X026772Y017343D01*
X026723Y017461D02*
X027112Y017461D01*
X026993Y017580D02*
X026611Y017580D01*
X026391Y017698D02*
X026875Y017698D01*
X026756Y017817D02*
X025435Y017817D01*
X025317Y017935D02*
X026638Y017935D01*
X026519Y018054D02*
X025198Y018054D01*
X025080Y018172D02*
X026401Y018172D01*
X026282Y018291D02*
X024961Y018291D01*
X024843Y018409D02*
X026164Y018409D01*
X026045Y018528D02*
X024724Y018528D01*
X024606Y018646D02*
X025927Y018646D01*
X025808Y018765D02*
X024487Y018765D01*
X024369Y018883D02*
X025690Y018883D01*
X025571Y019002D02*
X024250Y019002D01*
X024132Y019120D02*
X025453Y019120D01*
X025334Y019239D02*
X024013Y019239D01*
X023895Y019357D02*
X025216Y019357D01*
X025097Y019476D02*
X023776Y019476D01*
X023658Y019594D02*
X024979Y019594D01*
X024422Y019713D02*
X024083Y019713D01*
X024201Y019831D02*
X024304Y019831D01*
X024752Y020160D02*
X027752Y017160D01*
X028252Y017160D01*
X028620Y016750D02*
X029532Y016750D01*
X029532Y016632D02*
X028414Y016632D01*
X028091Y016632D02*
X026414Y016632D01*
X025894Y017580D02*
X025672Y017580D01*
X025554Y017698D02*
X026114Y017698D01*
X026843Y018409D02*
X029532Y018409D01*
X029532Y018291D02*
X026961Y018291D01*
X027080Y018172D02*
X029532Y018172D01*
X029532Y018054D02*
X027198Y018054D01*
X027317Y017935D02*
X029532Y017935D01*
X029532Y017817D02*
X027435Y017817D01*
X027554Y017698D02*
X028114Y017698D01*
X027894Y017580D02*
X027672Y017580D01*
X028391Y017698D02*
X029532Y017698D01*
X029532Y017580D02*
X028611Y017580D01*
X028723Y017461D02*
X029532Y017461D01*
X029532Y017343D02*
X028772Y017343D01*
X028802Y017224D02*
X029532Y017224D01*
X029532Y017106D02*
X028802Y017106D01*
X028776Y016987D02*
X029532Y016987D01*
X029532Y016869D02*
X028727Y016869D01*
X029532Y018528D02*
X026724Y018528D01*
X026606Y018646D02*
X029532Y018646D01*
X029532Y018765D02*
X026487Y018765D01*
X026369Y018883D02*
X029532Y018883D01*
X029532Y019002D02*
X026250Y019002D01*
X026132Y019120D02*
X029532Y019120D01*
X029532Y019239D02*
X026013Y019239D01*
X025895Y019357D02*
X029532Y019357D01*
X029532Y019476D02*
X025776Y019476D01*
X025658Y019594D02*
X029532Y019594D01*
X029532Y019713D02*
X028083Y019713D01*
X028201Y019831D02*
X029532Y019831D01*
X029532Y019950D02*
X028261Y019950D01*
X028302Y020068D02*
X029532Y020068D01*
X029415Y020187D02*
X028302Y020187D01*
X028288Y020305D02*
X029296Y020305D01*
X029178Y020424D02*
X028239Y020424D01*
X028148Y020542D02*
X029059Y020542D01*
X028941Y020661D02*
X027981Y020661D01*
X027524Y020661D02*
X026981Y020661D01*
X027148Y020542D02*
X027357Y020542D01*
X027266Y020424D02*
X027239Y020424D01*
X027201Y019831D02*
X027304Y019831D01*
X027422Y019713D02*
X027083Y019713D01*
X026422Y019713D02*
X026083Y019713D01*
X026201Y019831D02*
X026304Y019831D01*
X026266Y020424D02*
X026239Y020424D01*
X026148Y020542D02*
X026357Y020542D01*
X026524Y020661D02*
X025981Y020661D01*
X025524Y020661D02*
X024981Y020661D01*
X025148Y020542D02*
X025357Y020542D01*
X025266Y020424D02*
X025239Y020424D01*
X024524Y020661D02*
X023981Y020661D01*
X024148Y020542D02*
X024357Y020542D01*
X024266Y020424D02*
X024239Y020424D01*
X023524Y020661D02*
X022981Y020661D01*
X023148Y020542D02*
X023357Y020542D01*
X023266Y020424D02*
X023239Y020424D01*
X021752Y019660D02*
X024252Y017160D01*
X022114Y017698D02*
X021054Y017698D01*
X021172Y017580D02*
X021894Y017580D01*
X021782Y017461D02*
X021291Y017461D01*
X020967Y017106D02*
X018146Y017106D01*
X018028Y017224D02*
X020849Y017224D01*
X020730Y017343D02*
X017909Y017343D01*
X017791Y017461D02*
X020612Y017461D01*
X020493Y017580D02*
X017672Y017580D01*
X017554Y017698D02*
X020375Y017698D01*
X020256Y017817D02*
X017492Y017817D01*
X017492Y017935D02*
X020138Y017935D01*
X020019Y018054D02*
X017492Y018054D01*
X017492Y018172D02*
X019901Y018172D01*
X019782Y018291D02*
X017492Y018291D01*
X017492Y018409D02*
X019664Y018409D01*
X019545Y018528D02*
X017492Y018528D01*
X017492Y018646D02*
X019427Y018646D01*
X019308Y018765D02*
X017492Y018765D01*
X017492Y018883D02*
X019190Y018883D01*
X019071Y019002D02*
X017492Y019002D01*
X017492Y019120D02*
X018953Y019120D01*
X018834Y019239D02*
X017492Y019239D01*
X017492Y019357D02*
X018716Y019357D01*
X018597Y019476D02*
X017492Y019476D01*
X017492Y019594D02*
X018479Y019594D01*
X017922Y019713D02*
X017583Y019713D01*
X017701Y019831D02*
X017804Y019831D01*
X017252Y020160D02*
X017252Y017660D01*
X019252Y015660D01*
X019212Y014617D02*
X019292Y014617D01*
X019292Y014499D02*
X019212Y014499D01*
X019212Y014380D02*
X019292Y014380D01*
X019292Y014262D02*
X019212Y014262D01*
X019211Y012190D02*
X019128Y012177D01*
X019049Y012151D01*
X018975Y012113D01*
X018907Y012064D01*
X018848Y012005D01*
X018799Y011938D01*
X018761Y011863D01*
X018735Y011784D01*
X018722Y011702D01*
X018722Y011700D01*
X019212Y011700D01*
X019212Y012190D01*
X019211Y012190D01*
X019212Y012129D02*
X019292Y012129D01*
X019292Y012010D02*
X019212Y012010D01*
X019212Y011892D02*
X019292Y011892D01*
X019292Y011773D02*
X019212Y011773D01*
X019004Y012129D02*
X012500Y012129D01*
X012652Y012010D02*
X018853Y012010D01*
X018775Y011892D02*
X012729Y011892D01*
X012771Y011773D02*
X018734Y011773D01*
X018735Y011536D02*
X018761Y011457D01*
X018799Y011382D01*
X018864Y011299D02*
X012641Y011299D01*
X012479Y011181D02*
X019026Y011181D01*
X017447Y008929D02*
X006472Y008929D01*
X006472Y008811D02*
X017447Y008811D01*
X017447Y008692D02*
X010905Y008692D01*
X010862Y008710D02*
X010643Y008710D01*
X010441Y008626D01*
X010286Y008472D01*
X010202Y008269D01*
X010202Y008051D01*
X010286Y007848D01*
X010441Y007694D01*
X010522Y007660D01*
X010441Y007626D01*
X010286Y007472D01*
X010202Y007269D01*
X010202Y007051D01*
X010286Y006848D01*
X010441Y006694D01*
X010643Y006610D01*
X010862Y006610D01*
X011064Y006694D01*
X011219Y006848D01*
X011302Y007051D01*
X011302Y007269D01*
X011219Y007472D01*
X011064Y007626D01*
X010982Y007660D01*
X011064Y007694D01*
X011219Y007848D01*
X011302Y008051D01*
X011302Y008269D01*
X011219Y008472D01*
X011064Y008626D01*
X010862Y008710D01*
X010600Y008692D02*
X006472Y008692D01*
X006472Y008574D02*
X010388Y008574D01*
X010279Y008455D02*
X006472Y008455D01*
X006472Y008337D02*
X010230Y008337D01*
X010202Y008218D02*
X006472Y008218D01*
X006472Y008100D02*
X010202Y008100D01*
X010231Y007981D02*
X006472Y007981D01*
X006472Y007863D02*
X010280Y007863D01*
X010391Y007744D02*
X006472Y007744D01*
X006472Y007626D02*
X010440Y007626D01*
X010322Y007507D02*
X006472Y007507D01*
X006472Y007389D02*
X010252Y007389D01*
X010203Y007270D02*
X006472Y007270D01*
X006472Y007152D02*
X010202Y007152D01*
X010210Y007033D02*
X006472Y007033D01*
X006472Y006915D02*
X010259Y006915D01*
X010339Y006796D02*
X006472Y006796D01*
X006472Y006678D02*
X010480Y006678D01*
X011025Y006678D02*
X017447Y006678D01*
X017447Y006796D02*
X011166Y006796D01*
X011246Y006915D02*
X017447Y006915D01*
X017447Y007033D02*
X011295Y007033D01*
X011302Y007152D02*
X017447Y007152D01*
X017447Y007270D02*
X011302Y007270D01*
X011253Y007389D02*
X017447Y007389D01*
X017447Y007507D02*
X011183Y007507D01*
X011065Y007626D02*
X017447Y007626D01*
X017447Y007744D02*
X011114Y007744D01*
X011224Y007863D02*
X017447Y007863D01*
X017447Y007981D02*
X011274Y007981D01*
X011302Y008100D02*
X017447Y008100D01*
X017447Y008218D02*
X011302Y008218D01*
X011275Y008337D02*
X017447Y008337D01*
X017447Y008455D02*
X011225Y008455D01*
X011117Y008574D02*
X017447Y008574D01*
X017447Y006559D02*
X006472Y006559D01*
X006472Y006441D02*
X017447Y006441D01*
X017447Y006322D02*
X006472Y006322D01*
X006472Y006204D02*
X008127Y006204D01*
X008143Y006210D02*
X007941Y006126D01*
X007786Y005972D01*
X007702Y005769D01*
X007702Y005551D01*
X007786Y005348D01*
X007941Y005194D01*
X008143Y005110D01*
X008362Y005110D01*
X008564Y005194D01*
X008719Y005348D01*
X008762Y005454D01*
X008799Y005382D01*
X008848Y005315D01*
X008907Y005256D01*
X008975Y005207D01*
X009049Y005169D01*
X009128Y005143D01*
X009211Y005130D01*
X009232Y005130D01*
X009232Y005640D01*
X009272Y005640D01*
X009272Y005130D01*
X009294Y005130D01*
X009376Y005143D01*
X009456Y005169D01*
X009530Y005207D01*
X009598Y005256D01*
X009657Y005315D01*
X009706Y005382D01*
X009744Y005457D01*
X009769Y005536D01*
X009782Y005618D01*
X009782Y005640D01*
X009272Y005640D01*
X009272Y005680D01*
X009232Y005680D01*
X009232Y006190D01*
X009211Y006190D01*
X009128Y006177D01*
X009049Y006151D01*
X008975Y006113D01*
X008907Y006064D01*
X008848Y006005D01*
X008799Y005938D01*
X008762Y005866D01*
X008719Y005972D01*
X008564Y006126D01*
X008362Y006210D01*
X008143Y006210D01*
X008377Y006204D02*
X017447Y006204D01*
X017447Y006085D02*
X009569Y006085D01*
X009598Y006064D02*
X009530Y006113D01*
X009456Y006151D01*
X009376Y006177D01*
X009294Y006190D01*
X009272Y006190D01*
X009272Y005680D01*
X009782Y005680D01*
X009782Y005702D01*
X009769Y005784D01*
X009744Y005863D01*
X009706Y005938D01*
X009657Y006005D01*
X009598Y006064D01*
X009685Y005967D02*
X017447Y005967D01*
X017447Y005848D02*
X009749Y005848D01*
X009778Y005730D02*
X017447Y005730D01*
X017447Y005611D02*
X009781Y005611D01*
X009755Y005493D02*
X017447Y005493D01*
X017447Y005374D02*
X009700Y005374D01*
X009597Y005256D02*
X017447Y005256D01*
X017447Y005137D02*
X009338Y005137D01*
X009272Y005137D02*
X009232Y005137D01*
X009166Y005137D02*
X008427Y005137D01*
X008626Y005256D02*
X008907Y005256D01*
X008805Y005374D02*
X008729Y005374D01*
X009232Y005374D02*
X009272Y005374D01*
X009272Y005256D02*
X009232Y005256D01*
X009232Y005493D02*
X009272Y005493D01*
X009272Y005611D02*
X009232Y005611D01*
X009232Y005730D02*
X009272Y005730D01*
X009272Y005848D02*
X009232Y005848D01*
X009232Y005967D02*
X009272Y005967D01*
X009272Y006085D02*
X009232Y006085D01*
X008936Y006085D02*
X008605Y006085D01*
X008721Y005967D02*
X008820Y005967D01*
X007900Y006085D02*
X006472Y006085D01*
X006472Y005967D02*
X007784Y005967D01*
X007735Y005848D02*
X006472Y005848D01*
X006472Y005730D02*
X007702Y005730D01*
X007702Y005611D02*
X006472Y005611D01*
X006472Y005493D02*
X007726Y005493D01*
X007776Y005374D02*
X006472Y005374D01*
X006472Y005256D02*
X007879Y005256D01*
X008078Y005137D02*
X006472Y005137D01*
X006472Y005019D02*
X017447Y005019D01*
X017447Y004900D02*
X006472Y004900D01*
X006472Y004782D02*
X017447Y004782D01*
X017447Y004663D02*
X010975Y004663D01*
X011064Y004626D02*
X010862Y004710D01*
X010643Y004710D01*
X010441Y004626D01*
X010286Y004472D01*
X010202Y004269D01*
X010202Y004051D01*
X010286Y003848D01*
X010441Y003694D01*
X010643Y003610D01*
X010862Y003610D01*
X011064Y003694D01*
X011219Y003848D01*
X011302Y004051D01*
X011302Y004269D01*
X011219Y004472D01*
X011064Y004626D01*
X011146Y004545D02*
X017447Y004545D01*
X017447Y004426D02*
X011237Y004426D01*
X011287Y004308D02*
X017402Y004308D01*
X017372Y004189D02*
X011302Y004189D01*
X011302Y004071D02*
X017378Y004071D01*
X017427Y003952D02*
X011262Y003952D01*
X011204Y003834D02*
X017447Y003834D01*
X017447Y003715D02*
X011085Y003715D01*
X010420Y003715D02*
X006472Y003715D01*
X006472Y003597D02*
X017447Y003597D01*
X017447Y003478D02*
X006472Y003478D01*
X006472Y003360D02*
X017447Y003360D01*
X017447Y003241D02*
X006472Y003241D01*
X006472Y003123D02*
X017447Y003123D01*
X017447Y003004D02*
X006472Y003004D01*
X006472Y002886D02*
X017447Y002886D01*
X017447Y002767D02*
X006472Y002767D01*
X006472Y002649D02*
X017447Y002649D01*
X017447Y002530D02*
X006472Y002530D01*
X006472Y002412D02*
X017447Y002412D01*
X017447Y002293D02*
X006472Y002293D01*
X006472Y002175D02*
X017447Y002175D01*
X017447Y002056D02*
X006472Y002056D01*
X006472Y001938D02*
X017447Y001938D01*
X017447Y001819D02*
X006472Y001819D01*
X006472Y001701D02*
X015620Y001701D01*
X015397Y001582D02*
X006472Y001582D01*
X006472Y001464D02*
X015283Y001464D01*
X015234Y001345D02*
X006472Y001345D01*
X006497Y001227D02*
X015202Y001227D01*
X015202Y001108D02*
X006615Y001108D01*
X006734Y000990D02*
X015228Y000990D01*
X015277Y000871D02*
X006852Y000871D01*
X006971Y000753D02*
X015382Y000753D01*
X015585Y000634D02*
X007089Y000634D01*
X007208Y000516D02*
X028797Y000516D01*
X028915Y000634D02*
X027920Y000634D01*
X027862Y000610D02*
X028064Y000694D01*
X028219Y000848D01*
X028302Y001051D01*
X028302Y001269D01*
X028219Y001472D01*
X028064Y001626D01*
X027862Y001710D01*
X027643Y001710D01*
X027441Y001626D01*
X027286Y001472D01*
X027252Y001390D01*
X027219Y001472D01*
X027064Y001626D01*
X026862Y001710D01*
X026643Y001710D01*
X026441Y001626D01*
X026286Y001472D01*
X026252Y001390D01*
X026219Y001472D01*
X026064Y001626D01*
X025862Y001710D01*
X025643Y001710D01*
X025441Y001626D01*
X025286Y001472D01*
X025252Y001390D01*
X025219Y001472D01*
X025064Y001626D01*
X024862Y001710D01*
X024643Y001710D01*
X024441Y001626D01*
X024286Y001472D01*
X024252Y001390D01*
X024219Y001472D01*
X024064Y001626D01*
X023862Y001710D01*
X023643Y001710D01*
X023441Y001626D01*
X023286Y001472D01*
X023252Y001390D01*
X023219Y001472D01*
X023064Y001626D01*
X022862Y001710D01*
X022643Y001710D01*
X022441Y001626D01*
X022286Y001472D01*
X022202Y001269D01*
X022202Y001051D01*
X022286Y000848D01*
X022441Y000694D01*
X022643Y000610D01*
X022862Y000610D01*
X023064Y000694D01*
X023219Y000848D01*
X023252Y000930D01*
X023286Y000848D01*
X023441Y000694D01*
X023643Y000610D01*
X023862Y000610D01*
X024064Y000694D01*
X024219Y000848D01*
X024252Y000930D01*
X024286Y000848D01*
X024441Y000694D01*
X024643Y000610D01*
X024862Y000610D01*
X025064Y000694D01*
X025219Y000848D01*
X025252Y000930D01*
X025286Y000848D01*
X025441Y000694D01*
X025643Y000610D01*
X025862Y000610D01*
X026064Y000694D01*
X026219Y000848D01*
X026252Y000930D01*
X026286Y000848D01*
X026441Y000694D01*
X026643Y000610D01*
X026862Y000610D01*
X027064Y000694D01*
X027219Y000848D01*
X027252Y000930D01*
X027286Y000848D01*
X027441Y000694D01*
X027643Y000610D01*
X027862Y000610D01*
X027585Y000634D02*
X026920Y000634D01*
X027123Y000753D02*
X027382Y000753D01*
X027277Y000871D02*
X027228Y000871D01*
X027222Y001464D02*
X027283Y001464D01*
X027397Y001582D02*
X027108Y001582D01*
X026885Y001701D02*
X027620Y001701D01*
X027885Y001701D02*
X029532Y001701D01*
X029532Y001819D02*
X018057Y001819D01*
X018057Y001701D02*
X020620Y001701D01*
X020643Y001710D02*
X020441Y001626D01*
X020286Y001472D01*
X020242Y001366D01*
X020206Y001438D01*
X020157Y001505D01*
X020098Y001564D01*
X020030Y001613D01*
X019956Y001651D01*
X019876Y001677D01*
X019794Y001690D01*
X019792Y001690D01*
X019792Y001200D01*
X019712Y001200D01*
X019712Y001120D01*
X019792Y001120D01*
X019792Y000630D01*
X019794Y000630D01*
X019876Y000643D01*
X019956Y000669D01*
X020030Y000707D01*
X020098Y000756D01*
X020157Y000815D01*
X020206Y000882D01*
X020242Y000954D01*
X020286Y000848D01*
X020441Y000694D01*
X020643Y000610D01*
X020862Y000610D01*
X021064Y000694D01*
X021219Y000848D01*
X021302Y001051D01*
X021302Y001269D01*
X021219Y001472D01*
X021064Y001626D01*
X020862Y001710D01*
X020643Y001710D01*
X020885Y001701D02*
X022620Y001701D01*
X022397Y001582D02*
X021108Y001582D01*
X021222Y001464D02*
X022283Y001464D01*
X022234Y001345D02*
X021271Y001345D01*
X021302Y001227D02*
X022202Y001227D01*
X022202Y001108D02*
X021302Y001108D01*
X021277Y000990D02*
X022228Y000990D01*
X022277Y000871D02*
X021228Y000871D01*
X021123Y000753D02*
X022382Y000753D01*
X022585Y000634D02*
X020920Y000634D01*
X020585Y000634D02*
X019819Y000634D01*
X019792Y000634D02*
X019712Y000634D01*
X019685Y000634D02*
X018819Y000634D01*
X018792Y000634D02*
X018712Y000634D01*
X018685Y000634D02*
X017920Y000634D01*
X018123Y000753D02*
X018412Y000753D01*
X018307Y000871D02*
X018228Y000871D01*
X018712Y000871D02*
X018792Y000871D01*
X018792Y000753D02*
X018712Y000753D01*
X018712Y000990D02*
X018792Y000990D01*
X018792Y001108D02*
X018712Y001108D01*
X018712Y001227D02*
X018792Y001227D01*
X018792Y001200D02*
X018792Y001690D01*
X018794Y001690D01*
X018876Y001677D01*
X018956Y001651D01*
X019030Y001613D01*
X019098Y001564D01*
X019157Y001505D01*
X019206Y001438D01*
X019244Y001363D01*
X019252Y001336D01*
X019261Y001363D01*
X019299Y001438D01*
X019348Y001505D01*
X019407Y001564D01*
X019475Y001613D01*
X019549Y001651D01*
X019628Y001677D01*
X019711Y001690D01*
X019712Y001690D01*
X019712Y001200D01*
X018792Y001200D01*
X018792Y001345D02*
X018712Y001345D01*
X018712Y001464D02*
X018792Y001464D01*
X018792Y001582D02*
X018712Y001582D01*
X018432Y001582D02*
X018108Y001582D01*
X018222Y001464D02*
X018318Y001464D01*
X018057Y001938D02*
X029532Y001938D01*
X029532Y002056D02*
X018057Y002056D01*
X018057Y002175D02*
X029532Y002175D01*
X029532Y002293D02*
X018057Y002293D01*
X018057Y002412D02*
X029532Y002412D01*
X029532Y002530D02*
X018057Y002530D01*
X018057Y002649D02*
X029532Y002649D01*
X029532Y002767D02*
X018057Y002767D01*
X018057Y002886D02*
X029532Y002886D01*
X029532Y003004D02*
X018057Y003004D01*
X018057Y003123D02*
X029532Y003123D01*
X029532Y003241D02*
X018057Y003241D01*
X018057Y003360D02*
X029532Y003360D01*
X029532Y003478D02*
X018057Y003478D01*
X018057Y003597D02*
X029532Y003597D01*
X029532Y003715D02*
X018057Y003715D01*
X018057Y003834D02*
X029532Y003834D01*
X029532Y003952D02*
X018078Y003952D01*
X018127Y004071D02*
X029532Y004071D01*
X029532Y004189D02*
X018132Y004189D01*
X018103Y004308D02*
X029532Y004308D01*
X029532Y004426D02*
X018057Y004426D01*
X018057Y004545D02*
X029532Y004545D01*
X029532Y004663D02*
X018057Y004663D01*
X018057Y004782D02*
X029532Y004782D01*
X029532Y004900D02*
X028635Y004900D01*
X028822Y005019D02*
X029532Y005019D01*
X029532Y005137D02*
X029023Y005137D01*
X029187Y005256D02*
X029532Y005256D01*
X029532Y005374D02*
X029306Y005374D01*
X029424Y005493D02*
X029532Y005493D01*
X029532Y005611D02*
X029492Y005611D01*
X029492Y005730D02*
X029532Y005730D01*
X029532Y005848D02*
X029492Y005848D01*
X029492Y005967D02*
X029532Y005967D01*
X029532Y006085D02*
X029492Y006085D01*
X029492Y006204D02*
X029532Y006204D01*
X029532Y006322D02*
X029492Y006322D01*
X029492Y006441D02*
X029532Y006441D01*
X029532Y006559D02*
X029492Y006559D01*
X029492Y006678D02*
X029532Y006678D01*
X029532Y006796D02*
X029492Y006796D01*
X029492Y006915D02*
X029532Y006915D01*
X029532Y007033D02*
X029492Y007033D01*
X029492Y007152D02*
X029532Y007152D01*
X029532Y007270D02*
X029492Y007270D01*
X029492Y007389D02*
X029532Y007389D01*
X029532Y007507D02*
X029492Y007507D01*
X029492Y007626D02*
X029532Y007626D01*
X029532Y007744D02*
X029477Y007744D01*
X029532Y007863D02*
X029389Y007863D01*
X029271Y007981D02*
X029532Y007981D01*
X029532Y008100D02*
X029152Y008100D01*
X029034Y008218D02*
X029532Y008218D01*
X029532Y008337D02*
X028915Y008337D01*
X028725Y008455D02*
X029532Y008455D01*
X029532Y008574D02*
X028617Y008574D01*
X028405Y008692D02*
X029532Y008692D01*
X029532Y008811D02*
X027492Y008811D01*
X027492Y008929D02*
X029532Y008929D01*
X029532Y009048D02*
X027492Y009048D01*
X027492Y009166D02*
X029532Y009166D01*
X029532Y009285D02*
X027492Y009285D01*
X027492Y009403D02*
X029532Y009403D01*
X029532Y009522D02*
X027492Y009522D01*
X027492Y009640D02*
X029532Y009640D01*
X029532Y009759D02*
X027492Y009759D01*
X027492Y009877D02*
X029532Y009877D01*
X029532Y009996D02*
X027492Y009996D01*
X027492Y010114D02*
X029532Y010114D01*
X029532Y010233D02*
X027492Y010233D01*
X027492Y010351D02*
X029532Y010351D01*
X029532Y010470D02*
X027492Y010470D01*
X027492Y010588D02*
X029532Y010588D01*
X029532Y010707D02*
X028577Y010707D01*
X028564Y010694D02*
X028719Y010848D01*
X028802Y011051D01*
X028802Y011269D01*
X028719Y011472D01*
X028564Y011626D01*
X028362Y011710D01*
X028143Y011710D01*
X027941Y011626D01*
X027786Y011472D01*
X027702Y011269D01*
X027702Y011051D01*
X027786Y010848D01*
X027941Y010694D01*
X028143Y010610D01*
X028362Y010610D01*
X028564Y010694D01*
X028695Y010825D02*
X029532Y010825D01*
X029532Y010944D02*
X028758Y010944D01*
X028802Y011062D02*
X029532Y011062D01*
X029532Y011181D02*
X028802Y011181D01*
X028790Y011299D02*
X029532Y011299D01*
X029532Y011418D02*
X028741Y011418D01*
X028654Y011536D02*
X029532Y011536D01*
X029532Y011655D02*
X028496Y011655D01*
X028236Y011892D02*
X029532Y011892D01*
X029532Y012010D02*
X028286Y012010D01*
X028302Y012129D02*
X028348Y012129D01*
X028656Y012129D02*
X029532Y012129D01*
X029532Y012247D02*
X028867Y012247D01*
X028976Y012366D02*
X029532Y012366D01*
X029532Y012484D02*
X029025Y012484D01*
X029052Y012603D02*
X029532Y012603D01*
X029532Y012721D02*
X029052Y012721D01*
X029023Y012840D02*
X029532Y012840D01*
X029532Y012958D02*
X028974Y012958D01*
X028864Y013077D02*
X029532Y013077D01*
X029532Y013195D02*
X028742Y013195D01*
X028742Y013314D02*
X029532Y013314D01*
X029532Y013432D02*
X028742Y013432D01*
X028742Y013551D02*
X029532Y013551D01*
X029532Y013669D02*
X028742Y013669D01*
X028742Y013788D02*
X029532Y013788D01*
X029532Y013906D02*
X028742Y013906D01*
X028792Y014025D02*
X029532Y014025D01*
X029532Y014143D02*
X028802Y014143D01*
X028802Y014262D02*
X029532Y014262D01*
X029532Y014380D02*
X028757Y014380D01*
X028692Y014499D02*
X029532Y014499D01*
X029532Y014617D02*
X028573Y014617D01*
X028252Y014160D02*
X028502Y013910D01*
X028502Y012660D01*
X028262Y013314D02*
X028260Y013314D01*
X028262Y013432D02*
X028209Y013432D01*
X028262Y013551D02*
X028111Y013551D01*
X028000Y013669D02*
X027901Y013669D01*
X027772Y013669D02*
X027732Y013669D01*
X027732Y013551D02*
X027772Y013551D01*
X027772Y013432D02*
X027732Y013432D01*
X027732Y013314D02*
X027772Y013314D01*
X027772Y013195D02*
X027732Y013195D01*
X027245Y013314D02*
X026742Y013314D01*
X026742Y013432D02*
X027296Y013432D01*
X027393Y013551D02*
X026742Y013551D01*
X026742Y013669D02*
X027604Y013669D01*
X027847Y013788D02*
X026742Y013788D01*
X026742Y013906D02*
X027762Y013906D01*
X027713Y014025D02*
X026792Y014025D01*
X026802Y014143D02*
X027702Y014143D01*
X027702Y014262D02*
X026802Y014262D01*
X026757Y014380D02*
X027748Y014380D01*
X027813Y014499D02*
X026692Y014499D01*
X026573Y014617D02*
X027932Y014617D01*
X026502Y013910D02*
X026252Y014160D01*
X026502Y013910D02*
X026502Y012660D01*
X026867Y012247D02*
X027202Y012247D01*
X027202Y012129D02*
X026656Y012129D01*
X026348Y012129D02*
X026302Y012129D01*
X026286Y012010D02*
X027219Y012010D01*
X027144Y011892D02*
X026236Y011892D01*
X026143Y011773D02*
X027039Y011773D01*
X027012Y011655D02*
X026496Y011655D01*
X026654Y011536D02*
X027012Y011536D01*
X027012Y011418D02*
X026741Y011418D01*
X026790Y011299D02*
X027012Y011299D01*
X027012Y011181D02*
X026802Y011181D01*
X026802Y011062D02*
X027012Y011062D01*
X027012Y010944D02*
X026758Y010944D01*
X026695Y010825D02*
X027012Y010825D01*
X027012Y010707D02*
X026577Y010707D01*
X027492Y010707D02*
X027928Y010707D01*
X027810Y010825D02*
X027492Y010825D01*
X027492Y010944D02*
X027747Y010944D01*
X027702Y011062D02*
X027492Y011062D01*
X027492Y011181D02*
X027702Y011181D01*
X027715Y011299D02*
X027492Y011299D01*
X027492Y011418D02*
X027764Y011418D01*
X027851Y011536D02*
X027492Y011536D01*
X027252Y011660D02*
X027252Y008160D01*
X027752Y007660D01*
X027752Y006877D01*
X028469Y006160D01*
X028008Y005967D02*
X027492Y005967D01*
X027492Y006085D02*
X027969Y006085D01*
X027969Y006204D02*
X027492Y006204D01*
X027492Y006322D02*
X027967Y006322D01*
X027849Y006441D02*
X027492Y006441D01*
X027492Y006559D02*
X027730Y006559D01*
X027612Y006678D02*
X027492Y006678D01*
X027492Y006796D02*
X027526Y006796D01*
X027512Y006915D02*
X027492Y006915D01*
X027492Y007033D02*
X027512Y007033D01*
X027512Y007152D02*
X027492Y007152D01*
X027492Y007270D02*
X027512Y007270D01*
X027512Y007389D02*
X027492Y007389D01*
X027492Y007507D02*
X027512Y007507D01*
X027252Y007660D02*
X027252Y005660D01*
X026965Y005373D01*
X026469Y005373D01*
X026822Y005019D02*
X028116Y005019D01*
X028025Y005137D02*
X027023Y005137D01*
X027187Y005256D02*
X027976Y005256D01*
X027969Y005374D02*
X027306Y005374D01*
X027424Y005493D02*
X027977Y005493D01*
X028026Y005611D02*
X027492Y005611D01*
X027492Y005730D02*
X028119Y005730D01*
X028074Y005848D02*
X027492Y005848D01*
X028469Y005373D02*
X028965Y005373D01*
X029252Y005660D01*
X029252Y007660D01*
X028752Y008160D01*
X028252Y008160D01*
X027888Y008574D02*
X027492Y008574D01*
X027492Y008692D02*
X028100Y008692D01*
X027779Y008455D02*
X027492Y008455D01*
X027492Y008337D02*
X027730Y008337D01*
X027702Y008218D02*
X027534Y008218D01*
X027652Y008100D02*
X027702Y008100D01*
X027252Y007660D02*
X026752Y008160D01*
X026252Y008160D01*
X026617Y008574D02*
X027012Y008574D01*
X027012Y008692D02*
X026405Y008692D01*
X026725Y008455D02*
X027012Y008455D01*
X027012Y008337D02*
X026915Y008337D01*
X023928Y010707D02*
X023492Y010707D01*
X023492Y010825D02*
X023810Y010825D01*
X023747Y010944D02*
X023492Y010944D01*
X023492Y011062D02*
X023702Y011062D01*
X023702Y011181D02*
X023492Y011181D01*
X023492Y011299D02*
X023715Y011299D01*
X023764Y011418D02*
X023492Y011418D01*
X023492Y011536D02*
X023851Y011536D01*
X023969Y011655D02*
X024009Y011655D01*
X024143Y011773D02*
X025039Y011773D01*
X025252Y011660D02*
X025752Y012160D01*
X025969Y011655D02*
X026009Y011655D01*
X026976Y012366D02*
X027242Y012366D01*
X027299Y012484D02*
X027025Y012484D01*
X027052Y012603D02*
X027417Y012603D01*
X027455Y012721D02*
X027052Y012721D01*
X027023Y012840D02*
X027330Y012840D01*
X027261Y012958D02*
X026974Y012958D01*
X026864Y013077D02*
X027229Y013077D01*
X027222Y013195D02*
X026742Y013195D01*
X025772Y013195D02*
X025732Y013195D01*
X027252Y011660D02*
X027752Y012160D01*
X028143Y011773D02*
X029532Y011773D01*
X028009Y011655D02*
X027969Y011655D01*
X023772Y013195D02*
X023732Y013195D01*
X021086Y016987D02*
X018265Y016987D01*
X016922Y019713D02*
X016583Y019713D01*
X016701Y019831D02*
X016804Y019831D01*
X016766Y020424D02*
X016739Y020424D01*
X016648Y020542D02*
X016857Y020542D01*
X017024Y020661D02*
X016481Y020661D01*
X016024Y020661D02*
X015481Y020661D01*
X015648Y020542D02*
X015857Y020542D01*
X015766Y020424D02*
X015739Y020424D01*
X015024Y020661D02*
X014481Y020661D01*
X014648Y020542D02*
X014857Y020542D01*
X014766Y020424D02*
X014739Y020424D01*
X014701Y019831D02*
X014804Y019831D01*
X014922Y019713D02*
X014583Y019713D01*
X013922Y019713D02*
X013538Y019713D01*
X013668Y019831D02*
X013804Y019831D01*
X013744Y019950D02*
X013740Y019950D01*
X013292Y019950D02*
X013212Y019950D01*
X013212Y020068D02*
X013292Y020068D01*
X013292Y019831D02*
X013212Y019831D01*
X013212Y019713D02*
X013292Y019713D01*
X012967Y019713D02*
X012583Y019713D01*
X012701Y019831D02*
X012836Y019831D01*
X012765Y019950D02*
X012761Y019950D01*
X012739Y020424D02*
X012792Y020424D01*
X012885Y020542D02*
X012648Y020542D01*
X012481Y020661D02*
X013078Y020661D01*
X013212Y020661D02*
X013292Y020661D01*
X013292Y020542D02*
X013212Y020542D01*
X013212Y020424D02*
X013292Y020424D01*
X013292Y020305D02*
X013212Y020305D01*
X013620Y020542D02*
X013857Y020542D01*
X013766Y020424D02*
X013713Y020424D01*
X013427Y020661D02*
X014024Y020661D01*
X015583Y019713D02*
X015922Y019713D01*
X015804Y019831D02*
X015701Y019831D01*
X017481Y020661D02*
X018024Y020661D01*
X017857Y020542D02*
X017648Y020542D01*
X017739Y020424D02*
X017766Y020424D01*
X021201Y019831D02*
X021304Y019831D01*
X028704Y020898D02*
X007301Y020898D01*
X007183Y020779D02*
X028822Y020779D01*
X012292Y012129D02*
X012212Y012129D01*
X012212Y012010D02*
X012292Y012010D01*
X012292Y011892D02*
X012212Y011892D01*
X012004Y012129D02*
X006472Y012129D01*
X006472Y012010D02*
X011853Y012010D01*
X011775Y011892D02*
X006472Y011892D01*
X006472Y010114D02*
X007929Y010114D01*
X007810Y009996D02*
X006472Y009996D01*
X006472Y009877D02*
X007747Y009877D01*
X007702Y009759D02*
X006472Y009759D01*
X006472Y009640D02*
X007702Y009640D01*
X007714Y009522D02*
X006472Y009522D01*
X006472Y009403D02*
X007763Y009403D01*
X007850Y009285D02*
X006472Y009285D01*
X011064Y011626D02*
X011219Y011472D01*
X010530Y004663D02*
X006472Y004663D01*
X006472Y004545D02*
X010359Y004545D01*
X010267Y004426D02*
X006472Y004426D01*
X006472Y004308D02*
X010218Y004308D01*
X010202Y004189D02*
X006472Y004189D01*
X006472Y004071D02*
X010202Y004071D01*
X010243Y003952D02*
X006472Y003952D01*
X006472Y003834D02*
X010301Y003834D01*
X007326Y000397D02*
X028678Y000397D01*
X029034Y000753D02*
X028123Y000753D01*
X028228Y000871D02*
X029152Y000871D01*
X029271Y000990D02*
X028277Y000990D01*
X028302Y001108D02*
X029389Y001108D01*
X029508Y001227D02*
X028302Y001227D01*
X028271Y001345D02*
X029532Y001345D01*
X029532Y001464D02*
X028222Y001464D01*
X028108Y001582D02*
X029532Y001582D01*
X026620Y001701D02*
X025885Y001701D01*
X026108Y001582D02*
X026397Y001582D01*
X026283Y001464D02*
X026222Y001464D01*
X026228Y000871D02*
X026277Y000871D01*
X026382Y000753D02*
X026123Y000753D01*
X025920Y000634D02*
X026585Y000634D01*
X025585Y000634D02*
X024920Y000634D01*
X025123Y000753D02*
X025382Y000753D01*
X025277Y000871D02*
X025228Y000871D01*
X025222Y001464D02*
X025283Y001464D01*
X025397Y001582D02*
X025108Y001582D01*
X024885Y001701D02*
X025620Y001701D01*
X024620Y001701D02*
X023885Y001701D01*
X024108Y001582D02*
X024397Y001582D01*
X024283Y001464D02*
X024222Y001464D01*
X024228Y000871D02*
X024277Y000871D01*
X024382Y000753D02*
X024123Y000753D01*
X023920Y000634D02*
X024585Y000634D01*
X023585Y000634D02*
X022920Y000634D01*
X023123Y000753D02*
X023382Y000753D01*
X023277Y000871D02*
X023228Y000871D01*
X023222Y001464D02*
X023283Y001464D01*
X023397Y001582D02*
X023108Y001582D01*
X022885Y001701D02*
X023620Y001701D01*
X020397Y001582D02*
X020073Y001582D01*
X020187Y001464D02*
X020283Y001464D01*
X019792Y001464D02*
X019712Y001464D01*
X019712Y001582D02*
X019792Y001582D01*
X019792Y001345D02*
X019712Y001345D01*
X019712Y001227D02*
X019792Y001227D01*
X019792Y001108D02*
X019712Y001108D01*
X019712Y000990D02*
X019792Y000990D01*
X019792Y000871D02*
X019712Y000871D01*
X019712Y000753D02*
X019792Y000753D01*
X020093Y000753D02*
X020382Y000753D01*
X020277Y000871D02*
X020198Y000871D01*
X019412Y000753D02*
X019093Y000753D01*
X019198Y000871D02*
X019307Y000871D01*
X019255Y001345D02*
X019250Y001345D01*
X019187Y001464D02*
X019318Y001464D01*
X019432Y001582D02*
X019073Y001582D01*
X017447Y001701D02*
X016885Y001701D01*
X017108Y001582D02*
X017397Y001582D01*
X017283Y001464D02*
X017222Y001464D01*
X017228Y000871D02*
X017277Y000871D01*
X017382Y000753D02*
X017123Y000753D01*
X016920Y000634D02*
X017585Y000634D01*
X016585Y000634D02*
X015920Y000634D01*
X016123Y000753D02*
X016382Y000753D01*
X016277Y000871D02*
X016228Y000871D01*
X016222Y001464D02*
X016283Y001464D01*
X016397Y001582D02*
X016108Y001582D01*
X015885Y001701D02*
X016620Y001701D01*
X024469Y005373D02*
X024965Y005373D01*
X025252Y005660D01*
X025424Y005493D02*
X025977Y005493D01*
X025969Y005374D02*
X025306Y005374D01*
X025187Y005256D02*
X025976Y005256D01*
X026025Y005137D02*
X025023Y005137D01*
X024822Y005019D02*
X026116Y005019D01*
X026303Y004900D02*
X024635Y004900D01*
X025492Y005611D02*
X026026Y005611D01*
X026119Y005730D02*
X025492Y005730D01*
X025492Y005848D02*
X026074Y005848D01*
X026635Y004900D02*
X028303Y004900D01*
X011702Y020187D02*
X006590Y020187D01*
X006709Y020305D02*
X011717Y020305D01*
X011766Y020424D02*
X006827Y020424D01*
X006946Y020542D02*
X011857Y020542D01*
X012024Y020661D02*
X007064Y020661D01*
D14*
X012252Y010660D02*
X016752Y010660D01*
X017752Y009660D01*
X017752Y004160D01*
X017752Y001160D01*
D15*
X017752Y004160D03*
D16*
X012252Y010660D02*
X011752Y011160D01*
X010752Y011160D01*
M02*
