G75*
G70*
%OFA0B0*%
%FSLAX24Y24*%
%IPPOS*%
%LPD*%
%AMOC8*
5,1,8,0,0,1.08239X$1,22.5*
%
%ADD10C,0.0820*%
%ADD11C,0.0720*%
%ADD12C,0.0650*%
D10*
X008252Y005660D03*
X009252Y005660D03*
X010752Y004160D03*
X010752Y007160D03*
X010752Y008160D03*
X009252Y009660D03*
X008252Y009660D03*
X010752Y011160D03*
X012252Y010660D03*
X012252Y011660D03*
X012252Y009660D03*
X012252Y014660D03*
X012252Y015660D03*
X012252Y020160D03*
X013252Y020160D03*
X014252Y020160D03*
X015252Y020160D03*
X016252Y020160D03*
X017252Y020160D03*
X018252Y020160D03*
X019252Y020160D03*
X020752Y020160D03*
X021752Y020160D03*
X022752Y020160D03*
X023752Y020160D03*
X024752Y020160D03*
X025752Y020160D03*
X026752Y020160D03*
X027752Y020160D03*
X028252Y017160D03*
X026252Y017160D03*
X024252Y017160D03*
X022252Y017160D03*
X019252Y015660D03*
X019252Y014660D03*
X021752Y013160D03*
X022502Y012660D03*
X021752Y012160D03*
X022252Y011160D03*
X023752Y012160D03*
X024502Y012660D03*
X023752Y013160D03*
X024252Y014160D03*
X025752Y013160D03*
X026502Y012660D03*
X025752Y012160D03*
X026252Y011160D03*
X027752Y012160D03*
X028502Y012660D03*
X027752Y013160D03*
X028252Y014160D03*
X026252Y014160D03*
X022252Y014160D03*
X019252Y011660D03*
X019252Y010660D03*
X019252Y009660D03*
X022252Y008160D03*
X024252Y008160D03*
X026252Y008160D03*
X028252Y008160D03*
X028252Y011160D03*
X024252Y011160D03*
X023752Y001160D03*
X022752Y001160D03*
X024752Y001160D03*
X025752Y001160D03*
X026752Y001160D03*
X027752Y001160D03*
X020752Y001160D03*
X019752Y001160D03*
X018752Y001160D03*
X017752Y001160D03*
X016752Y001160D03*
X015752Y001160D03*
D11*
X022469Y005373D03*
X022469Y006160D03*
X022469Y006947D03*
X024469Y006947D03*
X024469Y006160D03*
X024469Y005373D03*
X026469Y005373D03*
X026469Y006160D03*
X026469Y006947D03*
X028469Y006947D03*
X028469Y006160D03*
X028469Y005373D03*
D12*
X009752Y014766D03*
X009752Y015554D03*
M02*
