G75*
G70*
%OFA0B0*%
%FSLAX24Y24*%
%IPPOS*%
%LPD*%
%AMOC8*
5,1,8,0,0,1.08239X$1,22.5*
%
%ADD10C,0.0080*%
%ADD11C,0.0130*%
%ADD12C,0.0740*%
%ADD13C,0.0640*%
%ADD14C,0.0570*%
%ADD15C,0.0120*%
%ADD16C,0.0400*%
%ADD17C,0.0200*%
D10*
X006252Y001160D02*
X007252Y000160D01*
X028752Y000160D01*
X029752Y001160D01*
X029752Y020160D01*
X028752Y021160D01*
X007252Y021160D01*
X006252Y020160D01*
X006252Y001160D01*
D11*
X007879Y019975D02*
X007817Y020037D01*
X007879Y019975D02*
X008003Y019975D01*
X008064Y020037D01*
X008064Y020160D01*
X008003Y020222D01*
X007941Y020222D01*
X007817Y020160D01*
X007817Y020345D01*
X008064Y020345D01*
X008278Y020160D02*
X008525Y020160D01*
X008738Y020160D02*
X008738Y020037D01*
X008800Y019975D01*
X008923Y019975D01*
X008985Y020037D01*
X008985Y020098D01*
X008923Y020160D01*
X008738Y020160D01*
X008862Y020284D01*
X008985Y020345D01*
X009199Y020160D02*
X009445Y020160D01*
X009659Y020222D02*
X009782Y020345D01*
X009782Y019975D01*
X009659Y019975D02*
X009906Y019975D01*
X010119Y020037D02*
X010181Y019975D01*
X010304Y019975D01*
X010366Y020037D01*
X010366Y020098D01*
X010304Y020160D01*
X010243Y020160D01*
X010304Y020160D02*
X010366Y020222D01*
X010366Y020284D01*
X010304Y020345D01*
X010181Y020345D01*
X010119Y020284D01*
D12*
X012252Y020160D03*
X013252Y020160D03*
X014252Y020160D03*
X015252Y020160D03*
X016252Y020160D03*
X017252Y020160D03*
X018252Y020160D03*
X019252Y020160D03*
X020752Y020160D03*
X021752Y020160D03*
X022752Y020160D03*
X023752Y020160D03*
X024752Y020160D03*
X025752Y020160D03*
X026752Y020160D03*
X027752Y020160D03*
X028252Y017160D03*
X026252Y017160D03*
X024252Y017160D03*
X022252Y017160D03*
X019252Y015660D03*
X019252Y014660D03*
X021752Y013160D03*
X022502Y012660D03*
X021752Y012160D03*
X022252Y011160D03*
X023752Y012160D03*
X024502Y012660D03*
X023752Y013160D03*
X024252Y014160D03*
X025752Y013160D03*
X026502Y012660D03*
X025752Y012160D03*
X026252Y011160D03*
X027752Y012160D03*
X028502Y012660D03*
X027752Y013160D03*
X028252Y014160D03*
X026252Y014160D03*
X022252Y014160D03*
X019252Y011660D03*
X019252Y010660D03*
X019252Y009660D03*
X022252Y008160D03*
X024252Y008160D03*
X026252Y008160D03*
X028252Y008160D03*
X028252Y011160D03*
X024252Y011160D03*
X012252Y010660D03*
X012252Y011660D03*
X010752Y011160D03*
X009252Y009660D03*
X008252Y009660D03*
X010752Y008160D03*
X010752Y007160D03*
X009252Y005660D03*
X008252Y005660D03*
X010752Y004160D03*
X015752Y001160D03*
X016752Y001160D03*
X017752Y001160D03*
X018752Y001160D03*
X019752Y001160D03*
X020752Y001160D03*
X022752Y001160D03*
X023752Y001160D03*
X024752Y001160D03*
X025752Y001160D03*
X026752Y001160D03*
X027752Y001160D03*
X012252Y009660D03*
X012252Y014660D03*
X012252Y015660D03*
D13*
X022469Y006947D03*
X022469Y006160D03*
X022469Y005373D03*
X024469Y005373D03*
X024469Y006160D03*
X024469Y006947D03*
X026469Y006947D03*
X026469Y006160D03*
X026469Y005373D03*
X028469Y005373D03*
X028469Y006160D03*
X028469Y006947D03*
D14*
X009752Y014766D03*
X009752Y015554D03*
D15*
X012146Y015554D01*
X012252Y015660D01*
X011765Y015921D02*
X010043Y015921D01*
X010016Y015948D02*
X009845Y016019D01*
X009660Y016019D01*
X009489Y015948D01*
X009358Y015817D01*
X009287Y015646D01*
X009287Y015461D01*
X009358Y015290D01*
X009488Y015160D01*
X009358Y015030D01*
X009287Y014859D01*
X009287Y014674D01*
X009358Y014503D01*
X009489Y014372D01*
X009660Y014301D01*
X009845Y014301D01*
X010016Y014372D01*
X010147Y014503D01*
X010156Y014526D01*
X011712Y014526D01*
X011786Y014348D01*
X011941Y014194D01*
X012143Y014110D01*
X012362Y014110D01*
X012564Y014194D01*
X012719Y014348D01*
X012802Y014551D01*
X012802Y014769D01*
X012719Y014972D01*
X012564Y015126D01*
X012482Y015160D01*
X012564Y015194D01*
X012719Y015348D01*
X012802Y015551D01*
X012802Y015769D01*
X012719Y015972D01*
X012564Y016126D01*
X012362Y016210D01*
X012143Y016210D01*
X011941Y016126D01*
X011786Y015972D01*
X011712Y015794D01*
X010156Y015794D01*
X010147Y015817D01*
X010016Y015948D01*
X010153Y015802D02*
X011716Y015802D01*
X011854Y016039D02*
X006472Y016039D01*
X006472Y015921D02*
X009462Y015921D01*
X009352Y015802D02*
X006472Y015802D01*
X006472Y015684D02*
X009303Y015684D01*
X009287Y015565D02*
X006472Y015565D01*
X006472Y015447D02*
X009293Y015447D01*
X009343Y015328D02*
X006472Y015328D01*
X006472Y015210D02*
X009439Y015210D01*
X009419Y015091D02*
X006472Y015091D01*
X006472Y014973D02*
X009334Y014973D01*
X009287Y014854D02*
X006472Y014854D01*
X006472Y014736D02*
X009287Y014736D01*
X009311Y014617D02*
X006472Y014617D01*
X006472Y014499D02*
X009363Y014499D01*
X009481Y014380D02*
X006472Y014380D01*
X006472Y014262D02*
X011873Y014262D01*
X011773Y014380D02*
X010024Y014380D01*
X010142Y014499D02*
X011724Y014499D01*
X012063Y014143D02*
X006472Y014143D01*
X006472Y014025D02*
X014012Y014025D01*
X014012Y014143D02*
X012442Y014143D01*
X012632Y014262D02*
X014012Y014262D01*
X014012Y014380D02*
X012732Y014380D01*
X012781Y014499D02*
X014012Y014499D01*
X014012Y014617D02*
X012802Y014617D01*
X012802Y014736D02*
X014012Y014736D01*
X014012Y014854D02*
X012767Y014854D01*
X012718Y014973D02*
X014012Y014973D01*
X014012Y015091D02*
X012599Y015091D01*
X012580Y015210D02*
X014012Y015210D01*
X014012Y015328D02*
X012698Y015328D01*
X012759Y015447D02*
X014012Y015447D01*
X014012Y015565D02*
X012802Y015565D01*
X012802Y015684D02*
X014012Y015684D01*
X014012Y015802D02*
X012789Y015802D01*
X012740Y015921D02*
X014012Y015921D01*
X014012Y016039D02*
X012651Y016039D01*
X012488Y016158D02*
X014012Y016158D01*
X014012Y016276D02*
X006472Y016276D01*
X006472Y016158D02*
X012016Y016158D01*
X012146Y014766D02*
X012252Y014660D01*
X012146Y014766D02*
X009752Y014766D01*
X006472Y013906D02*
X014012Y013906D01*
X014012Y013788D02*
X006472Y013788D01*
X006472Y013669D02*
X014012Y013669D01*
X014012Y013551D02*
X006472Y013551D01*
X006472Y013432D02*
X014012Y013432D01*
X014012Y013314D02*
X006472Y013314D01*
X006472Y013195D02*
X014012Y013195D01*
X014012Y013077D02*
X006472Y013077D01*
X006472Y012958D02*
X014012Y012958D01*
X014012Y012840D02*
X006472Y012840D01*
X006472Y012721D02*
X014012Y012721D01*
X014012Y012603D02*
X006472Y012603D01*
X006472Y012484D02*
X014012Y012484D01*
X014012Y012366D02*
X006472Y012366D01*
X006472Y012247D02*
X014012Y012247D01*
X014012Y012129D02*
X012500Y012129D01*
X012530Y012113D02*
X012456Y012151D01*
X012376Y012177D01*
X012294Y012190D01*
X012292Y012190D01*
X012292Y011700D01*
X012212Y011700D01*
X012212Y011620D01*
X011722Y011620D01*
X011722Y011618D01*
X011735Y011536D01*
X011154Y011536D01*
X011219Y011472D02*
X011064Y011626D01*
X010862Y011710D01*
X010643Y011710D01*
X010441Y011626D01*
X010286Y011472D01*
X010202Y011269D01*
X010202Y011051D01*
X010286Y010848D01*
X010441Y010694D01*
X010643Y010610D01*
X010862Y010610D01*
X011064Y010694D01*
X011219Y010848D01*
X011302Y011051D01*
X011302Y011269D01*
X011219Y011472D01*
X011241Y011418D02*
X011781Y011418D01*
X011799Y011382D02*
X011848Y011315D01*
X011907Y011256D01*
X011975Y011207D01*
X012047Y011170D01*
X011941Y011126D01*
X011786Y010972D01*
X011702Y010769D01*
X011702Y010551D01*
X011786Y010348D01*
X011941Y010194D01*
X012022Y010160D01*
X011941Y010126D01*
X011786Y009972D01*
X011702Y009769D01*
X011702Y009551D01*
X011786Y009348D01*
X011941Y009194D01*
X012012Y009164D01*
X012012Y003112D01*
X012049Y003024D01*
X012116Y002957D01*
X012616Y002457D01*
X012705Y002420D01*
X023153Y002420D01*
X023512Y002061D01*
X023512Y001656D01*
X023441Y001626D01*
X023286Y001472D01*
X023252Y001390D01*
X023219Y001472D01*
X023064Y001626D01*
X022992Y001656D01*
X022992Y001708D01*
X022956Y001796D01*
X022456Y002296D01*
X022388Y002363D01*
X022300Y002400D01*
X011352Y002400D01*
X010992Y002759D01*
X010992Y003664D01*
X011064Y003694D01*
X011219Y003848D01*
X011302Y004051D01*
X011302Y004269D01*
X011219Y004472D01*
X011064Y004626D01*
X010862Y004710D01*
X010643Y004710D01*
X010441Y004626D01*
X010286Y004472D01*
X010202Y004269D01*
X010202Y004051D01*
X010286Y003848D01*
X010441Y003694D01*
X010512Y003664D01*
X010512Y002612D01*
X010549Y002524D01*
X010616Y002457D01*
X011116Y001957D01*
X011205Y001920D01*
X022153Y001920D01*
X022445Y001628D01*
X022441Y001626D01*
X022286Y001472D01*
X022202Y001269D01*
X022202Y001051D01*
X022286Y000848D01*
X022441Y000694D01*
X022643Y000610D01*
X022862Y000610D01*
X023064Y000694D01*
X023219Y000848D01*
X023252Y000930D01*
X023286Y000848D01*
X023441Y000694D01*
X023643Y000610D01*
X023862Y000610D01*
X024064Y000694D01*
X024219Y000848D01*
X024252Y000930D01*
X024286Y000848D01*
X024441Y000694D01*
X024643Y000610D01*
X024862Y000610D01*
X025064Y000694D01*
X025219Y000848D01*
X025252Y000930D01*
X025286Y000848D01*
X025441Y000694D01*
X025643Y000610D01*
X025862Y000610D01*
X026064Y000694D01*
X026219Y000848D01*
X026252Y000930D01*
X026286Y000848D01*
X026441Y000694D01*
X026643Y000610D01*
X026862Y000610D01*
X027064Y000694D01*
X027219Y000848D01*
X027252Y000930D01*
X027286Y000848D01*
X027441Y000694D01*
X027643Y000610D01*
X027862Y000610D01*
X028064Y000694D01*
X028219Y000848D01*
X028302Y001051D01*
X028302Y001269D01*
X028219Y001472D01*
X028064Y001626D01*
X027862Y001710D01*
X027643Y001710D01*
X027441Y001626D01*
X027286Y001472D01*
X027252Y001390D01*
X027219Y001472D01*
X027064Y001626D01*
X026862Y001710D01*
X026643Y001710D01*
X026441Y001626D01*
X026286Y001472D01*
X026252Y001390D01*
X026219Y001472D01*
X026064Y001626D01*
X025862Y001710D01*
X025643Y001710D01*
X025441Y001626D01*
X025286Y001472D01*
X025252Y001390D01*
X025219Y001472D01*
X025064Y001626D01*
X024862Y001710D01*
X024643Y001710D01*
X024441Y001626D01*
X024286Y001472D01*
X024252Y001390D01*
X024219Y001472D01*
X024064Y001626D01*
X023992Y001656D01*
X023992Y002208D01*
X023956Y002296D01*
X023388Y002863D01*
X023300Y002900D01*
X012852Y002900D01*
X012492Y003259D01*
X012492Y009164D01*
X012564Y009194D01*
X012719Y009348D01*
X012802Y009551D01*
X012802Y009769D01*
X012719Y009972D01*
X012564Y010126D01*
X012482Y010160D01*
X012564Y010194D01*
X012719Y010348D01*
X012802Y010551D01*
X012802Y010769D01*
X012719Y010972D01*
X012564Y011126D01*
X012458Y011170D01*
X012530Y011207D01*
X012598Y011256D01*
X012657Y011315D01*
X012706Y011382D01*
X012744Y011457D01*
X012769Y011536D01*
X012782Y011618D01*
X012782Y011620D01*
X012292Y011620D01*
X012292Y011700D01*
X012782Y011700D01*
X012782Y011702D01*
X012769Y011784D01*
X012744Y011863D01*
X012706Y011938D01*
X012657Y012005D01*
X012598Y012064D01*
X012530Y012113D01*
X012652Y012010D02*
X014012Y012010D01*
X014012Y011892D02*
X012729Y011892D01*
X012771Y011773D02*
X014012Y011773D01*
X014012Y011655D02*
X012292Y011655D01*
X012212Y011655D02*
X010996Y011655D01*
X011290Y011299D02*
X011864Y011299D01*
X011799Y011382D02*
X011761Y011457D01*
X011735Y011536D01*
X011722Y011700D02*
X012212Y011700D01*
X012212Y012190D01*
X012211Y012190D01*
X012128Y012177D01*
X012049Y012151D01*
X011975Y012113D01*
X011907Y012064D01*
X011848Y012005D01*
X011799Y011938D01*
X011761Y011863D01*
X011735Y011784D01*
X011722Y011702D01*
X011722Y011700D01*
X011734Y011773D02*
X006472Y011773D01*
X006472Y011655D02*
X010509Y011655D01*
X010351Y011536D02*
X006472Y011536D01*
X006472Y011418D02*
X010264Y011418D01*
X010215Y011299D02*
X006472Y011299D01*
X006472Y011181D02*
X010202Y011181D01*
X010202Y011062D02*
X006472Y011062D01*
X006472Y010944D02*
X010247Y010944D01*
X010310Y010825D02*
X006472Y010825D01*
X006472Y010707D02*
X010428Y010707D01*
X011077Y010707D02*
X011702Y010707D01*
X011702Y010588D02*
X006472Y010588D01*
X006472Y010470D02*
X011736Y010470D01*
X011785Y010351D02*
X006472Y010351D01*
X006472Y010233D02*
X011902Y010233D01*
X011929Y010114D02*
X009529Y010114D01*
X009530Y010113D02*
X009456Y010151D01*
X009376Y010177D01*
X009294Y010190D01*
X009272Y010190D01*
X009272Y009680D01*
X009232Y009680D01*
X009232Y010190D01*
X009211Y010190D01*
X009128Y010177D01*
X009049Y010151D01*
X008975Y010113D01*
X008907Y010064D01*
X008848Y010005D01*
X008799Y009938D01*
X008762Y009866D01*
X008719Y009972D01*
X008564Y010126D01*
X008362Y010210D01*
X008143Y010210D01*
X007941Y010126D01*
X007786Y009972D01*
X007702Y009769D01*
X007702Y009551D01*
X007786Y009348D01*
X007941Y009194D01*
X008012Y009164D01*
X008012Y008612D01*
X008049Y008524D01*
X008116Y008457D01*
X008616Y007957D01*
X008705Y007920D01*
X010256Y007920D01*
X010286Y007848D01*
X010441Y007694D01*
X010522Y007660D01*
X010441Y007626D01*
X010286Y007472D01*
X010256Y007400D01*
X008705Y007400D01*
X008616Y007363D01*
X008116Y006863D01*
X008049Y006796D01*
X006472Y006796D01*
X006472Y006678D02*
X008012Y006678D01*
X008012Y006708D02*
X008012Y006156D01*
X007941Y006126D01*
X007786Y005972D01*
X007702Y005769D01*
X007702Y005551D01*
X007786Y005348D01*
X007941Y005194D01*
X008143Y005110D01*
X008362Y005110D01*
X008564Y005194D01*
X008719Y005348D01*
X008762Y005454D01*
X008799Y005382D01*
X008848Y005315D01*
X008907Y005256D01*
X008975Y005207D01*
X009049Y005169D01*
X009128Y005143D01*
X009211Y005130D01*
X009232Y005130D01*
X009232Y005640D01*
X009272Y005640D01*
X009272Y005130D01*
X009294Y005130D01*
X009376Y005143D01*
X009456Y005169D01*
X009530Y005207D01*
X009598Y005256D01*
X009657Y005315D01*
X009706Y005382D01*
X009744Y005457D01*
X009769Y005536D01*
X009782Y005618D01*
X009782Y005640D01*
X009272Y005640D01*
X009272Y005680D01*
X009232Y005680D01*
X009232Y006190D01*
X009211Y006190D01*
X009128Y006177D01*
X009049Y006151D01*
X008975Y006113D01*
X008907Y006064D01*
X008848Y006005D01*
X008799Y005938D01*
X008762Y005866D01*
X008719Y005972D01*
X008564Y006126D01*
X008492Y006156D01*
X008492Y006561D01*
X008852Y006920D01*
X010256Y006920D01*
X010286Y006848D01*
X010441Y006694D01*
X010643Y006610D01*
X010862Y006610D01*
X011064Y006694D01*
X011219Y006848D01*
X011302Y007051D01*
X011302Y007269D01*
X011219Y007472D01*
X011064Y007626D01*
X010982Y007660D01*
X011064Y007694D01*
X011219Y007848D01*
X011302Y008051D01*
X011302Y008269D01*
X011219Y008472D01*
X011064Y008626D01*
X010862Y008710D01*
X010643Y008710D01*
X010441Y008626D01*
X010286Y008472D01*
X010256Y008400D01*
X008852Y008400D01*
X008492Y008759D01*
X008492Y009164D01*
X008564Y009194D01*
X008719Y009348D01*
X008762Y009454D01*
X008799Y009382D01*
X008848Y009315D01*
X008907Y009256D01*
X008975Y009207D01*
X009049Y009169D01*
X009128Y009143D01*
X009211Y009130D01*
X009232Y009130D01*
X009232Y009640D01*
X009272Y009640D01*
X009272Y009130D01*
X009294Y009130D01*
X009376Y009143D01*
X009456Y009169D01*
X009530Y009207D01*
X009598Y009256D01*
X009657Y009315D01*
X009706Y009382D01*
X009744Y009457D01*
X009769Y009536D01*
X009782Y009618D01*
X009782Y009640D01*
X009272Y009640D01*
X011702Y009640D01*
X011702Y009759D02*
X009773Y009759D01*
X009769Y009784D02*
X009744Y009863D01*
X009706Y009938D01*
X009657Y010005D01*
X009598Y010064D01*
X009530Y010113D01*
X009664Y009996D02*
X011810Y009996D01*
X011747Y009877D02*
X009737Y009877D01*
X009769Y009784D02*
X009782Y009702D01*
X009782Y009680D01*
X009272Y009680D01*
X009272Y009640D01*
X009272Y009522D02*
X009232Y009522D01*
X009232Y009403D02*
X009272Y009403D01*
X009272Y009285D02*
X009232Y009285D01*
X009232Y009166D02*
X009272Y009166D01*
X009447Y009166D02*
X012008Y009166D01*
X012012Y009048D02*
X008492Y009048D01*
X008497Y009166D02*
X009058Y009166D01*
X008878Y009285D02*
X008655Y009285D01*
X008741Y009403D02*
X008788Y009403D01*
X008758Y009877D02*
X008768Y009877D01*
X008695Y009996D02*
X008841Y009996D01*
X008976Y010114D02*
X008576Y010114D01*
X008252Y009660D02*
X008252Y008660D01*
X008752Y008160D01*
X010752Y008160D01*
X010280Y007863D02*
X006472Y007863D01*
X006472Y007981D02*
X008592Y007981D01*
X008473Y008100D02*
X006472Y008100D01*
X006472Y008218D02*
X008355Y008218D01*
X008236Y008337D02*
X006472Y008337D01*
X006472Y008455D02*
X008118Y008455D01*
X008028Y008574D02*
X006472Y008574D01*
X006472Y008692D02*
X008012Y008692D01*
X008012Y008811D02*
X006472Y008811D01*
X006472Y008929D02*
X008012Y008929D01*
X008012Y009048D02*
X006472Y009048D01*
X006472Y009166D02*
X008008Y009166D01*
X007850Y009285D02*
X006472Y009285D01*
X006472Y009403D02*
X007763Y009403D01*
X007714Y009522D02*
X006472Y009522D01*
X006472Y009640D02*
X007702Y009640D01*
X007702Y009759D02*
X006472Y009759D01*
X006472Y009877D02*
X007747Y009877D01*
X007810Y009996D02*
X006472Y009996D01*
X006472Y010114D02*
X007929Y010114D01*
X009232Y010114D02*
X009272Y010114D01*
X009272Y009996D02*
X009232Y009996D01*
X009232Y009877D02*
X009272Y009877D01*
X009272Y009759D02*
X009232Y009759D01*
X009765Y009522D02*
X011714Y009522D01*
X011763Y009403D02*
X009716Y009403D01*
X009626Y009285D02*
X011850Y009285D01*
X012012Y008929D02*
X008492Y008929D01*
X008492Y008811D02*
X012012Y008811D01*
X012012Y008692D02*
X010905Y008692D01*
X011117Y008574D02*
X012012Y008574D01*
X012012Y008455D02*
X011225Y008455D01*
X011275Y008337D02*
X012012Y008337D01*
X012012Y008218D02*
X011302Y008218D01*
X011302Y008100D02*
X012012Y008100D01*
X012012Y007981D02*
X011274Y007981D01*
X011224Y007863D02*
X012012Y007863D01*
X012012Y007744D02*
X011114Y007744D01*
X011065Y007626D02*
X012012Y007626D01*
X012012Y007507D02*
X011183Y007507D01*
X011253Y007389D02*
X012012Y007389D01*
X012012Y007270D02*
X011302Y007270D01*
X011302Y007152D02*
X012012Y007152D01*
X012012Y007033D02*
X011295Y007033D01*
X011246Y006915D02*
X012012Y006915D01*
X012012Y006796D02*
X011166Y006796D01*
X011025Y006678D02*
X012012Y006678D01*
X012012Y006559D02*
X008492Y006559D01*
X008492Y006441D02*
X012012Y006441D01*
X012012Y006322D02*
X008492Y006322D01*
X008492Y006204D02*
X012012Y006204D01*
X012012Y006085D02*
X009569Y006085D01*
X009598Y006064D02*
X009530Y006113D01*
X009456Y006151D01*
X009376Y006177D01*
X009294Y006190D01*
X009272Y006190D01*
X009272Y005680D01*
X009782Y005680D01*
X009782Y005702D01*
X009769Y005784D01*
X009744Y005863D01*
X009706Y005938D01*
X009657Y006005D01*
X009598Y006064D01*
X009685Y005967D02*
X012012Y005967D01*
X012012Y005848D02*
X009749Y005848D01*
X009778Y005730D02*
X012012Y005730D01*
X012012Y005611D02*
X009781Y005611D01*
X009755Y005493D02*
X012012Y005493D01*
X012012Y005374D02*
X009700Y005374D01*
X009597Y005256D02*
X012012Y005256D01*
X012012Y005137D02*
X009338Y005137D01*
X009272Y005137D02*
X009232Y005137D01*
X009166Y005137D02*
X008427Y005137D01*
X008626Y005256D02*
X008907Y005256D01*
X008805Y005374D02*
X008729Y005374D01*
X009232Y005374D02*
X009272Y005374D01*
X009272Y005256D02*
X009232Y005256D01*
X009232Y005493D02*
X009272Y005493D01*
X009272Y005611D02*
X009232Y005611D01*
X009232Y005730D02*
X009272Y005730D01*
X009272Y005848D02*
X009232Y005848D01*
X009232Y005967D02*
X009272Y005967D01*
X009272Y006085D02*
X009232Y006085D01*
X008936Y006085D02*
X008605Y006085D01*
X008721Y005967D02*
X008820Y005967D01*
X008252Y005660D02*
X008252Y006660D01*
X008752Y007160D01*
X010752Y007160D01*
X010322Y007507D02*
X006472Y007507D01*
X006472Y007389D02*
X008677Y007389D01*
X008523Y007270D02*
X006472Y007270D01*
X006472Y007152D02*
X008404Y007152D01*
X008286Y007033D02*
X006472Y007033D01*
X006472Y006915D02*
X008167Y006915D01*
X008049Y006796D02*
X008012Y006708D01*
X008012Y006559D02*
X006472Y006559D01*
X006472Y006441D02*
X008012Y006441D01*
X008012Y006322D02*
X006472Y006322D01*
X006472Y006204D02*
X008012Y006204D01*
X007900Y006085D02*
X006472Y006085D01*
X006472Y005967D02*
X007784Y005967D01*
X007735Y005848D02*
X006472Y005848D01*
X006472Y005730D02*
X007702Y005730D01*
X007702Y005611D02*
X006472Y005611D01*
X006472Y005493D02*
X007726Y005493D01*
X007776Y005374D02*
X006472Y005374D01*
X006472Y005256D02*
X007879Y005256D01*
X008078Y005137D02*
X006472Y005137D01*
X006472Y005019D02*
X012012Y005019D01*
X012012Y004900D02*
X006472Y004900D01*
X006472Y004782D02*
X012012Y004782D01*
X012012Y004663D02*
X010975Y004663D01*
X011146Y004545D02*
X012012Y004545D01*
X012012Y004426D02*
X011237Y004426D01*
X011287Y004308D02*
X012012Y004308D01*
X012012Y004189D02*
X011302Y004189D01*
X011302Y004071D02*
X012012Y004071D01*
X012012Y003952D02*
X011262Y003952D01*
X011204Y003834D02*
X012012Y003834D01*
X012012Y003715D02*
X011085Y003715D01*
X010992Y003597D02*
X012012Y003597D01*
X012012Y003478D02*
X010992Y003478D01*
X010992Y003360D02*
X012012Y003360D01*
X012012Y003241D02*
X010992Y003241D01*
X010992Y003123D02*
X012012Y003123D01*
X012069Y003004D02*
X010992Y003004D01*
X010992Y002886D02*
X012187Y002886D01*
X012306Y002767D02*
X010992Y002767D01*
X011103Y002649D02*
X012424Y002649D01*
X012543Y002530D02*
X011222Y002530D01*
X011340Y002412D02*
X023161Y002412D01*
X023280Y002293D02*
X022459Y002293D01*
X022577Y002175D02*
X023398Y002175D01*
X023512Y002056D02*
X022696Y002056D01*
X022814Y001938D02*
X023512Y001938D01*
X023512Y001819D02*
X022933Y001819D01*
X022992Y001701D02*
X023512Y001701D01*
X023397Y001582D02*
X023108Y001582D01*
X023222Y001464D02*
X023283Y001464D01*
X022752Y001660D02*
X022752Y001160D01*
X023228Y000871D02*
X023277Y000871D01*
X023382Y000753D02*
X023123Y000753D01*
X022920Y000634D02*
X023585Y000634D01*
X023920Y000634D02*
X024585Y000634D01*
X024382Y000753D02*
X024123Y000753D01*
X024228Y000871D02*
X024277Y000871D01*
X024283Y001464D02*
X024222Y001464D01*
X024108Y001582D02*
X024397Y001582D01*
X024620Y001701D02*
X023992Y001701D01*
X023992Y001819D02*
X029532Y001819D01*
X029532Y001701D02*
X027885Y001701D01*
X028108Y001582D02*
X029532Y001582D01*
X029532Y001464D02*
X028222Y001464D01*
X028271Y001345D02*
X029532Y001345D01*
X029532Y001251D02*
X028661Y000380D01*
X007343Y000380D01*
X006472Y001251D01*
X006472Y020069D01*
X007343Y020940D01*
X028661Y020940D01*
X029532Y020069D01*
X029532Y001251D01*
X029508Y001227D02*
X028302Y001227D01*
X028302Y001108D02*
X029389Y001108D01*
X029271Y000990D02*
X028277Y000990D01*
X028228Y000871D02*
X029152Y000871D01*
X029034Y000753D02*
X028123Y000753D01*
X027920Y000634D02*
X028915Y000634D01*
X028797Y000516D02*
X007208Y000516D01*
X007089Y000634D02*
X015585Y000634D01*
X015643Y000610D02*
X015862Y000610D01*
X016064Y000694D01*
X016219Y000848D01*
X016252Y000930D01*
X016286Y000848D01*
X016441Y000694D01*
X016643Y000610D01*
X016862Y000610D01*
X017064Y000694D01*
X017219Y000848D01*
X017252Y000930D01*
X017286Y000848D01*
X017441Y000694D01*
X017643Y000610D01*
X017862Y000610D01*
X018064Y000694D01*
X018219Y000848D01*
X018262Y000954D01*
X018299Y000882D01*
X018348Y000815D01*
X018407Y000756D01*
X018475Y000707D01*
X018549Y000669D01*
X018628Y000643D01*
X018711Y000630D01*
X018712Y000630D01*
X018712Y001120D01*
X018792Y001120D01*
X018792Y000630D01*
X018794Y000630D01*
X018876Y000643D01*
X018956Y000669D01*
X019030Y000707D01*
X019098Y000756D01*
X019157Y000815D01*
X019206Y000882D01*
X019244Y000957D01*
X019252Y000984D01*
X019261Y000957D01*
X019299Y000882D01*
X019348Y000815D01*
X019407Y000756D01*
X019475Y000707D01*
X019549Y000669D01*
X019628Y000643D01*
X019711Y000630D01*
X019712Y000630D01*
X019712Y001120D01*
X019222Y001120D01*
X018792Y001120D01*
X018792Y001200D01*
X018712Y001200D01*
X018712Y001690D01*
X018711Y001690D01*
X018628Y001677D01*
X018549Y001651D01*
X018475Y001613D01*
X018407Y001564D01*
X018348Y001505D01*
X018299Y001438D01*
X018262Y001366D01*
X018219Y001472D01*
X018064Y001626D01*
X017862Y001710D01*
X017643Y001710D01*
X017441Y001626D01*
X017286Y001472D01*
X017252Y001390D01*
X017219Y001472D01*
X017064Y001626D01*
X016862Y001710D01*
X016643Y001710D01*
X016441Y001626D01*
X016286Y001472D01*
X016252Y001390D01*
X016219Y001472D01*
X016064Y001626D01*
X015862Y001710D01*
X015643Y001710D01*
X015441Y001626D01*
X015286Y001472D01*
X015202Y001269D01*
X015202Y001051D01*
X015286Y000848D01*
X015441Y000694D01*
X015643Y000610D01*
X015920Y000634D02*
X016585Y000634D01*
X016382Y000753D02*
X016123Y000753D01*
X016228Y000871D02*
X016277Y000871D01*
X016283Y001464D02*
X016222Y001464D01*
X016108Y001582D02*
X016397Y001582D01*
X016620Y001701D02*
X015885Y001701D01*
X015620Y001701D02*
X006472Y001701D01*
X006472Y001819D02*
X022254Y001819D01*
X022372Y001701D02*
X020885Y001701D01*
X020862Y001710D02*
X020643Y001710D01*
X020441Y001626D01*
X020286Y001472D01*
X020242Y001366D01*
X020206Y001438D01*
X020157Y001505D01*
X020098Y001564D01*
X020030Y001613D01*
X019956Y001651D01*
X019876Y001677D01*
X019794Y001690D01*
X019792Y001690D01*
X019792Y001200D01*
X019712Y001200D01*
X019712Y001120D01*
X019792Y001120D01*
X019792Y000630D01*
X019794Y000630D01*
X019876Y000643D01*
X019956Y000669D01*
X020030Y000707D01*
X020098Y000756D01*
X020157Y000815D01*
X020206Y000882D01*
X020242Y000954D01*
X020286Y000848D01*
X020441Y000694D01*
X020643Y000610D01*
X020862Y000610D01*
X021064Y000694D01*
X021219Y000848D01*
X021302Y001051D01*
X021302Y001269D01*
X021219Y001472D01*
X021064Y001626D01*
X020862Y001710D01*
X020620Y001701D02*
X017885Y001701D01*
X018108Y001582D02*
X018432Y001582D01*
X018318Y001464D02*
X018222Y001464D01*
X018712Y001464D02*
X018792Y001464D01*
X018792Y001582D02*
X018712Y001582D01*
X018792Y001690D02*
X018792Y001200D01*
X019712Y001200D01*
X019712Y001690D01*
X019711Y001690D01*
X019628Y001677D01*
X019549Y001651D01*
X019475Y001613D01*
X019407Y001564D01*
X019348Y001505D01*
X019299Y001438D01*
X019261Y001363D01*
X019252Y001336D01*
X019244Y001363D01*
X019206Y001438D01*
X019157Y001505D01*
X019098Y001564D01*
X019030Y001613D01*
X018956Y001651D01*
X018876Y001677D01*
X018794Y001690D01*
X018792Y001690D01*
X019073Y001582D02*
X019432Y001582D01*
X019318Y001464D02*
X019187Y001464D01*
X019250Y001345D02*
X019255Y001345D01*
X019712Y001345D02*
X019792Y001345D01*
X019792Y001227D02*
X019712Y001227D01*
X019712Y001108D02*
X019792Y001108D01*
X019792Y000990D02*
X019712Y000990D01*
X019712Y000871D02*
X019792Y000871D01*
X019792Y000753D02*
X019712Y000753D01*
X019712Y000634D02*
X019792Y000634D01*
X019819Y000634D02*
X020585Y000634D01*
X020382Y000753D02*
X020093Y000753D01*
X020198Y000871D02*
X020277Y000871D01*
X020283Y001464D02*
X020187Y001464D01*
X020073Y001582D02*
X020397Y001582D01*
X019792Y001582D02*
X019712Y001582D01*
X019712Y001464D02*
X019792Y001464D01*
X019307Y000871D02*
X019198Y000871D01*
X019093Y000753D02*
X019412Y000753D01*
X019685Y000634D02*
X018819Y000634D01*
X018792Y000634D02*
X018712Y000634D01*
X018685Y000634D02*
X017920Y000634D01*
X018123Y000753D02*
X018412Y000753D01*
X018307Y000871D02*
X018228Y000871D01*
X018712Y000871D02*
X018792Y000871D01*
X018792Y000753D02*
X018712Y000753D01*
X018712Y000990D02*
X018792Y000990D01*
X018792Y001108D02*
X018712Y001108D01*
X018712Y001227D02*
X018792Y001227D01*
X018792Y001345D02*
X018712Y001345D01*
X017620Y001701D02*
X016885Y001701D01*
X017108Y001582D02*
X017397Y001582D01*
X017283Y001464D02*
X017222Y001464D01*
X017228Y000871D02*
X017277Y000871D01*
X017382Y000753D02*
X017123Y000753D01*
X016920Y000634D02*
X017585Y000634D01*
X015382Y000753D02*
X006971Y000753D01*
X006852Y000871D02*
X015277Y000871D01*
X015228Y000990D02*
X006734Y000990D01*
X006615Y001108D02*
X015202Y001108D01*
X015202Y001227D02*
X006497Y001227D01*
X006472Y001345D02*
X015234Y001345D01*
X015283Y001464D02*
X006472Y001464D01*
X006472Y001582D02*
X015397Y001582D01*
X012752Y002660D02*
X012252Y003160D01*
X012252Y009660D01*
X012758Y009877D02*
X014012Y009877D01*
X014012Y009759D02*
X012802Y009759D01*
X012802Y009640D02*
X014012Y009640D01*
X014012Y009522D02*
X012790Y009522D01*
X012741Y009403D02*
X014012Y009403D01*
X014012Y009285D02*
X012655Y009285D01*
X012497Y009166D02*
X014012Y009166D01*
X014012Y009048D02*
X012492Y009048D01*
X012492Y008929D02*
X014012Y008929D01*
X014012Y008811D02*
X012492Y008811D01*
X012492Y008692D02*
X014012Y008692D01*
X014012Y008612D02*
X014049Y008524D01*
X014549Y008024D01*
X014616Y007957D01*
X014705Y007920D01*
X021157Y007920D01*
X021987Y007090D01*
X021969Y007047D01*
X021969Y006848D01*
X022045Y006664D01*
X022155Y006554D01*
X022045Y006443D01*
X021969Y006259D01*
X021969Y006061D01*
X022045Y005877D01*
X022155Y005766D01*
X022045Y005656D01*
X021969Y005472D01*
X021969Y005273D01*
X022045Y005089D01*
X022186Y004949D01*
X022369Y004873D01*
X022568Y004873D01*
X022752Y004949D01*
X022893Y005089D01*
X022969Y005273D01*
X022969Y005472D01*
X022893Y005656D01*
X022782Y005766D01*
X022893Y005877D01*
X022969Y006061D01*
X022969Y006259D01*
X022893Y006443D01*
X022782Y006554D01*
X022893Y006664D01*
X022969Y006848D01*
X022969Y007047D01*
X022893Y007231D01*
X022752Y007371D01*
X022568Y007447D01*
X022369Y007447D01*
X022326Y007429D01*
X022146Y007610D01*
X022362Y007610D01*
X022564Y007694D01*
X022719Y007848D01*
X022802Y008051D01*
X022802Y008269D01*
X022799Y008278D01*
X023987Y007090D01*
X023969Y007047D01*
X023969Y006848D01*
X024045Y006664D01*
X024155Y006554D01*
X024045Y006443D01*
X023969Y006259D01*
X023969Y006061D01*
X024045Y005877D01*
X024155Y005766D01*
X024045Y005656D01*
X023969Y005472D01*
X023969Y005273D01*
X024045Y005089D01*
X024186Y004949D01*
X024369Y004873D01*
X024568Y004873D01*
X024752Y004949D01*
X024893Y005089D01*
X024969Y005273D01*
X024969Y005472D01*
X024893Y005656D01*
X024782Y005766D01*
X024893Y005877D01*
X024969Y006061D01*
X024969Y006259D01*
X024893Y006443D01*
X024782Y006554D01*
X024893Y006664D01*
X024969Y006848D01*
X024969Y007047D01*
X024893Y007231D01*
X024752Y007371D01*
X024568Y007447D01*
X024369Y007447D01*
X024326Y007429D01*
X024146Y007610D01*
X024362Y007610D01*
X024564Y007694D01*
X024719Y007848D01*
X024802Y008051D01*
X024802Y008269D01*
X024719Y008472D01*
X024564Y008626D01*
X024362Y008710D01*
X024143Y008710D01*
X023941Y008626D01*
X023786Y008472D01*
X023702Y008269D01*
X023702Y008053D01*
X022660Y009096D01*
X022592Y009163D01*
X022504Y009200D01*
X019570Y009200D01*
X019719Y009348D01*
X019802Y009551D01*
X019802Y009769D01*
X019719Y009972D01*
X019564Y010126D01*
X019482Y010160D01*
X019564Y010194D01*
X019719Y010348D01*
X019802Y010551D01*
X019802Y010769D01*
X019719Y010972D01*
X019564Y011126D01*
X019458Y011170D01*
X019530Y011207D01*
X019598Y011256D01*
X019657Y011315D01*
X019706Y011382D01*
X019744Y011457D01*
X019769Y011536D01*
X019782Y011618D01*
X019782Y011620D01*
X019292Y011620D01*
X019292Y011700D01*
X019212Y011700D01*
X019212Y011620D01*
X018722Y011620D01*
X018722Y011618D01*
X018735Y011536D01*
X015492Y011536D01*
X015492Y011418D02*
X018781Y011418D01*
X018799Y011382D02*
X018848Y011315D01*
X018907Y011256D01*
X018975Y011207D01*
X019047Y011170D01*
X018941Y011126D01*
X018786Y010972D01*
X018702Y010769D01*
X018702Y010551D01*
X018786Y010348D01*
X018941Y010194D01*
X019022Y010160D01*
X018941Y010126D01*
X018786Y009972D01*
X018702Y009769D01*
X018702Y009551D01*
X018786Y009348D01*
X018935Y009200D01*
X015852Y009200D01*
X015492Y009559D01*
X015492Y019664D01*
X015564Y019694D01*
X015719Y019848D01*
X015752Y019930D01*
X015786Y019848D01*
X015941Y019694D01*
X016143Y019610D01*
X016362Y019610D01*
X016564Y019694D01*
X016719Y019848D01*
X016752Y019930D01*
X016786Y019848D01*
X016941Y019694D01*
X017143Y019610D01*
X017362Y019610D01*
X017564Y019694D01*
X017719Y019848D01*
X017752Y019930D01*
X017786Y019848D01*
X017941Y019694D01*
X018143Y019610D01*
X018362Y019610D01*
X018564Y019694D01*
X018719Y019848D01*
X018752Y019930D01*
X018786Y019848D01*
X018941Y019694D01*
X019012Y019664D01*
X019012Y019612D01*
X019049Y019524D01*
X020012Y018561D01*
X020012Y010112D01*
X020049Y010024D01*
X020549Y009524D01*
X020616Y009457D01*
X020705Y009420D01*
X024653Y009420D01*
X025012Y009061D01*
X025012Y008116D01*
X025049Y008028D01*
X025987Y007090D01*
X025969Y007047D01*
X025969Y006848D01*
X026045Y006664D01*
X026155Y006554D01*
X026045Y006443D01*
X025969Y006259D01*
X025969Y006061D01*
X026045Y005877D01*
X026155Y005766D01*
X026045Y005656D01*
X025969Y005472D01*
X025969Y005273D01*
X026045Y005089D01*
X026186Y004949D01*
X026369Y004873D01*
X026568Y004873D01*
X026752Y004949D01*
X026893Y005089D01*
X026969Y005273D01*
X026969Y005472D01*
X026893Y005656D01*
X026782Y005766D01*
X026893Y005877D01*
X026969Y006061D01*
X026969Y006259D01*
X026893Y006443D01*
X026782Y006554D01*
X026893Y006664D01*
X026969Y006848D01*
X026969Y007047D01*
X026893Y007231D01*
X026752Y007371D01*
X026568Y007447D01*
X026369Y007447D01*
X026326Y007429D01*
X026146Y007610D01*
X026362Y007610D01*
X026564Y007694D01*
X026719Y007848D01*
X026802Y008051D01*
X026802Y008269D01*
X026719Y008472D01*
X026564Y008626D01*
X026362Y008710D01*
X026143Y008710D01*
X025941Y008626D01*
X025786Y008472D01*
X025702Y008269D01*
X025702Y008053D01*
X025492Y008263D01*
X025492Y009208D01*
X025456Y009296D01*
X025388Y009363D01*
X024888Y009863D01*
X024800Y009900D01*
X020852Y009900D01*
X020492Y010259D01*
X020492Y018708D01*
X020456Y018796D01*
X020388Y018863D01*
X019560Y019692D01*
X019564Y019694D01*
X019719Y019848D01*
X019802Y020051D01*
X019802Y020269D01*
X019719Y020472D01*
X019564Y020626D01*
X019362Y020710D01*
X019143Y020710D01*
X018941Y020626D01*
X018786Y020472D01*
X018752Y020390D01*
X018719Y020472D01*
X018564Y020626D01*
X018362Y020710D01*
X018143Y020710D01*
X017941Y020626D01*
X017786Y020472D01*
X017752Y020390D01*
X017719Y020472D01*
X017564Y020626D01*
X017362Y020710D01*
X017143Y020710D01*
X016941Y020626D01*
X016786Y020472D01*
X016752Y020390D01*
X016719Y020472D01*
X016564Y020626D01*
X016362Y020710D01*
X016143Y020710D01*
X015941Y020626D01*
X015786Y020472D01*
X015752Y020390D01*
X015719Y020472D01*
X015564Y020626D01*
X015362Y020710D01*
X015143Y020710D01*
X014941Y020626D01*
X014786Y020472D01*
X014752Y020390D01*
X014719Y020472D01*
X014564Y020626D01*
X014362Y020710D01*
X014143Y020710D01*
X013941Y020626D01*
X013786Y020472D01*
X013742Y020366D01*
X013706Y020438D01*
X013657Y020505D01*
X013598Y020564D01*
X013530Y020613D01*
X013456Y020651D01*
X013376Y020677D01*
X013294Y020690D01*
X013292Y020690D01*
X013292Y020200D01*
X013212Y020200D01*
X013212Y020690D01*
X013211Y020690D01*
X013128Y020677D01*
X013049Y020651D01*
X012975Y020613D01*
X012907Y020564D01*
X012848Y020505D01*
X012799Y020438D01*
X012762Y020366D01*
X012719Y020472D01*
X012564Y020626D01*
X012362Y020710D01*
X012143Y020710D01*
X011941Y020626D01*
X011786Y020472D01*
X011702Y020269D01*
X011702Y020051D01*
X011786Y019848D01*
X011941Y019694D01*
X012143Y019610D01*
X012362Y019610D01*
X012564Y019694D01*
X012719Y019848D01*
X012762Y019954D01*
X012799Y019882D01*
X012848Y019815D01*
X012907Y019756D01*
X012975Y019707D01*
X013049Y019669D01*
X013128Y019643D01*
X013211Y019630D01*
X013212Y019630D01*
X013212Y020120D01*
X013292Y020120D01*
X013292Y019630D01*
X013294Y019630D01*
X013376Y019643D01*
X013456Y019669D01*
X013530Y019707D01*
X013598Y019756D01*
X013657Y019815D01*
X013706Y019882D01*
X013742Y019954D01*
X013786Y019848D01*
X013941Y019694D01*
X014012Y019664D01*
X014012Y008612D01*
X014028Y008574D02*
X012492Y008574D01*
X012492Y008455D02*
X014118Y008455D01*
X014236Y008337D02*
X012492Y008337D01*
X012492Y008218D02*
X014355Y008218D01*
X014473Y008100D02*
X012492Y008100D01*
X012492Y007981D02*
X014592Y007981D01*
X014752Y008160D02*
X021256Y008160D01*
X022469Y006947D01*
X022926Y007152D02*
X023925Y007152D01*
X023969Y007033D02*
X022969Y007033D01*
X022969Y006915D02*
X023969Y006915D01*
X023990Y006796D02*
X022947Y006796D01*
X022898Y006678D02*
X024039Y006678D01*
X024150Y006559D02*
X022788Y006559D01*
X022894Y006441D02*
X024044Y006441D01*
X023995Y006322D02*
X022943Y006322D01*
X022969Y006204D02*
X023969Y006204D01*
X023969Y006085D02*
X022969Y006085D01*
X022930Y005967D02*
X024008Y005967D01*
X024074Y005848D02*
X022864Y005848D01*
X022819Y005730D02*
X024119Y005730D01*
X024026Y005611D02*
X022911Y005611D01*
X022960Y005493D02*
X023977Y005493D01*
X023969Y005374D02*
X022969Y005374D01*
X022962Y005256D02*
X023976Y005256D01*
X024025Y005137D02*
X022913Y005137D01*
X022822Y005019D02*
X024116Y005019D01*
X024303Y004900D02*
X022635Y004900D01*
X022303Y004900D02*
X012492Y004900D01*
X012492Y004782D02*
X028972Y004782D01*
X028972Y004776D02*
X028636Y004440D01*
X018010Y004440D01*
X017968Y004482D01*
X017828Y004540D01*
X017677Y004540D01*
X017537Y004482D01*
X017430Y004375D01*
X017372Y004236D01*
X017372Y004084D01*
X017430Y003945D01*
X017537Y003838D01*
X017677Y003780D01*
X017828Y003780D01*
X017968Y003838D01*
X018010Y003880D01*
X028808Y003880D01*
X028911Y003923D01*
X028990Y004001D01*
X028990Y004001D01*
X029490Y004501D01*
X029532Y004604D01*
X029532Y010716D01*
X029490Y010819D01*
X028911Y011397D01*
X028808Y011440D01*
X028732Y011440D01*
X028719Y011472D01*
X028564Y011626D01*
X028362Y011710D01*
X028143Y011710D01*
X027941Y011626D01*
X027786Y011472D01*
X027773Y011440D01*
X026732Y011440D01*
X026719Y011472D01*
X026564Y011626D01*
X026362Y011710D01*
X026143Y011710D01*
X025941Y011626D01*
X025786Y011472D01*
X025773Y011440D01*
X024732Y011440D01*
X024719Y011472D01*
X024564Y011626D01*
X024362Y011710D01*
X024143Y011710D01*
X023941Y011626D01*
X023786Y011472D01*
X023773Y011440D01*
X022732Y011440D01*
X022719Y011472D01*
X022564Y011626D01*
X022362Y011710D01*
X022143Y011710D01*
X021941Y011626D01*
X021786Y011472D01*
X021702Y011269D01*
X021702Y011051D01*
X021786Y010848D01*
X021941Y010694D01*
X022143Y010610D01*
X022362Y010610D01*
X022564Y010694D01*
X022719Y010848D01*
X022732Y010880D01*
X023773Y010880D01*
X023786Y010848D01*
X023941Y010694D01*
X024143Y010610D01*
X024362Y010610D01*
X024564Y010694D01*
X024719Y010848D01*
X024732Y010880D01*
X025773Y010880D01*
X025786Y010848D01*
X025941Y010694D01*
X026143Y010610D01*
X026362Y010610D01*
X026564Y010694D01*
X026719Y010848D01*
X026732Y010880D01*
X027773Y010880D01*
X027786Y010848D01*
X027941Y010694D01*
X028143Y010610D01*
X028362Y010610D01*
X028564Y010694D01*
X028693Y010823D01*
X028972Y010544D01*
X028972Y004776D01*
X028972Y004900D02*
X028635Y004900D01*
X028568Y004873D02*
X028752Y004949D01*
X028893Y005089D01*
X028969Y005273D01*
X028969Y005472D01*
X028893Y005656D01*
X028782Y005766D01*
X028893Y005877D01*
X028969Y006061D01*
X028969Y006259D01*
X028893Y006443D01*
X028782Y006554D01*
X028893Y006664D01*
X028969Y006848D01*
X028969Y007047D01*
X028893Y007231D01*
X028752Y007371D01*
X028568Y007447D01*
X028369Y007447D01*
X028326Y007429D01*
X028146Y007610D01*
X028362Y007610D01*
X028564Y007694D01*
X028719Y007848D01*
X028802Y008051D01*
X028802Y008269D01*
X028719Y008472D01*
X028564Y008626D01*
X028362Y008710D01*
X028143Y008710D01*
X027941Y008626D01*
X027786Y008472D01*
X027702Y008269D01*
X027702Y008053D01*
X027492Y008263D01*
X027492Y009708D01*
X027456Y009796D01*
X027388Y009863D01*
X026956Y010296D01*
X026888Y010363D01*
X026800Y010400D01*
X021352Y010400D01*
X020992Y010759D01*
X020992Y019664D01*
X021064Y019694D01*
X021219Y019848D01*
X021252Y019930D01*
X021286Y019848D01*
X021441Y019694D01*
X021643Y019610D01*
X021862Y019610D01*
X022064Y019694D01*
X022219Y019848D01*
X022252Y019930D01*
X022286Y019848D01*
X022441Y019694D01*
X022643Y019610D01*
X022862Y019610D01*
X023064Y019694D01*
X023219Y019848D01*
X023252Y019930D01*
X023286Y019848D01*
X023441Y019694D01*
X023643Y019610D01*
X023862Y019610D01*
X024064Y019694D01*
X024219Y019848D01*
X024252Y019930D01*
X024286Y019848D01*
X024441Y019694D01*
X024643Y019610D01*
X024862Y019610D01*
X025064Y019694D01*
X025219Y019848D01*
X025252Y019930D01*
X025286Y019848D01*
X025441Y019694D01*
X025643Y019610D01*
X025862Y019610D01*
X026064Y019694D01*
X026219Y019848D01*
X026252Y019930D01*
X026286Y019848D01*
X026441Y019694D01*
X026643Y019610D01*
X026862Y019610D01*
X027064Y019694D01*
X027219Y019848D01*
X027252Y019930D01*
X027286Y019848D01*
X027441Y019694D01*
X027643Y019610D01*
X027862Y019610D01*
X028064Y019694D01*
X028219Y019848D01*
X028302Y020051D01*
X028302Y020269D01*
X028219Y020472D01*
X028064Y020626D01*
X027862Y020710D01*
X027643Y020710D01*
X027441Y020626D01*
X027286Y020472D01*
X027252Y020390D01*
X027219Y020472D01*
X027064Y020626D01*
X026862Y020710D01*
X026643Y020710D01*
X026441Y020626D01*
X026286Y020472D01*
X026252Y020390D01*
X026219Y020472D01*
X026064Y020626D01*
X025862Y020710D01*
X025643Y020710D01*
X025441Y020626D01*
X025286Y020472D01*
X025252Y020390D01*
X025219Y020472D01*
X025064Y020626D01*
X024862Y020710D01*
X024643Y020710D01*
X024441Y020626D01*
X024286Y020472D01*
X024252Y020390D01*
X024219Y020472D01*
X024064Y020626D01*
X023862Y020710D01*
X023643Y020710D01*
X023441Y020626D01*
X023286Y020472D01*
X023252Y020390D01*
X023219Y020472D01*
X023064Y020626D01*
X022862Y020710D01*
X022643Y020710D01*
X022441Y020626D01*
X022286Y020472D01*
X022252Y020390D01*
X022219Y020472D01*
X022064Y020626D01*
X021862Y020710D01*
X021643Y020710D01*
X021441Y020626D01*
X021286Y020472D01*
X021252Y020390D01*
X021219Y020472D01*
X021064Y020626D01*
X020862Y020710D01*
X020643Y020710D01*
X020441Y020626D01*
X020286Y020472D01*
X020202Y020269D01*
X020202Y020051D01*
X020286Y019848D01*
X020441Y019694D01*
X020512Y019664D01*
X020512Y010612D01*
X020549Y010524D01*
X021049Y010024D01*
X021116Y009957D01*
X021205Y009920D01*
X026653Y009920D01*
X027012Y009561D01*
X027012Y008116D01*
X027049Y008028D01*
X027987Y007090D01*
X027969Y007047D01*
X027969Y006848D01*
X028045Y006664D01*
X028155Y006554D01*
X028045Y006443D01*
X027969Y006259D01*
X027969Y006061D01*
X028045Y005877D01*
X028155Y005766D01*
X028045Y005656D01*
X027969Y005472D01*
X027969Y005273D01*
X028045Y005089D01*
X028186Y004949D01*
X028369Y004873D01*
X028568Y004873D01*
X028303Y004900D02*
X026635Y004900D01*
X026822Y005019D02*
X028116Y005019D01*
X028025Y005137D02*
X026913Y005137D01*
X026962Y005256D02*
X027976Y005256D01*
X027969Y005374D02*
X026969Y005374D01*
X026960Y005493D02*
X027977Y005493D01*
X028026Y005611D02*
X026911Y005611D01*
X026819Y005730D02*
X028119Y005730D01*
X028074Y005848D02*
X026864Y005848D01*
X026930Y005967D02*
X028008Y005967D01*
X027969Y006085D02*
X026969Y006085D01*
X026969Y006204D02*
X027969Y006204D01*
X027995Y006322D02*
X026943Y006322D01*
X026894Y006441D02*
X028044Y006441D01*
X028150Y006559D02*
X026788Y006559D01*
X026898Y006678D02*
X028039Y006678D01*
X027990Y006796D02*
X026947Y006796D01*
X026969Y006915D02*
X027969Y006915D01*
X027969Y007033D02*
X026969Y007033D01*
X026926Y007152D02*
X027925Y007152D01*
X027807Y007270D02*
X026853Y007270D01*
X026711Y007389D02*
X027688Y007389D01*
X027570Y007507D02*
X026249Y007507D01*
X026399Y007626D02*
X027451Y007626D01*
X027333Y007744D02*
X026614Y007744D01*
X026724Y007863D02*
X027214Y007863D01*
X027096Y007981D02*
X026774Y007981D01*
X026802Y008100D02*
X027019Y008100D01*
X027012Y008218D02*
X026802Y008218D01*
X026775Y008337D02*
X027012Y008337D01*
X027012Y008455D02*
X026725Y008455D01*
X026617Y008574D02*
X027012Y008574D01*
X027012Y008692D02*
X026405Y008692D01*
X026100Y008692D02*
X025492Y008692D01*
X025492Y008574D02*
X025888Y008574D01*
X025779Y008455D02*
X025492Y008455D01*
X025492Y008337D02*
X025730Y008337D01*
X025702Y008218D02*
X025538Y008218D01*
X025656Y008100D02*
X025702Y008100D01*
X025252Y008164D02*
X026469Y006947D01*
X025969Y006915D02*
X024969Y006915D01*
X024969Y007033D02*
X025969Y007033D01*
X025925Y007152D02*
X024926Y007152D01*
X024853Y007270D02*
X025807Y007270D01*
X025688Y007389D02*
X024711Y007389D01*
X024614Y007744D02*
X025333Y007744D01*
X025451Y007626D02*
X024399Y007626D01*
X024249Y007507D02*
X025570Y007507D01*
X025214Y007863D02*
X024724Y007863D01*
X024774Y007981D02*
X025096Y007981D01*
X025019Y008100D02*
X024802Y008100D01*
X024802Y008218D02*
X025012Y008218D01*
X025012Y008337D02*
X024775Y008337D01*
X024725Y008455D02*
X025012Y008455D01*
X025012Y008574D02*
X024617Y008574D01*
X024405Y008692D02*
X025012Y008692D01*
X025012Y008811D02*
X022945Y008811D01*
X022827Y008929D02*
X025012Y008929D01*
X025012Y009048D02*
X022708Y009048D01*
X022586Y009166D02*
X024907Y009166D01*
X024788Y009285D02*
X019655Y009285D01*
X019741Y009403D02*
X024670Y009403D01*
X024752Y009660D02*
X025252Y009160D01*
X025252Y008164D01*
X025492Y008811D02*
X027012Y008811D01*
X027012Y008929D02*
X025492Y008929D01*
X025492Y009048D02*
X027012Y009048D01*
X027012Y009166D02*
X025492Y009166D01*
X025461Y009285D02*
X027012Y009285D01*
X027012Y009403D02*
X025349Y009403D01*
X025230Y009522D02*
X027012Y009522D01*
X026933Y009640D02*
X025112Y009640D01*
X024993Y009759D02*
X026814Y009759D01*
X026696Y009877D02*
X024856Y009877D01*
X024752Y009660D02*
X020752Y009660D01*
X020252Y010160D01*
X020252Y018660D01*
X019252Y019660D01*
X019252Y020160D01*
X018857Y020542D02*
X018648Y020542D01*
X018739Y020424D02*
X018766Y020424D01*
X019024Y020661D02*
X018481Y020661D01*
X018024Y020661D02*
X017481Y020661D01*
X017648Y020542D02*
X017857Y020542D01*
X017766Y020424D02*
X017739Y020424D01*
X017701Y019831D02*
X017804Y019831D01*
X017922Y019713D02*
X017583Y019713D01*
X016922Y019713D02*
X016583Y019713D01*
X016701Y019831D02*
X016804Y019831D01*
X016766Y020424D02*
X016739Y020424D01*
X016648Y020542D02*
X016857Y020542D01*
X017024Y020661D02*
X016481Y020661D01*
X016024Y020661D02*
X015481Y020661D01*
X015648Y020542D02*
X015857Y020542D01*
X015766Y020424D02*
X015739Y020424D01*
X015252Y020160D02*
X015252Y009460D01*
X015752Y008960D01*
X022456Y008960D01*
X024469Y006947D01*
X024947Y006796D02*
X025990Y006796D01*
X026039Y006678D02*
X024898Y006678D01*
X024788Y006559D02*
X026150Y006559D01*
X026044Y006441D02*
X024894Y006441D01*
X024943Y006322D02*
X025995Y006322D01*
X025969Y006204D02*
X024969Y006204D01*
X024969Y006085D02*
X025969Y006085D01*
X026008Y005967D02*
X024930Y005967D01*
X024864Y005848D02*
X026074Y005848D01*
X026119Y005730D02*
X024819Y005730D01*
X024911Y005611D02*
X026026Y005611D01*
X025977Y005493D02*
X024960Y005493D01*
X024969Y005374D02*
X025969Y005374D01*
X025976Y005256D02*
X024962Y005256D01*
X024913Y005137D02*
X026025Y005137D01*
X026116Y005019D02*
X024822Y005019D01*
X024635Y004900D02*
X026303Y004900D01*
X028741Y004545D02*
X012492Y004545D01*
X012492Y004663D02*
X028859Y004663D01*
X028822Y005019D02*
X028972Y005019D01*
X028972Y005137D02*
X028913Y005137D01*
X028962Y005256D02*
X028972Y005256D01*
X028969Y005374D02*
X028972Y005374D01*
X028960Y005493D02*
X028972Y005493D01*
X028972Y005611D02*
X028911Y005611D01*
X028972Y005730D02*
X028819Y005730D01*
X028864Y005848D02*
X028972Y005848D01*
X028972Y005967D02*
X028930Y005967D01*
X028969Y006085D02*
X028972Y006085D01*
X028969Y006204D02*
X028972Y006204D01*
X028972Y006322D02*
X028943Y006322D01*
X028972Y006441D02*
X028894Y006441D01*
X028972Y006559D02*
X028788Y006559D01*
X028898Y006678D02*
X028972Y006678D01*
X028972Y006796D02*
X028947Y006796D01*
X028969Y006915D02*
X028972Y006915D01*
X028969Y007033D02*
X028972Y007033D01*
X028972Y007152D02*
X028926Y007152D01*
X028972Y007270D02*
X028853Y007270D01*
X028972Y007389D02*
X028711Y007389D01*
X028972Y007507D02*
X028249Y007507D01*
X028399Y007626D02*
X028972Y007626D01*
X028972Y007744D02*
X028614Y007744D01*
X028724Y007863D02*
X028972Y007863D01*
X028972Y007981D02*
X028774Y007981D01*
X028802Y008100D02*
X028972Y008100D01*
X028972Y008218D02*
X028802Y008218D01*
X028775Y008337D02*
X028972Y008337D01*
X028972Y008455D02*
X028725Y008455D01*
X028617Y008574D02*
X028972Y008574D01*
X028972Y008692D02*
X028405Y008692D01*
X028100Y008692D02*
X027492Y008692D01*
X027492Y008574D02*
X027888Y008574D01*
X027779Y008455D02*
X027492Y008455D01*
X027492Y008337D02*
X027730Y008337D01*
X027702Y008218D02*
X027538Y008218D01*
X027656Y008100D02*
X027702Y008100D01*
X027252Y008164D02*
X028469Y006947D01*
X029532Y006915D02*
X029532Y006915D01*
X029532Y007033D02*
X029532Y007033D01*
X029532Y007152D02*
X029532Y007152D01*
X029532Y007270D02*
X029532Y007270D01*
X029532Y007389D02*
X029532Y007389D01*
X029532Y007507D02*
X029532Y007507D01*
X029532Y007626D02*
X029532Y007626D01*
X029532Y007744D02*
X029532Y007744D01*
X029532Y007863D02*
X029532Y007863D01*
X029532Y007981D02*
X029532Y007981D01*
X029532Y008100D02*
X029532Y008100D01*
X029532Y008218D02*
X029532Y008218D01*
X029532Y008337D02*
X029532Y008337D01*
X029532Y008455D02*
X029532Y008455D01*
X029532Y008574D02*
X029532Y008574D01*
X029532Y008692D02*
X029532Y008692D01*
X029532Y008811D02*
X029532Y008811D01*
X029532Y008929D02*
X029532Y008929D01*
X029532Y009048D02*
X029532Y009048D01*
X029532Y009166D02*
X029532Y009166D01*
X029532Y009285D02*
X029532Y009285D01*
X029532Y009403D02*
X029532Y009403D01*
X029532Y009522D02*
X029532Y009522D01*
X029532Y009640D02*
X029532Y009640D01*
X029532Y009759D02*
X029532Y009759D01*
X029532Y009877D02*
X029532Y009877D01*
X029532Y009996D02*
X029532Y009996D01*
X029532Y010114D02*
X029532Y010114D01*
X029532Y010233D02*
X029532Y010233D01*
X029532Y010351D02*
X029532Y010351D01*
X029532Y010470D02*
X029532Y010470D01*
X029532Y010588D02*
X029532Y010588D01*
X029532Y010707D02*
X029532Y010707D01*
X029532Y010825D02*
X029483Y010825D01*
X029532Y010944D02*
X029365Y010944D01*
X029246Y011062D02*
X029532Y011062D01*
X029532Y011181D02*
X029128Y011181D01*
X029009Y011299D02*
X029532Y011299D01*
X029532Y011418D02*
X028862Y011418D01*
X028654Y011536D02*
X029532Y011536D01*
X029532Y011655D02*
X028496Y011655D01*
X028219Y011848D02*
X028302Y012051D01*
X028302Y012148D01*
X028393Y012110D01*
X028612Y012110D01*
X028814Y012194D01*
X028969Y012348D01*
X029052Y012551D01*
X029052Y012769D01*
X028969Y012972D01*
X028814Y013126D01*
X028612Y013210D01*
X028393Y013210D01*
X028224Y013140D01*
X027772Y013140D01*
X027772Y013180D01*
X027732Y013180D01*
X027732Y013140D01*
X027222Y013140D01*
X027222Y013118D01*
X027235Y013036D01*
X027261Y012957D01*
X027299Y012882D01*
X027348Y012815D01*
X027407Y012756D01*
X027475Y012707D01*
X027547Y012670D01*
X027441Y012626D01*
X027286Y012472D01*
X027202Y012269D01*
X027202Y012051D01*
X027286Y011848D01*
X027441Y011694D01*
X027643Y011610D01*
X027862Y011610D01*
X028064Y011694D01*
X028219Y011848D01*
X028236Y011892D02*
X029532Y011892D01*
X029532Y012010D02*
X028286Y012010D01*
X028302Y012129D02*
X028348Y012129D01*
X028656Y012129D02*
X029532Y012129D01*
X029532Y012247D02*
X028867Y012247D01*
X028976Y012366D02*
X029532Y012366D01*
X029532Y012484D02*
X029025Y012484D01*
X029052Y012603D02*
X029532Y012603D01*
X029532Y012721D02*
X029052Y012721D01*
X029023Y012840D02*
X029532Y012840D01*
X029532Y012958D02*
X028974Y012958D01*
X028864Y013077D02*
X029532Y013077D01*
X029532Y013195D02*
X028648Y013195D01*
X028357Y013195D02*
X028282Y013195D01*
X028282Y013202D02*
X028269Y013284D01*
X028244Y013363D01*
X028206Y013438D01*
X028157Y013505D01*
X028098Y013564D01*
X028030Y013613D01*
X027956Y013651D01*
X027876Y013677D01*
X027794Y013690D01*
X027772Y013690D01*
X027772Y013180D01*
X028282Y013180D01*
X028282Y013202D01*
X028260Y013314D02*
X029532Y013314D01*
X029532Y013432D02*
X028209Y013432D01*
X028111Y013551D02*
X029532Y013551D01*
X029532Y013669D02*
X028504Y013669D01*
X028564Y013694D02*
X028719Y013848D01*
X028802Y014051D01*
X028802Y014269D01*
X028719Y014472D01*
X028564Y014626D01*
X028362Y014710D01*
X028143Y014710D01*
X027941Y014626D01*
X027786Y014472D01*
X027702Y014269D01*
X027702Y014051D01*
X027786Y013848D01*
X027941Y013694D01*
X028143Y013610D01*
X028362Y013610D01*
X028564Y013694D01*
X028658Y013788D02*
X029532Y013788D01*
X029532Y013906D02*
X028742Y013906D01*
X028792Y014025D02*
X029532Y014025D01*
X029532Y014143D02*
X028802Y014143D01*
X028802Y014262D02*
X029532Y014262D01*
X029532Y014380D02*
X028757Y014380D01*
X028692Y014499D02*
X029532Y014499D01*
X029532Y014617D02*
X028573Y014617D01*
X027932Y014617D02*
X026573Y014617D01*
X026564Y014626D02*
X026362Y014710D01*
X026143Y014710D01*
X025941Y014626D01*
X025786Y014472D01*
X025702Y014269D01*
X025702Y014051D01*
X025786Y013848D01*
X025941Y013694D01*
X026143Y013610D01*
X026362Y013610D01*
X026564Y013694D01*
X026719Y013848D01*
X026802Y014051D01*
X026802Y014269D01*
X026719Y014472D01*
X026564Y014626D01*
X026692Y014499D02*
X027813Y014499D01*
X027748Y014380D02*
X026757Y014380D01*
X026802Y014262D02*
X027702Y014262D01*
X027702Y014143D02*
X026802Y014143D01*
X026792Y014025D02*
X027713Y014025D01*
X027762Y013906D02*
X026742Y013906D01*
X026658Y013788D02*
X027847Y013788D01*
X027901Y013669D02*
X028000Y013669D01*
X027772Y013669D02*
X027732Y013669D01*
X027732Y013690D02*
X027711Y013690D01*
X027628Y013677D01*
X027549Y013651D01*
X027475Y013613D01*
X027407Y013564D01*
X027348Y013505D01*
X027299Y013438D01*
X027261Y013363D01*
X027235Y013284D01*
X027222Y013202D01*
X027222Y013180D01*
X027732Y013180D01*
X027732Y013690D01*
X027604Y013669D02*
X026504Y013669D01*
X026206Y013438D02*
X026157Y013505D01*
X026098Y013564D01*
X026030Y013613D01*
X025956Y013651D01*
X025876Y013677D01*
X025794Y013690D01*
X025772Y013690D01*
X025772Y013180D01*
X025732Y013180D01*
X025732Y013140D01*
X025222Y013140D01*
X025222Y013118D01*
X025235Y013036D01*
X025261Y012957D01*
X025299Y012882D01*
X025348Y012815D01*
X025407Y012756D01*
X025475Y012707D01*
X025547Y012670D01*
X025441Y012626D01*
X025286Y012472D01*
X025202Y012269D01*
X025202Y012051D01*
X025286Y011848D01*
X025441Y011694D01*
X025643Y011610D01*
X025862Y011610D01*
X026064Y011694D01*
X026219Y011848D01*
X026302Y012051D01*
X026302Y012148D01*
X026393Y012110D01*
X026612Y012110D01*
X026814Y012194D01*
X026969Y012348D01*
X027052Y012551D01*
X027052Y012769D01*
X026969Y012972D01*
X026814Y013126D01*
X026612Y013210D01*
X026393Y013210D01*
X026224Y013140D01*
X025772Y013140D01*
X025772Y013180D01*
X026282Y013180D01*
X026282Y013202D01*
X026269Y013284D01*
X026244Y013363D01*
X026206Y013438D01*
X026209Y013432D02*
X027296Y013432D01*
X027245Y013314D02*
X026260Y013314D01*
X026282Y013195D02*
X026357Y013195D01*
X026648Y013195D02*
X027222Y013195D01*
X027229Y013077D02*
X026864Y013077D01*
X026974Y012958D02*
X027261Y012958D01*
X027330Y012840D02*
X027023Y012840D01*
X027052Y012721D02*
X027455Y012721D01*
X027417Y012603D02*
X027052Y012603D01*
X027025Y012484D02*
X027299Y012484D01*
X027242Y012366D02*
X026976Y012366D01*
X026867Y012247D02*
X027202Y012247D01*
X027202Y012129D02*
X026656Y012129D01*
X026348Y012129D02*
X026302Y012129D01*
X026286Y012010D02*
X027219Y012010D01*
X027268Y011892D02*
X026236Y011892D01*
X026143Y011773D02*
X027362Y011773D01*
X027535Y011655D02*
X026496Y011655D01*
X026654Y011536D02*
X027851Y011536D01*
X027969Y011655D02*
X028009Y011655D01*
X028143Y011773D02*
X029532Y011773D01*
X028810Y010707D02*
X028577Y010707D01*
X028928Y010588D02*
X021164Y010588D01*
X021282Y010470D02*
X028972Y010470D01*
X028972Y010351D02*
X026901Y010351D01*
X026956Y010296D02*
X026956Y010296D01*
X027019Y010233D02*
X028972Y010233D01*
X028972Y010114D02*
X027138Y010114D01*
X027256Y009996D02*
X028972Y009996D01*
X028972Y009877D02*
X027375Y009877D01*
X027388Y009863D02*
X027388Y009863D01*
X027471Y009759D02*
X028972Y009759D01*
X028972Y009640D02*
X027492Y009640D01*
X027492Y009522D02*
X028972Y009522D01*
X028972Y009403D02*
X027492Y009403D01*
X027492Y009285D02*
X028972Y009285D01*
X028972Y009166D02*
X027492Y009166D01*
X027492Y009048D02*
X028972Y009048D01*
X028972Y008929D02*
X027492Y008929D01*
X027492Y008811D02*
X028972Y008811D01*
X027252Y008164D02*
X027252Y009660D01*
X026752Y010160D01*
X021252Y010160D01*
X020752Y010660D01*
X020752Y020160D01*
X020357Y020542D02*
X019648Y020542D01*
X019739Y020424D02*
X020266Y020424D01*
X020217Y020305D02*
X019788Y020305D01*
X019802Y020187D02*
X020202Y020187D01*
X020202Y020068D02*
X019802Y020068D01*
X019761Y019950D02*
X020244Y019950D01*
X020304Y019831D02*
X019701Y019831D01*
X019583Y019713D02*
X020422Y019713D01*
X020512Y019594D02*
X019658Y019594D01*
X019776Y019476D02*
X020512Y019476D01*
X020512Y019357D02*
X019895Y019357D01*
X020013Y019239D02*
X020512Y019239D01*
X020512Y019120D02*
X020132Y019120D01*
X020250Y019002D02*
X020512Y019002D01*
X020512Y018883D02*
X020369Y018883D01*
X020469Y018765D02*
X020512Y018765D01*
X020512Y018646D02*
X020492Y018646D01*
X020492Y018528D02*
X020512Y018528D01*
X020512Y018409D02*
X020492Y018409D01*
X020492Y018291D02*
X020512Y018291D01*
X020512Y018172D02*
X020492Y018172D01*
X020492Y018054D02*
X020512Y018054D01*
X020512Y017935D02*
X020492Y017935D01*
X020492Y017817D02*
X020512Y017817D01*
X020512Y017698D02*
X020492Y017698D01*
X020492Y017580D02*
X020512Y017580D01*
X020512Y017461D02*
X020492Y017461D01*
X020492Y017343D02*
X020512Y017343D01*
X020512Y017224D02*
X020492Y017224D01*
X020492Y017106D02*
X020512Y017106D01*
X020512Y016987D02*
X020492Y016987D01*
X020492Y016869D02*
X020512Y016869D01*
X020512Y016750D02*
X020492Y016750D01*
X020492Y016632D02*
X020512Y016632D01*
X020512Y016513D02*
X020492Y016513D01*
X020492Y016395D02*
X020512Y016395D01*
X020512Y016276D02*
X020492Y016276D01*
X020492Y016158D02*
X020512Y016158D01*
X020512Y016039D02*
X020492Y016039D01*
X020492Y015921D02*
X020512Y015921D01*
X020512Y015802D02*
X020492Y015802D01*
X020492Y015684D02*
X020512Y015684D01*
X020512Y015565D02*
X020492Y015565D01*
X020492Y015447D02*
X020512Y015447D01*
X020512Y015328D02*
X020492Y015328D01*
X020492Y015210D02*
X020512Y015210D01*
X020512Y015091D02*
X020492Y015091D01*
X020492Y014973D02*
X020512Y014973D01*
X020512Y014854D02*
X020492Y014854D01*
X020492Y014736D02*
X020512Y014736D01*
X020512Y014617D02*
X020492Y014617D01*
X020492Y014499D02*
X020512Y014499D01*
X020512Y014380D02*
X020492Y014380D01*
X020492Y014262D02*
X020512Y014262D01*
X020512Y014143D02*
X020492Y014143D01*
X020492Y014025D02*
X020512Y014025D01*
X020512Y013906D02*
X020492Y013906D01*
X020492Y013788D02*
X020512Y013788D01*
X020512Y013669D02*
X020492Y013669D01*
X020492Y013551D02*
X020512Y013551D01*
X020512Y013432D02*
X020492Y013432D01*
X020492Y013314D02*
X020512Y013314D01*
X020512Y013195D02*
X020492Y013195D01*
X020492Y013077D02*
X020512Y013077D01*
X020512Y012958D02*
X020492Y012958D01*
X020492Y012840D02*
X020512Y012840D01*
X020512Y012721D02*
X020492Y012721D01*
X020492Y012603D02*
X020512Y012603D01*
X020512Y012484D02*
X020492Y012484D01*
X020492Y012366D02*
X020512Y012366D01*
X020512Y012247D02*
X020492Y012247D01*
X020492Y012129D02*
X020512Y012129D01*
X020512Y012010D02*
X020492Y012010D01*
X020492Y011892D02*
X020512Y011892D01*
X020512Y011773D02*
X020492Y011773D01*
X020492Y011655D02*
X020512Y011655D01*
X020512Y011536D02*
X020492Y011536D01*
X020492Y011418D02*
X020512Y011418D01*
X020512Y011299D02*
X020492Y011299D01*
X020492Y011181D02*
X020512Y011181D01*
X020512Y011062D02*
X020492Y011062D01*
X020492Y010944D02*
X020512Y010944D01*
X020512Y010825D02*
X020492Y010825D01*
X020492Y010707D02*
X020512Y010707D01*
X020522Y010588D02*
X020492Y010588D01*
X020492Y010470D02*
X020603Y010470D01*
X020492Y010351D02*
X020722Y010351D01*
X020840Y010233D02*
X020519Y010233D01*
X020638Y010114D02*
X020959Y010114D01*
X021077Y009996D02*
X020756Y009996D01*
X020433Y009640D02*
X019802Y009640D01*
X019802Y009759D02*
X020314Y009759D01*
X020196Y009877D02*
X019758Y009877D01*
X019695Y009996D02*
X020077Y009996D01*
X020012Y010114D02*
X019576Y010114D01*
X019603Y010233D02*
X020012Y010233D01*
X020012Y010351D02*
X019720Y010351D01*
X019769Y010470D02*
X020012Y010470D01*
X020012Y010588D02*
X019802Y010588D01*
X019802Y010707D02*
X020012Y010707D01*
X020012Y010825D02*
X019779Y010825D01*
X019730Y010944D02*
X020012Y010944D01*
X020012Y011062D02*
X019628Y011062D01*
X019479Y011181D02*
X020012Y011181D01*
X020012Y011299D02*
X019641Y011299D01*
X019724Y011418D02*
X020012Y011418D01*
X020012Y011536D02*
X019769Y011536D01*
X019782Y011700D02*
X019782Y011702D01*
X019769Y011784D01*
X019744Y011863D01*
X019706Y011938D01*
X019657Y012005D01*
X019598Y012064D01*
X019530Y012113D01*
X019456Y012151D01*
X019376Y012177D01*
X019294Y012190D01*
X019292Y012190D01*
X019292Y011700D01*
X019782Y011700D01*
X019771Y011773D02*
X020012Y011773D01*
X020012Y011655D02*
X019292Y011655D01*
X019212Y011655D02*
X015492Y011655D01*
X015492Y011773D02*
X018734Y011773D01*
X018735Y011784D02*
X018722Y011702D01*
X018722Y011700D01*
X019212Y011700D01*
X019212Y012190D01*
X019211Y012190D01*
X019128Y012177D01*
X019049Y012151D01*
X018975Y012113D01*
X018907Y012064D01*
X018848Y012005D01*
X018799Y011938D01*
X018761Y011863D01*
X018735Y011784D01*
X018775Y011892D02*
X015492Y011892D01*
X015492Y012010D02*
X018853Y012010D01*
X019004Y012129D02*
X015492Y012129D01*
X015492Y012247D02*
X020012Y012247D01*
X020012Y012129D02*
X019500Y012129D01*
X019652Y012010D02*
X020012Y012010D01*
X020012Y011892D02*
X019729Y011892D01*
X019292Y011892D02*
X019212Y011892D01*
X019212Y012010D02*
X019292Y012010D01*
X019292Y012129D02*
X019212Y012129D01*
X019212Y011773D02*
X019292Y011773D01*
X018735Y011536D02*
X018761Y011457D01*
X018799Y011382D01*
X018864Y011299D02*
X015492Y011299D01*
X015492Y011181D02*
X019026Y011181D01*
X018877Y011062D02*
X015492Y011062D01*
X015492Y010944D02*
X018774Y010944D01*
X018725Y010825D02*
X015492Y010825D01*
X015492Y010707D02*
X018702Y010707D01*
X018702Y010588D02*
X015492Y010588D01*
X015492Y010470D02*
X018736Y010470D01*
X018785Y010351D02*
X015492Y010351D01*
X015492Y010233D02*
X018902Y010233D01*
X018929Y010114D02*
X015492Y010114D01*
X015492Y009996D02*
X018810Y009996D01*
X018747Y009877D02*
X015492Y009877D01*
X015492Y009759D02*
X018702Y009759D01*
X018702Y009640D02*
X015492Y009640D01*
X015530Y009522D02*
X018714Y009522D01*
X018763Y009403D02*
X015649Y009403D01*
X015767Y009285D02*
X018850Y009285D01*
X019790Y009522D02*
X020551Y009522D01*
X021045Y010707D02*
X021928Y010707D01*
X021810Y010825D02*
X020992Y010825D01*
X020992Y010944D02*
X021747Y010944D01*
X021702Y011062D02*
X020992Y011062D01*
X020992Y011181D02*
X021702Y011181D01*
X021715Y011299D02*
X020992Y011299D01*
X020992Y011418D02*
X021764Y011418D01*
X021851Y011536D02*
X020992Y011536D01*
X020992Y011655D02*
X021535Y011655D01*
X021441Y011694D02*
X021643Y011610D01*
X021862Y011610D01*
X022064Y011694D01*
X022219Y011848D01*
X022302Y012051D01*
X022302Y012148D01*
X022393Y012110D01*
X022612Y012110D01*
X022814Y012194D01*
X022969Y012348D01*
X023052Y012551D01*
X023052Y012769D01*
X022969Y012972D01*
X022814Y013126D01*
X022612Y013210D01*
X022393Y013210D01*
X022224Y013140D01*
X021772Y013140D01*
X021772Y013180D01*
X021732Y013180D01*
X021732Y013140D01*
X021222Y013140D01*
X021222Y013118D01*
X021235Y013036D01*
X021261Y012957D01*
X021299Y012882D01*
X021348Y012815D01*
X021407Y012756D01*
X021475Y012707D01*
X021547Y012670D01*
X021441Y012626D01*
X021286Y012472D01*
X021202Y012269D01*
X021202Y012051D01*
X021286Y011848D01*
X021441Y011694D01*
X021362Y011773D02*
X020992Y011773D01*
X020992Y011892D02*
X021268Y011892D01*
X021219Y012010D02*
X020992Y012010D01*
X020992Y012129D02*
X021202Y012129D01*
X021202Y012247D02*
X020992Y012247D01*
X020992Y012366D02*
X021242Y012366D01*
X021299Y012484D02*
X020992Y012484D01*
X020992Y012603D02*
X021417Y012603D01*
X021455Y012721D02*
X020992Y012721D01*
X020992Y012840D02*
X021330Y012840D01*
X021261Y012958D02*
X020992Y012958D01*
X020992Y013077D02*
X021229Y013077D01*
X021222Y013180D02*
X021732Y013180D01*
X021732Y013690D01*
X021711Y013690D01*
X021628Y013677D01*
X021549Y013651D01*
X021475Y013613D01*
X021407Y013564D01*
X021348Y013505D01*
X021299Y013438D01*
X021261Y013363D01*
X021235Y013284D01*
X021222Y013202D01*
X021222Y013180D01*
X021222Y013195D02*
X020992Y013195D01*
X020992Y013314D02*
X021245Y013314D01*
X021296Y013432D02*
X020992Y013432D01*
X020992Y013551D02*
X021393Y013551D01*
X021604Y013669D02*
X020992Y013669D01*
X020992Y013788D02*
X021847Y013788D01*
X021786Y013848D02*
X021941Y013694D01*
X022143Y013610D01*
X022362Y013610D01*
X022564Y013694D01*
X022719Y013848D01*
X022802Y014051D01*
X022802Y014269D01*
X022719Y014472D01*
X022564Y014626D01*
X022362Y014710D01*
X022143Y014710D01*
X021941Y014626D01*
X021786Y014472D01*
X021702Y014269D01*
X021702Y014051D01*
X021786Y013848D01*
X021762Y013906D02*
X020992Y013906D01*
X020992Y014025D02*
X021713Y014025D01*
X021702Y014143D02*
X020992Y014143D01*
X020992Y014262D02*
X021702Y014262D01*
X021748Y014380D02*
X020992Y014380D01*
X020992Y014499D02*
X021813Y014499D01*
X021932Y014617D02*
X020992Y014617D01*
X020992Y014736D02*
X029532Y014736D01*
X029532Y014854D02*
X020992Y014854D01*
X020992Y014973D02*
X029532Y014973D01*
X029532Y015091D02*
X020992Y015091D01*
X020992Y015210D02*
X029532Y015210D01*
X029532Y015328D02*
X020992Y015328D01*
X020992Y015447D02*
X029532Y015447D01*
X029532Y015565D02*
X020992Y015565D01*
X020992Y015684D02*
X029532Y015684D01*
X029532Y015802D02*
X020992Y015802D01*
X020992Y015921D02*
X029532Y015921D01*
X029532Y016039D02*
X020992Y016039D01*
X020992Y016158D02*
X029532Y016158D01*
X029532Y016276D02*
X020992Y016276D01*
X020992Y016395D02*
X029532Y016395D01*
X029532Y016513D02*
X020992Y016513D01*
X020992Y016632D02*
X022091Y016632D01*
X022143Y016610D02*
X021941Y016694D01*
X021786Y016848D01*
X021702Y017051D01*
X021702Y017269D01*
X021786Y017472D01*
X021941Y017626D01*
X022143Y017710D01*
X022362Y017710D01*
X022564Y017626D01*
X022719Y017472D01*
X022802Y017269D01*
X022802Y017051D01*
X022719Y016848D01*
X022564Y016694D01*
X022362Y016610D01*
X022143Y016610D01*
X022414Y016632D02*
X024091Y016632D01*
X024143Y016610D02*
X024362Y016610D01*
X024564Y016694D01*
X024719Y016848D01*
X024802Y017051D01*
X024802Y017269D01*
X024719Y017472D01*
X024564Y017626D01*
X024362Y017710D01*
X024143Y017710D01*
X023941Y017626D01*
X023786Y017472D01*
X023702Y017269D01*
X023702Y017051D01*
X023786Y016848D01*
X023941Y016694D01*
X024143Y016610D01*
X024414Y016632D02*
X026091Y016632D01*
X026143Y016610D02*
X026362Y016610D01*
X026564Y016694D01*
X026719Y016848D01*
X026802Y017051D01*
X026802Y017269D01*
X026719Y017472D01*
X026564Y017626D01*
X026362Y017710D01*
X026143Y017710D01*
X025941Y017626D01*
X025786Y017472D01*
X025702Y017269D01*
X025702Y017051D01*
X025786Y016848D01*
X025941Y016694D01*
X026143Y016610D01*
X026414Y016632D02*
X028091Y016632D01*
X028143Y016610D02*
X027941Y016694D01*
X027786Y016848D01*
X027702Y017051D01*
X027702Y017269D01*
X027786Y017472D01*
X027941Y017626D01*
X028143Y017710D01*
X028362Y017710D01*
X028564Y017626D01*
X028719Y017472D01*
X028802Y017269D01*
X028802Y017051D01*
X028719Y016848D01*
X028564Y016694D01*
X028362Y016610D01*
X028143Y016610D01*
X028414Y016632D02*
X029532Y016632D01*
X029532Y016750D02*
X028620Y016750D01*
X028727Y016869D02*
X029532Y016869D01*
X029532Y016987D02*
X028776Y016987D01*
X028802Y017106D02*
X029532Y017106D01*
X029532Y017224D02*
X028802Y017224D01*
X028772Y017343D02*
X029532Y017343D01*
X029532Y017461D02*
X028723Y017461D01*
X028611Y017580D02*
X029532Y017580D01*
X029532Y017698D02*
X028391Y017698D01*
X028114Y017698D02*
X026391Y017698D01*
X026611Y017580D02*
X027894Y017580D01*
X027782Y017461D02*
X026723Y017461D01*
X026772Y017343D02*
X027733Y017343D01*
X027702Y017224D02*
X026802Y017224D01*
X026802Y017106D02*
X027702Y017106D01*
X027729Y016987D02*
X026776Y016987D01*
X026727Y016869D02*
X027778Y016869D01*
X027885Y016750D02*
X026620Y016750D01*
X025885Y016750D02*
X024620Y016750D01*
X024727Y016869D02*
X025778Y016869D01*
X025729Y016987D02*
X024776Y016987D01*
X024802Y017106D02*
X025702Y017106D01*
X025702Y017224D02*
X024802Y017224D01*
X024772Y017343D02*
X025733Y017343D01*
X025782Y017461D02*
X024723Y017461D01*
X024611Y017580D02*
X025894Y017580D01*
X026114Y017698D02*
X024391Y017698D01*
X024114Y017698D02*
X022391Y017698D01*
X022611Y017580D02*
X023894Y017580D01*
X023782Y017461D02*
X022723Y017461D01*
X022772Y017343D02*
X023733Y017343D01*
X023702Y017224D02*
X022802Y017224D01*
X022802Y017106D02*
X023702Y017106D01*
X023729Y016987D02*
X022776Y016987D01*
X022727Y016869D02*
X023778Y016869D01*
X023885Y016750D02*
X022620Y016750D01*
X021885Y016750D02*
X020992Y016750D01*
X020992Y016869D02*
X021778Y016869D01*
X021729Y016987D02*
X020992Y016987D01*
X020992Y017106D02*
X021702Y017106D01*
X021702Y017224D02*
X020992Y017224D01*
X020992Y017343D02*
X021733Y017343D01*
X021782Y017461D02*
X020992Y017461D01*
X020992Y017580D02*
X021894Y017580D01*
X022114Y017698D02*
X020992Y017698D01*
X020992Y017817D02*
X029532Y017817D01*
X029532Y017935D02*
X020992Y017935D01*
X020992Y018054D02*
X029532Y018054D01*
X029532Y018172D02*
X020992Y018172D01*
X020992Y018291D02*
X029532Y018291D01*
X029532Y018409D02*
X020992Y018409D01*
X020992Y018528D02*
X029532Y018528D01*
X029532Y018646D02*
X020992Y018646D01*
X020992Y018765D02*
X029532Y018765D01*
X029532Y018883D02*
X020992Y018883D01*
X020992Y019002D02*
X029532Y019002D01*
X029532Y019120D02*
X020992Y019120D01*
X020992Y019239D02*
X029532Y019239D01*
X029532Y019357D02*
X020992Y019357D01*
X020992Y019476D02*
X029532Y019476D01*
X029532Y019594D02*
X020992Y019594D01*
X021083Y019713D02*
X021422Y019713D01*
X021304Y019831D02*
X021201Y019831D01*
X021239Y020424D02*
X021266Y020424D01*
X021357Y020542D02*
X021148Y020542D01*
X020981Y020661D02*
X021524Y020661D01*
X021981Y020661D02*
X022524Y020661D01*
X022357Y020542D02*
X022148Y020542D01*
X022239Y020424D02*
X022266Y020424D01*
X022981Y020661D02*
X023524Y020661D01*
X023357Y020542D02*
X023148Y020542D01*
X023239Y020424D02*
X023266Y020424D01*
X023304Y019831D02*
X023201Y019831D01*
X023083Y019713D02*
X023422Y019713D01*
X024083Y019713D02*
X024422Y019713D01*
X024304Y019831D02*
X024201Y019831D01*
X024239Y020424D02*
X024266Y020424D01*
X024357Y020542D02*
X024148Y020542D01*
X023981Y020661D02*
X024524Y020661D01*
X024981Y020661D02*
X025524Y020661D01*
X025357Y020542D02*
X025148Y020542D01*
X025239Y020424D02*
X025266Y020424D01*
X025981Y020661D02*
X026524Y020661D01*
X026357Y020542D02*
X026148Y020542D01*
X026239Y020424D02*
X026266Y020424D01*
X026304Y019831D02*
X026201Y019831D01*
X026083Y019713D02*
X026422Y019713D01*
X027083Y019713D02*
X027422Y019713D01*
X027304Y019831D02*
X027201Y019831D01*
X027239Y020424D02*
X027266Y020424D01*
X027357Y020542D02*
X027148Y020542D01*
X026981Y020661D02*
X027524Y020661D01*
X027981Y020661D02*
X028941Y020661D01*
X028822Y020779D02*
X007183Y020779D01*
X007301Y020898D02*
X028704Y020898D01*
X029059Y020542D02*
X028148Y020542D01*
X028239Y020424D02*
X029178Y020424D01*
X029296Y020305D02*
X028288Y020305D01*
X028302Y020187D02*
X029415Y020187D01*
X029532Y020068D02*
X028302Y020068D01*
X028261Y019950D02*
X029532Y019950D01*
X029532Y019831D02*
X028201Y019831D01*
X028083Y019713D02*
X029532Y019713D01*
X025422Y019713D02*
X025083Y019713D01*
X025201Y019831D02*
X025304Y019831D01*
X022422Y019713D02*
X022083Y019713D01*
X022201Y019831D02*
X022304Y019831D01*
X020524Y020661D02*
X019481Y020661D01*
X018804Y019831D02*
X018701Y019831D01*
X018583Y019713D02*
X018922Y019713D01*
X019020Y019594D02*
X015492Y019594D01*
X015492Y019476D02*
X019097Y019476D01*
X019216Y019357D02*
X015492Y019357D01*
X015492Y019239D02*
X019334Y019239D01*
X019453Y019120D02*
X015492Y019120D01*
X015492Y019002D02*
X019571Y019002D01*
X019690Y018883D02*
X015492Y018883D01*
X015492Y018765D02*
X019808Y018765D01*
X019927Y018646D02*
X015492Y018646D01*
X015492Y018528D02*
X020012Y018528D01*
X020012Y018409D02*
X015492Y018409D01*
X015492Y018291D02*
X020012Y018291D01*
X020012Y018172D02*
X015492Y018172D01*
X015492Y018054D02*
X020012Y018054D01*
X020012Y017935D02*
X015492Y017935D01*
X015492Y017817D02*
X020012Y017817D01*
X020012Y017698D02*
X015492Y017698D01*
X015492Y017580D02*
X020012Y017580D01*
X020012Y017461D02*
X015492Y017461D01*
X015492Y017343D02*
X020012Y017343D01*
X020012Y017224D02*
X015492Y017224D01*
X015492Y017106D02*
X020012Y017106D01*
X020012Y016987D02*
X015492Y016987D01*
X015492Y016869D02*
X020012Y016869D01*
X020012Y016750D02*
X015492Y016750D01*
X015492Y016632D02*
X020012Y016632D01*
X020012Y016513D02*
X015492Y016513D01*
X015492Y016395D02*
X020012Y016395D01*
X020012Y016276D02*
X015492Y016276D01*
X015492Y016158D02*
X019016Y016158D01*
X018941Y016126D02*
X018786Y015972D01*
X018702Y015769D01*
X018702Y015551D01*
X018786Y015348D01*
X018941Y015194D01*
X019047Y015150D01*
X018975Y015113D01*
X018907Y015064D01*
X018848Y015005D01*
X018799Y014938D01*
X018761Y014863D01*
X018735Y014784D01*
X018722Y014702D01*
X018722Y014700D01*
X019212Y014700D01*
X019212Y014620D01*
X018722Y014620D01*
X018722Y014618D01*
X018735Y014536D01*
X018761Y014457D01*
X018799Y014382D01*
X018848Y014315D01*
X018907Y014256D01*
X018975Y014207D01*
X019049Y014169D01*
X019128Y014143D01*
X019211Y014130D01*
X019212Y014130D01*
X019212Y014620D01*
X019292Y014620D01*
X019292Y014130D01*
X019294Y014130D01*
X019376Y014143D01*
X020012Y014143D01*
X020012Y014025D02*
X015492Y014025D01*
X015492Y014143D02*
X019128Y014143D01*
X019212Y014143D02*
X019292Y014143D01*
X019376Y014143D02*
X019456Y014169D01*
X019530Y014207D01*
X019598Y014256D01*
X019657Y014315D01*
X019706Y014382D01*
X019744Y014457D01*
X019769Y014536D01*
X019782Y014618D01*
X019782Y014620D01*
X019292Y014620D01*
X019292Y014700D01*
X019782Y014700D01*
X019782Y014702D01*
X019769Y014784D01*
X019744Y014863D01*
X019706Y014938D01*
X019657Y015005D01*
X019598Y015064D01*
X019530Y015113D01*
X019458Y015150D01*
X019564Y015194D01*
X019719Y015348D01*
X019802Y015551D01*
X019802Y015769D01*
X019719Y015972D01*
X019564Y016126D01*
X019362Y016210D01*
X019143Y016210D01*
X018941Y016126D01*
X018854Y016039D02*
X015492Y016039D01*
X015492Y015921D02*
X018765Y015921D01*
X018716Y015802D02*
X015492Y015802D01*
X015492Y015684D02*
X018702Y015684D01*
X018702Y015565D02*
X015492Y015565D01*
X015492Y015447D02*
X018745Y015447D01*
X018807Y015328D02*
X015492Y015328D01*
X015492Y015210D02*
X018925Y015210D01*
X018944Y015091D02*
X015492Y015091D01*
X015492Y014973D02*
X018824Y014973D01*
X018758Y014854D02*
X015492Y014854D01*
X015492Y014736D02*
X018728Y014736D01*
X018723Y014617D02*
X015492Y014617D01*
X015492Y014499D02*
X018748Y014499D01*
X018801Y014380D02*
X015492Y014380D01*
X015492Y014262D02*
X018901Y014262D01*
X019212Y014262D02*
X019292Y014262D01*
X019292Y014380D02*
X019212Y014380D01*
X019212Y014499D02*
X019292Y014499D01*
X019292Y014617D02*
X019212Y014617D01*
X019704Y014380D02*
X020012Y014380D01*
X020012Y014262D02*
X019603Y014262D01*
X019757Y014499D02*
X020012Y014499D01*
X020012Y014617D02*
X019782Y014617D01*
X019777Y014736D02*
X020012Y014736D01*
X020012Y014854D02*
X019747Y014854D01*
X019680Y014973D02*
X020012Y014973D01*
X020012Y015091D02*
X019561Y015091D01*
X019580Y015210D02*
X020012Y015210D01*
X020012Y015328D02*
X019698Y015328D01*
X019759Y015447D02*
X020012Y015447D01*
X020012Y015565D02*
X019802Y015565D01*
X019802Y015684D02*
X020012Y015684D01*
X020012Y015802D02*
X019789Y015802D01*
X019740Y015921D02*
X020012Y015921D01*
X020012Y016039D02*
X019651Y016039D01*
X019488Y016158D02*
X020012Y016158D01*
X022573Y014617D02*
X023932Y014617D01*
X023941Y014626D02*
X023786Y014472D01*
X023702Y014269D01*
X023702Y014051D01*
X023786Y013848D01*
X023941Y013694D01*
X024143Y013610D01*
X024362Y013610D01*
X024564Y013694D01*
X024719Y013848D01*
X024802Y014051D01*
X024802Y014269D01*
X024719Y014472D01*
X024564Y014626D01*
X024362Y014710D01*
X024143Y014710D01*
X023941Y014626D01*
X023813Y014499D02*
X022692Y014499D01*
X022757Y014380D02*
X023748Y014380D01*
X023702Y014262D02*
X022802Y014262D01*
X022802Y014143D02*
X023702Y014143D01*
X023713Y014025D02*
X022792Y014025D01*
X022742Y013906D02*
X023762Y013906D01*
X023847Y013788D02*
X022658Y013788D01*
X022504Y013669D02*
X023604Y013669D01*
X023628Y013677D02*
X023549Y013651D01*
X023475Y013613D01*
X023407Y013564D01*
X023348Y013505D01*
X023299Y013438D01*
X023261Y013363D01*
X023235Y013284D01*
X023222Y013202D01*
X023222Y013180D01*
X023732Y013180D01*
X023732Y013140D01*
X023222Y013140D01*
X023222Y013118D01*
X023235Y013036D01*
X023261Y012957D01*
X023299Y012882D01*
X023348Y012815D01*
X023407Y012756D01*
X023475Y012707D01*
X023547Y012670D01*
X023441Y012626D01*
X023286Y012472D01*
X023202Y012269D01*
X023202Y012051D01*
X023286Y011848D01*
X023441Y011694D01*
X023643Y011610D01*
X023862Y011610D01*
X024064Y011694D01*
X024219Y011848D01*
X024302Y012051D01*
X024302Y012148D01*
X024393Y012110D01*
X024612Y012110D01*
X024814Y012194D01*
X024969Y012348D01*
X025052Y012551D01*
X025052Y012769D01*
X024969Y012972D01*
X024814Y013126D01*
X024612Y013210D01*
X024393Y013210D01*
X024224Y013140D01*
X023772Y013140D01*
X023772Y013180D01*
X023732Y013180D01*
X023732Y013690D01*
X023711Y013690D01*
X023628Y013677D01*
X023732Y013669D02*
X023772Y013669D01*
X023772Y013690D02*
X023772Y013180D01*
X024282Y013180D01*
X024282Y013202D01*
X024269Y013284D01*
X024244Y013363D01*
X024206Y013438D01*
X024157Y013505D01*
X024098Y013564D01*
X024030Y013613D01*
X023956Y013651D01*
X023876Y013677D01*
X023794Y013690D01*
X023772Y013690D01*
X023901Y013669D02*
X024000Y013669D01*
X024111Y013551D02*
X025393Y013551D01*
X025407Y013564D02*
X025348Y013505D01*
X025299Y013438D01*
X025261Y013363D01*
X025235Y013284D01*
X025222Y013202D01*
X025222Y013180D01*
X025732Y013180D01*
X025732Y013690D01*
X025711Y013690D01*
X025628Y013677D01*
X025549Y013651D01*
X025475Y013613D01*
X025407Y013564D01*
X025296Y013432D02*
X024209Y013432D01*
X024260Y013314D02*
X025245Y013314D01*
X025222Y013195D02*
X024648Y013195D01*
X024864Y013077D02*
X025229Y013077D01*
X025261Y012958D02*
X024974Y012958D01*
X025023Y012840D02*
X025330Y012840D01*
X025455Y012721D02*
X025052Y012721D01*
X025052Y012603D02*
X025417Y012603D01*
X025299Y012484D02*
X025025Y012484D01*
X024976Y012366D02*
X025242Y012366D01*
X025202Y012247D02*
X024867Y012247D01*
X024656Y012129D02*
X025202Y012129D01*
X025219Y012010D02*
X024286Y012010D01*
X024302Y012129D02*
X024348Y012129D01*
X024236Y011892D02*
X025268Y011892D01*
X025362Y011773D02*
X024143Y011773D01*
X024009Y011655D02*
X023969Y011655D01*
X023851Y011536D02*
X022654Y011536D01*
X022496Y011655D02*
X023535Y011655D01*
X023362Y011773D02*
X022143Y011773D01*
X022236Y011892D02*
X023268Y011892D01*
X023219Y012010D02*
X022286Y012010D01*
X022302Y012129D02*
X022348Y012129D01*
X022656Y012129D02*
X023202Y012129D01*
X023202Y012247D02*
X022867Y012247D01*
X022976Y012366D02*
X023242Y012366D01*
X023299Y012484D02*
X023025Y012484D01*
X023052Y012603D02*
X023417Y012603D01*
X023455Y012721D02*
X023052Y012721D01*
X023023Y012840D02*
X023330Y012840D01*
X023261Y012958D02*
X022974Y012958D01*
X022864Y013077D02*
X023229Y013077D01*
X023222Y013195D02*
X022648Y013195D01*
X022357Y013195D02*
X022282Y013195D01*
X022282Y013202D02*
X022269Y013284D01*
X022244Y013363D01*
X022206Y013438D01*
X022157Y013505D01*
X022098Y013564D01*
X022030Y013613D01*
X021956Y013651D01*
X021876Y013677D01*
X021794Y013690D01*
X021772Y013690D01*
X021772Y013180D01*
X022282Y013180D01*
X022282Y013202D01*
X022260Y013314D02*
X023245Y013314D01*
X023296Y013432D02*
X022209Y013432D01*
X022111Y013551D02*
X023393Y013551D01*
X023732Y013551D02*
X023772Y013551D01*
X023772Y013432D02*
X023732Y013432D01*
X023732Y013314D02*
X023772Y013314D01*
X023772Y013195D02*
X023732Y013195D01*
X024282Y013195D02*
X024357Y013195D01*
X024504Y013669D02*
X025604Y013669D01*
X025732Y013669D02*
X025772Y013669D01*
X025772Y013551D02*
X025732Y013551D01*
X025732Y013432D02*
X025772Y013432D01*
X025772Y013314D02*
X025732Y013314D01*
X025732Y013195D02*
X025772Y013195D01*
X026111Y013551D02*
X027393Y013551D01*
X027732Y013551D02*
X027772Y013551D01*
X027772Y013432D02*
X027732Y013432D01*
X027732Y013314D02*
X027772Y013314D01*
X027772Y013195D02*
X027732Y013195D01*
X026000Y013669D02*
X025901Y013669D01*
X025847Y013788D02*
X024658Y013788D01*
X024742Y013906D02*
X025762Y013906D01*
X025713Y014025D02*
X024792Y014025D01*
X024802Y014143D02*
X025702Y014143D01*
X025702Y014262D02*
X024802Y014262D01*
X024757Y014380D02*
X025748Y014380D01*
X025813Y014499D02*
X024692Y014499D01*
X024573Y014617D02*
X025932Y014617D01*
X022000Y013669D02*
X021901Y013669D01*
X021772Y013669D02*
X021732Y013669D01*
X021732Y013551D02*
X021772Y013551D01*
X021772Y013432D02*
X021732Y013432D01*
X021732Y013314D02*
X021772Y013314D01*
X021772Y013195D02*
X021732Y013195D01*
X020012Y013195D02*
X015492Y013195D01*
X015492Y013077D02*
X020012Y013077D01*
X020012Y012958D02*
X015492Y012958D01*
X015492Y012840D02*
X020012Y012840D01*
X020012Y012721D02*
X015492Y012721D01*
X015492Y012603D02*
X020012Y012603D01*
X020012Y012484D02*
X015492Y012484D01*
X015492Y012366D02*
X020012Y012366D01*
X020012Y013314D02*
X015492Y013314D01*
X015492Y013432D02*
X020012Y013432D01*
X020012Y013551D02*
X015492Y013551D01*
X015492Y013669D02*
X020012Y013669D01*
X020012Y013788D02*
X015492Y013788D01*
X015492Y013906D02*
X020012Y013906D01*
X021969Y011655D02*
X022009Y011655D01*
X022695Y010825D02*
X023810Y010825D01*
X023928Y010707D02*
X022577Y010707D01*
X024496Y011655D02*
X025535Y011655D01*
X025851Y011536D02*
X024654Y011536D01*
X024695Y010825D02*
X025810Y010825D01*
X025928Y010707D02*
X024577Y010707D01*
X025969Y011655D02*
X026009Y011655D01*
X026695Y010825D02*
X027810Y010825D01*
X027928Y010707D02*
X026577Y010707D01*
X024100Y008692D02*
X023064Y008692D01*
X023182Y008574D02*
X023888Y008574D01*
X023779Y008455D02*
X023301Y008455D01*
X023419Y008337D02*
X023730Y008337D01*
X023702Y008218D02*
X023538Y008218D01*
X023656Y008100D02*
X023702Y008100D01*
X023333Y007744D02*
X022614Y007744D01*
X022724Y007863D02*
X023214Y007863D01*
X023096Y007981D02*
X022774Y007981D01*
X022802Y008100D02*
X022977Y008100D01*
X022859Y008218D02*
X022802Y008218D01*
X022399Y007626D02*
X023451Y007626D01*
X023570Y007507D02*
X022249Y007507D01*
X022711Y007389D02*
X023688Y007389D01*
X023807Y007270D02*
X022853Y007270D01*
X021969Y007033D02*
X012492Y007033D01*
X012492Y006915D02*
X021969Y006915D01*
X021990Y006796D02*
X012492Y006796D01*
X012492Y006678D02*
X022039Y006678D01*
X022150Y006559D02*
X012492Y006559D01*
X012492Y006441D02*
X022044Y006441D01*
X021995Y006322D02*
X012492Y006322D01*
X012492Y006204D02*
X021969Y006204D01*
X021969Y006085D02*
X012492Y006085D01*
X012492Y005967D02*
X022008Y005967D01*
X022074Y005848D02*
X012492Y005848D01*
X012492Y005730D02*
X022119Y005730D01*
X022026Y005611D02*
X012492Y005611D01*
X012492Y005493D02*
X021977Y005493D01*
X021969Y005374D02*
X012492Y005374D01*
X012492Y005256D02*
X021976Y005256D01*
X022025Y005137D02*
X012492Y005137D01*
X012492Y005019D02*
X022116Y005019D01*
X021925Y007152D02*
X012492Y007152D01*
X012492Y007270D02*
X021807Y007270D01*
X021688Y007389D02*
X012492Y007389D01*
X012492Y007507D02*
X021570Y007507D01*
X021451Y007626D02*
X012492Y007626D01*
X012492Y007744D02*
X021333Y007744D01*
X021214Y007863D02*
X012492Y007863D01*
X014252Y008660D02*
X014752Y008160D01*
X014252Y008660D02*
X014252Y020160D01*
X013857Y020542D02*
X013620Y020542D01*
X013713Y020424D02*
X013766Y020424D01*
X014024Y020661D02*
X013427Y020661D01*
X013292Y020661D02*
X013212Y020661D01*
X013212Y020542D02*
X013292Y020542D01*
X013292Y020424D02*
X013212Y020424D01*
X013212Y020305D02*
X013292Y020305D01*
X013292Y020068D02*
X013212Y020068D01*
X013212Y019950D02*
X013292Y019950D01*
X013292Y019831D02*
X013212Y019831D01*
X013212Y019713D02*
X013292Y019713D01*
X013538Y019713D02*
X013922Y019713D01*
X014012Y019594D02*
X006472Y019594D01*
X006472Y019476D02*
X014012Y019476D01*
X014012Y019357D02*
X006472Y019357D01*
X006472Y019239D02*
X014012Y019239D01*
X014012Y019120D02*
X006472Y019120D01*
X006472Y019002D02*
X014012Y019002D01*
X014012Y018883D02*
X006472Y018883D01*
X006472Y018765D02*
X014012Y018765D01*
X014012Y018646D02*
X006472Y018646D01*
X006472Y018528D02*
X014012Y018528D01*
X014012Y018409D02*
X006472Y018409D01*
X006472Y018291D02*
X014012Y018291D01*
X014012Y018172D02*
X006472Y018172D01*
X006472Y018054D02*
X014012Y018054D01*
X014012Y017935D02*
X006472Y017935D01*
X006472Y017817D02*
X014012Y017817D01*
X014012Y017698D02*
X006472Y017698D01*
X006472Y017580D02*
X014012Y017580D01*
X014012Y017461D02*
X006472Y017461D01*
X006472Y017343D02*
X014012Y017343D01*
X014012Y017224D02*
X006472Y017224D01*
X006472Y017106D02*
X014012Y017106D01*
X014012Y016987D02*
X006472Y016987D01*
X006472Y016869D02*
X014012Y016869D01*
X014012Y016750D02*
X006472Y016750D01*
X006472Y016632D02*
X014012Y016632D01*
X014012Y016513D02*
X006472Y016513D01*
X006472Y016395D02*
X014012Y016395D01*
X013804Y019831D02*
X013668Y019831D01*
X013740Y019950D02*
X013744Y019950D01*
X012967Y019713D02*
X012583Y019713D01*
X012701Y019831D02*
X012836Y019831D01*
X012765Y019950D02*
X012761Y019950D01*
X012739Y020424D02*
X012792Y020424D01*
X012885Y020542D02*
X012648Y020542D01*
X012481Y020661D02*
X013078Y020661D01*
X012024Y020661D02*
X007064Y020661D01*
X006946Y020542D02*
X007668Y020542D01*
X007679Y020553D02*
X007610Y020484D01*
X007572Y020394D01*
X007572Y020200D01*
X007570Y020191D01*
X007572Y020151D01*
X007572Y020111D01*
X007576Y020103D01*
X007576Y020095D01*
X007572Y020085D01*
X007572Y019988D01*
X007610Y019898D01*
X007740Y019767D01*
X007830Y019730D01*
X008051Y019730D01*
X008127Y019761D01*
X008141Y019767D01*
X008141Y019767D01*
X008141Y019767D01*
X008203Y019829D01*
X008203Y019829D01*
X008271Y019897D01*
X008272Y019898D01*
X008279Y019915D01*
X008523Y019915D01*
X008530Y019898D01*
X008592Y019836D01*
X008661Y019767D01*
X008751Y019730D01*
X008972Y019730D01*
X009046Y019760D01*
X009062Y019767D01*
X009062Y019767D01*
X009124Y019829D01*
X009193Y019898D01*
X009200Y019915D01*
X009419Y019915D01*
X009451Y019836D01*
X009520Y019767D01*
X009610Y019730D01*
X009955Y019730D01*
X010043Y019767D01*
X010132Y019730D01*
X010353Y019730D01*
X010429Y019761D01*
X010443Y019767D01*
X010443Y019767D01*
X010443Y019767D01*
X010505Y019829D01*
X010573Y019897D01*
X010574Y019898D01*
X010596Y019950D01*
X010611Y019988D01*
X010611Y020147D01*
X010606Y020160D01*
X010611Y020173D01*
X010611Y020332D01*
X010574Y020422D01*
X010505Y020491D01*
X010443Y020553D01*
X010353Y020590D01*
X010132Y020590D01*
X010096Y020575D01*
X010042Y020553D01*
X009982Y020492D01*
X009921Y020553D01*
X009831Y020590D01*
X009734Y020590D01*
X009644Y020553D01*
X009575Y020484D01*
X009495Y020405D01*
X009494Y020405D01*
X009226Y020405D01*
X009226Y020411D01*
X009182Y020498D01*
X009109Y020562D01*
X009016Y020593D01*
X008919Y020586D01*
X008760Y020507D01*
X008723Y020491D01*
X008716Y020485D01*
X008708Y020481D01*
X008682Y020451D01*
X008618Y020387D01*
X008573Y020405D01*
X008305Y020405D01*
X008272Y020484D01*
X008203Y020553D01*
X008113Y020590D01*
X007769Y020590D01*
X007679Y020553D01*
X007585Y020424D02*
X006827Y020424D01*
X006709Y020305D02*
X007572Y020305D01*
X007570Y020187D02*
X006590Y020187D01*
X006472Y020068D02*
X007572Y020068D01*
X007588Y019950D02*
X006472Y019950D01*
X006472Y019831D02*
X007677Y019831D01*
X008205Y019831D02*
X008597Y019831D01*
X008272Y019898D02*
X008272Y019898D01*
X008297Y020424D02*
X008655Y020424D01*
X008831Y020542D02*
X008214Y020542D01*
X009132Y020542D02*
X009633Y020542D01*
X009514Y020424D02*
X009220Y020424D01*
X009126Y019831D02*
X009456Y019831D01*
X009124Y019829D02*
X009124Y019829D01*
X009062Y019767D02*
X009062Y019767D01*
X009932Y020542D02*
X010031Y020542D01*
X010454Y020542D02*
X011857Y020542D01*
X011766Y020424D02*
X010573Y020424D01*
X010611Y020305D02*
X011717Y020305D01*
X011702Y020187D02*
X010611Y020187D01*
X010611Y020068D02*
X011702Y020068D01*
X011744Y019950D02*
X010595Y019950D01*
X010574Y019898D02*
X010574Y019898D01*
X010574Y019898D01*
X010507Y019831D02*
X011804Y019831D01*
X011922Y019713D02*
X006472Y019713D01*
X010505Y019829D02*
X010505Y019829D01*
X014481Y020661D02*
X015024Y020661D01*
X014857Y020542D02*
X014648Y020542D01*
X014739Y020424D02*
X014766Y020424D01*
X015583Y019713D02*
X015922Y019713D01*
X015804Y019831D02*
X015701Y019831D01*
X012292Y012129D02*
X012212Y012129D01*
X012212Y012010D02*
X012292Y012010D01*
X012292Y011892D02*
X012212Y011892D01*
X012212Y011773D02*
X012292Y011773D01*
X012004Y012129D02*
X006472Y012129D01*
X006472Y012010D02*
X011853Y012010D01*
X011775Y011892D02*
X006472Y011892D01*
X008560Y008692D02*
X010600Y008692D01*
X010388Y008574D02*
X008678Y008574D01*
X008797Y008455D02*
X010279Y008455D01*
X010391Y007744D02*
X006472Y007744D01*
X006472Y007626D02*
X010440Y007626D01*
X010259Y006915D02*
X008846Y006915D01*
X008728Y006796D02*
X010339Y006796D01*
X010480Y006678D02*
X008609Y006678D01*
X010530Y004663D02*
X006472Y004663D01*
X006472Y004545D02*
X010359Y004545D01*
X010267Y004426D02*
X006472Y004426D01*
X006472Y004308D02*
X010218Y004308D01*
X010202Y004189D02*
X006472Y004189D01*
X006472Y004071D02*
X010202Y004071D01*
X010243Y003952D02*
X006472Y003952D01*
X006472Y003834D02*
X010301Y003834D01*
X010420Y003715D02*
X006472Y003715D01*
X006472Y003597D02*
X010512Y003597D01*
X010512Y003478D02*
X006472Y003478D01*
X006472Y003360D02*
X010512Y003360D01*
X010512Y003241D02*
X006472Y003241D01*
X006472Y003123D02*
X010512Y003123D01*
X010512Y003004D02*
X006472Y003004D01*
X006472Y002886D02*
X010512Y002886D01*
X010512Y002767D02*
X006472Y002767D01*
X006472Y002649D02*
X010512Y002649D01*
X010546Y002530D02*
X006472Y002530D01*
X006472Y002412D02*
X010661Y002412D01*
X010780Y002293D02*
X006472Y002293D01*
X006472Y002175D02*
X010898Y002175D01*
X011017Y002056D02*
X006472Y002056D01*
X006472Y001938D02*
X011162Y001938D01*
X011252Y002160D02*
X010752Y002660D01*
X010752Y004160D01*
X012492Y004189D02*
X017372Y004189D01*
X017378Y004071D02*
X012492Y004071D01*
X012492Y003952D02*
X017427Y003952D01*
X017548Y003834D02*
X012492Y003834D01*
X012492Y003715D02*
X029532Y003715D01*
X029532Y003597D02*
X012492Y003597D01*
X012492Y003478D02*
X029532Y003478D01*
X029532Y003360D02*
X012492Y003360D01*
X012511Y003241D02*
X029532Y003241D01*
X029532Y003123D02*
X012629Y003123D01*
X012748Y003004D02*
X029532Y003004D01*
X029532Y002886D02*
X023335Y002886D01*
X023485Y002767D02*
X029532Y002767D01*
X029532Y002649D02*
X023603Y002649D01*
X023722Y002530D02*
X029532Y002530D01*
X029532Y002412D02*
X023840Y002412D01*
X023957Y002293D02*
X029532Y002293D01*
X029532Y002175D02*
X023992Y002175D01*
X023992Y002056D02*
X029532Y002056D01*
X029532Y001938D02*
X023992Y001938D01*
X023752Y002160D02*
X023252Y002660D01*
X012752Y002660D01*
X011252Y002160D02*
X022252Y002160D01*
X022752Y001660D01*
X022397Y001582D02*
X021108Y001582D01*
X021222Y001464D02*
X022283Y001464D01*
X022234Y001345D02*
X021271Y001345D01*
X021302Y001227D02*
X022202Y001227D01*
X022202Y001108D02*
X021302Y001108D01*
X021277Y000990D02*
X022228Y000990D01*
X022277Y000871D02*
X021228Y000871D01*
X021123Y000753D02*
X022382Y000753D01*
X022585Y000634D02*
X020920Y000634D01*
X023752Y001160D02*
X023752Y002160D01*
X024885Y001701D02*
X025620Y001701D01*
X025397Y001582D02*
X025108Y001582D01*
X025222Y001464D02*
X025283Y001464D01*
X025277Y000871D02*
X025228Y000871D01*
X025123Y000753D02*
X025382Y000753D01*
X025585Y000634D02*
X024920Y000634D01*
X025920Y000634D02*
X026585Y000634D01*
X026382Y000753D02*
X026123Y000753D01*
X026228Y000871D02*
X026277Y000871D01*
X026283Y001464D02*
X026222Y001464D01*
X026108Y001582D02*
X026397Y001582D01*
X026620Y001701D02*
X025885Y001701D01*
X026885Y001701D02*
X027620Y001701D01*
X027397Y001582D02*
X027108Y001582D01*
X027222Y001464D02*
X027283Y001464D01*
X027277Y000871D02*
X027228Y000871D01*
X027123Y000753D02*
X027382Y000753D01*
X027585Y000634D02*
X026920Y000634D01*
X028678Y000397D02*
X007326Y000397D01*
X012492Y004308D02*
X017402Y004308D01*
X017481Y004426D02*
X012492Y004426D01*
X017957Y003834D02*
X029532Y003834D01*
X029532Y003952D02*
X028940Y003952D01*
X029059Y004071D02*
X029532Y004071D01*
X029532Y004189D02*
X029177Y004189D01*
X029296Y004308D02*
X029532Y004308D01*
X029532Y004426D02*
X029414Y004426D01*
X029508Y004545D02*
X029532Y004545D01*
X029532Y004663D02*
X029532Y004663D01*
X029532Y004782D02*
X029532Y004782D01*
X029532Y004900D02*
X029532Y004900D01*
X029532Y005019D02*
X029532Y005019D01*
X029532Y005137D02*
X029532Y005137D01*
X029532Y005256D02*
X029532Y005256D01*
X029532Y005374D02*
X029532Y005374D01*
X029532Y005493D02*
X029532Y005493D01*
X029532Y005611D02*
X029532Y005611D01*
X029532Y005730D02*
X029532Y005730D01*
X029532Y005848D02*
X029532Y005848D01*
X029532Y005967D02*
X029532Y005967D01*
X029532Y006085D02*
X029532Y006085D01*
X029532Y006204D02*
X029532Y006204D01*
X029532Y006322D02*
X029532Y006322D01*
X029532Y006441D02*
X029532Y006441D01*
X029532Y006559D02*
X029532Y006559D01*
X029532Y006678D02*
X029532Y006678D01*
X029532Y006796D02*
X029532Y006796D01*
X014012Y009996D02*
X012695Y009996D01*
X012576Y010114D02*
X014012Y010114D01*
X014012Y010233D02*
X012603Y010233D01*
X012720Y010351D02*
X014012Y010351D01*
X014012Y010470D02*
X012769Y010470D01*
X012802Y010588D02*
X014012Y010588D01*
X014012Y010707D02*
X012802Y010707D01*
X012779Y010825D02*
X014012Y010825D01*
X014012Y010944D02*
X012730Y010944D01*
X012628Y011062D02*
X014012Y011062D01*
X014012Y011181D02*
X012479Y011181D01*
X012641Y011299D02*
X014012Y011299D01*
X014012Y011418D02*
X012724Y011418D01*
X012769Y011536D02*
X014012Y011536D01*
X012026Y011181D02*
X011302Y011181D01*
X011302Y011062D02*
X011877Y011062D01*
X011774Y010944D02*
X011258Y010944D01*
X011195Y010825D02*
X011725Y010825D01*
D16*
X017752Y004160D03*
D17*
X028752Y004160D01*
X029252Y004660D01*
X029252Y010660D01*
X028752Y011160D01*
X028252Y011160D01*
X026252Y011160D01*
X024252Y011160D01*
X022252Y011160D01*
M02*
